<?xml version="1.0"?>
<svg width="588" height="200" xmlns="http://www.w3.org/2000/svg" xmlns:svg="http://www.w3.org/2000/svg" xmlns:se="http://svg-edit.googlecode.com" data-name="Layer 1">
 <defs>
  <style>.cls-1,.cls-18,.cls-19{fill:#78b9db;}.cls-1,.cls-11,.cls-12,.cls-13,.cls-14,.cls-17,.cls-18,.cls-2,.cls-3,.cls-5,.cls-6,.cls-8,.cls-9{stroke:#fff;}.cls-1,.cls-22{stroke-linecap:round;stroke-linejoin:round;}.cls-2{fill:#77c3e2;}.cls-11,.cls-12,.cls-13,.cls-14,.cls-17,.cls-18,.cls-2,.cls-3,.cls-5,.cls-6,.cls-8,.cls-9{stroke-miterlimit:10;}.cls-3,.cls-4{fill:#8176b5;}.cls-5{fill:#7ac5d8;}.cls-6,.cls-7{fill:#7f81bb;}.cls-8{fill:#7cc6ce;}.cls-10,.cls-9{fill:#7d8fc3;}.cls-11{fill:#7fc6c5;}.cls-12,.cls-16{fill:#7b9fcc;}.cls-13{fill:#80c8bb;}.cls-14,.cls-15{fill:#79afd5;}.cls-17{fill:#82c9b1;}.cls-20{fill:#fff;}.cls-21{fill:#4d4d4f;}.cls-22{fill:none;stroke:#4c4c4c;stroke-width:2px;}</style>
 </defs>
 <title>lc-svg-version.1</title>
 <g class="layer">
  <title>Layer 1</title>
  <polygon class="cls-1" fill="black" id="svg_1" points="7.529999732971191,86.18000030517578 44.959999084472656,76.26000213623047 203.25,76.26000213623047 165.82000732421875,86.18000030517578 7.529999732971191,86.18000030517578 "/>
  <rect class="cls-18" height="43.26" id="svg_26" width="159.03" x="7.53" y="86.18"/>
  <polygon class="cls-18" id="svg_27" points="166.55999755859375,129.4499969482422 204.1699981689453,119.52000427246094 204.1699981689453,76.26000213623047 166.55999755859375,86.18000030517578 166.55999755859375,129.4499969482422 "/>
  <path class="cls-20" d="m183.59,108.84l3.5,-10.23l-4.59,0l0,-2.22l6.67,0l0,1.66l-3.51,10.79l-2.07,0z" id="svg_28"/>
  <path class="cls-20" d="m35.74,113l-0.6,-2l-3,0l-0.6,2l-1.9,0l2.93,-8.34l2.15,0l3,8.34l-1.98,0zm-1,-3.46c-0.56,-1.79 -0.87,-2.8 -0.94,-3s-0.12,-0.42 -0.15,-0.56q-0.2,0.73 -1.08,3.6l2.17,-0.04z" id="svg_35"/>
  <path class="cls-20" d="m44.42,107.25a2.53,2.53 0 0 1 -0.84,2a3.6,3.6 0 0 1 -2.38,0.75l-0.76,0l0,3l-1.76,0l0,-8.34l2.65,0a3.54,3.54 0 0 1 2.3,0.65a2.35,2.35 0 0 1 0.79,1.94zm-4,1.32l0.58,0a2,2 0 0 0 1.22,-0.32a1.14,1.14 0 0 0 0.4,-0.94a1.12,1.12 0 0 0 -0.34,-0.91a1.54,1.54 0 0 0 -1.06,-0.3l-0.8,0l0,2.47z" id="svg_36"/>
  <path class="cls-20" d="m51.73,107.25a2.53,2.53 0 0 1 -0.84,2a3.6,3.6 0 0 1 -2.38,0.71l-0.76,0l0,3l-1.75,0l0,-8.3l2.65,0a3.54,3.54 0 0 1 2.3,0.65a2.38,2.38 0 0 1 0.78,1.94zm-4,1.32l0.58,0a1.92,1.92 0 0 0 1.21,-0.32a1.14,1.14 0 0 0 0.41,-0.94a1.12,1.12 0 0 0 -0.34,-0.91a1.58,1.58 0 0 0 -1.06,-0.3l-0.8,0l0,2.47z" id="svg_37"/>
  <path class="cls-20" d="m53.29,113l0,-8.34l1.77,0l0,6.85l3.37,0l0,1.49l-5.14,0z" id="svg_38"/>
  <path class="cls-20" d="m59.87,113l0,-8.34l1.76,0l0,8.34l-1.76,0z" id="svg_39"/>
  <path class="cls-20" d="m67.25,106a1.77,1.77 0 0 0 -1.54,0.74a3.44,3.44 0 0 0 -0.55,2.09c0,1.85 0.7,2.77 2.09,2.77a6.62,6.62 0 0 0 2.12,-0.43l0,1.47a5.81,5.81 0 0 1 -2.29,0.43a3.5,3.5 0 0 1 -2.77,-1.07a4.66,4.66 0 0 1 -1,-3.16a5.23,5.23 0 0 1 0.47,-2.27a3.45,3.45 0 0 1 1.36,-1.49a4,4 0 0 1 2.07,-0.52a5.46,5.46 0 0 1 2.43,0.59l-0.57,1.43a8.47,8.47 0 0 0 -0.94,-0.39a2.74,2.74 0 0 0 -0.88,-0.19z" id="svg_40"/>
  <path class="cls-20" d="m76.22,113l-0.6,-2l-3,0l-0.62,2l-1.9,0l2.9,-8.37l2.15,0l3,8.34l-1.93,0.03zm-1,-3.46c-0.56,-1.79 -0.87,-2.8 -0.94,-3s-0.12,-0.42 -0.15,-0.56q-0.19,0.73 -1.08,3.6l2.17,-0.04z" id="svg_41"/>
  <path class="cls-20" d="m82.37,113l-1.77,0l0,-6.87l-2.25,0l0,-1.47l6.27,0l0,1.47l-2.25,0l0,6.87z" id="svg_42"/>
  <path class="cls-20" d="m85.9,113l0,-8.34l1.76,0l0,8.34l-1.76,0z" id="svg_43"/>
  <path class="cls-20" d="m97.29,108.8a4.51,4.51 0 0 1 -1,3.17a4.44,4.44 0 0 1 -5.87,0a4.53,4.53 0 0 1 -1,-3.18a4.45,4.45 0 0 1 1,-3.17a4.48,4.48 0 0 1 5.87,0a4.55,4.55 0 0 1 1,3.18zm-6.06,0a3.42,3.42 0 0 0 0.53,2.1a1.84,1.84 0 0 0 1.58,0.7c1.4,0 2.1,-0.93 2.1,-2.8s-0.69,-2.8 -2.09,-2.8a1.88,1.88 0 0 0 -1.59,0.71a3.49,3.49 0 0 0 -0.53,2.09z" id="svg_44"/>
  <path class="cls-20" d="m106.38,113l-2.24,0l-3.61,-6.29l0,0c0.07,1.11 0.11,1.9 0.11,2.38l0,3.91l-1.64,0l0,-8.34l2.22,0l3.61,6.22l0,0c-0.06,-1.08 -0.08,-1.84 -0.08,-2.29l0,-3.93l1.58,0l0.05,8.34z" id="svg_45"/>
  <path class="cls-20" d="m111.49,113l0,-8.34l1.76,0l0,6.85l3.37,0l0,1.49l-5.13,0z" id="svg_46"/>
  <path class="cls-20" d="m123.15,113l-0.6,-2l-3,0l-0.6,2l-1.95,0l3,-8.37l2.16,0l2.89,8.37l-1.9,0zm-1,-3.46c-0.56,-1.79 -0.87,-2.8 -0.94,-3s-0.12,-0.42 -0.15,-0.56c-0.13,0.49 -0.48,1.69 -1.08,3.6l2.17,-0.04z" id="svg_47"/>
  <path class="cls-20" d="m128.68,108.08l1.73,-3.42l1.9,0l-2.76,5.07l0,3.27l-1.75,0l0,-3.21l-2.75,-5.13l1.95,0l1.68,3.42z" id="svg_48"/>
  <path class="cls-20" d="m138.14,113l-4.79,0l0,-8.34l4.79,0l0,1.44l-3,0l0,1.83l2.81,0l0,1.44l-2.81,0l0,2.14l3,0l0,1.49z" id="svg_49"/>
  <path class="cls-20" d="m141.63,109.78l0,3.22l-1.76,0l0,-8.34l2.42,0a4.09,4.09 0 0 1 2.51,0.62a2.46,2.46 0 0 1 0.41,3.17a2.7,2.7 0 0 1 -1.15,0.9q1.88,2.79 2.45,3.62l-2,0l-2,-3.19l-0.88,0zm0,-1.43l0.57,0a2.19,2.19 0 0 0 1.23,-0.28a1,1 0 0 0 0.4,-0.88a0.9,0.9 0 0 0 -0.41,-0.84a2.49,2.49 0 0 0 -1.25,-0.25l-0.54,0l0,2.25z" id="svg_50"/>
  <path class="cls-21" d="m237.53,97.3l-1.25,0l0,-5l-5.64,0l0,5l-1.24,0l0,-10.71l1.24,0l0,4.56l5.64,0l0,-4.56l1.25,0l0,10.71z" id="svg_132"/>
  <path class="cls-21" d="m241.35,89.27l0,5.21a2.12,2.12 0 0 0 0.44,1.46a1.84,1.84 0 0 0 1.4,0.49a2.26,2.26 0 0 0 1.84,-0.69a3.47,3.47 0 0 0 0.59,-2.25l0,-4.22l1.21,0l0,8l-1,0l-0.18,-1.08l-0.06,0a2.42,2.42 0 0 1 -1,0.91a3.48,3.48 0 0 1 -1.51,0.31a3.1,3.1 0 0 1 -2.2,-0.69a3,3 0 0 1 -0.72,-2.23l0,-5.22l1.19,0z" id="svg_133"/>
  <path class="cls-21" d="m259.52,97.3l0,-5.22a2.19,2.19 0 0 0 -0.41,-1.44a1.6,1.6 0 0 0 -1.28,-0.48a2,2 0 0 0 -1.68,0.65a3.09,3.09 0 0 0 -0.54,2l0,4.49l-1.21,0l0,-5.22a2.19,2.19 0 0 0 -0.41,-1.44a1.62,1.62 0 0 0 -1.29,-0.48a2,2 0 0 0 -1.67,0.68a3.76,3.76 0 0 0 -0.53,2.25l0,4.21l-1.22,0l0,-8l1,0l0.2,1.1l0.06,0a2.39,2.39 0 0 1 1,-0.92a3,3 0 0 1 1.4,-0.33a2.38,2.38 0 0 1 2.46,1.37l0.06,0a2.57,2.57 0 0 1 1,-1a3.29,3.29 0 0 1 1.55,-0.37a2.74,2.74 0 0 1 2,0.7a3.16,3.16 0 0 1 0.68,2.24l0,5.21l-1.17,0z" id="svg_134"/>
  <path class="cls-21" d="m268.06,97.3l-0.25,-1.14l-0.05,0a3.49,3.49 0 0 1 -1.2,1a3.65,3.65 0 0 1 -1.49,0.26a2.67,2.67 0 0 1 -1.87,-0.61a2.21,2.21 0 0 1 -0.68,-1.75c0,-1.62 1.29,-2.47 3.89,-2.55l1.36,0l0,-0.51a2.05,2.05 0 0 0 -0.41,-1.4a1.67,1.67 0 0 0 -1.3,-0.45a5.33,5.33 0 0 0 -2.27,0.62l-0.37,-0.93a5.34,5.34 0 0 1 1.3,-0.51a5.7,5.7 0 0 1 1.42,-0.18a3,3 0 0 1 2.12,0.64a2.61,2.61 0 0 1 0.7,2l0,5.51l-0.9,0zm-2.75,-0.86a2.47,2.47 0 0 0 1.78,-0.62a2.32,2.32 0 0 0 0.65,-1.74l0,-0.73l-1.21,0a4.62,4.62 0 0 0 -2.1,0.45a1.38,1.38 0 0 0 -0.64,1.24a1.29,1.29 0 0 0 0.4,1a1.67,1.67 0 0 0 1.12,0.4z" id="svg_135"/>
  <path class="cls-21" d="m276.86,97.3l0,-5.2a2.12,2.12 0 0 0 -0.44,-1.46a1.84,1.84 0 0 0 -1.4,-0.48a2.3,2.3 0 0 0 -1.85,0.68a3.43,3.43 0 0 0 -0.59,2.25l0,4.21l-1.21,0l0,-8l1,0l0.19,1.1l0.06,0a2.48,2.48 0 0 1 1.05,-0.92a3.37,3.37 0 0 1 1.5,-0.33a3.05,3.05 0 0 1 2.18,0.7a3,3 0 0 1 0.74,2.24l0,5.21l-1.23,0z" id="svg_136"/>
  <path class="cls-21" d="m280.12,93.83l0,-1.11l3.59,0l0,1.11l-3.59,0z" id="svg_137"/>
  <path class="cls-21" d="m289.19,97.44a3.42,3.42 0 0 1 -2.7,-1.07a4.44,4.44 0 0 1 -0.95,-3a4.56,4.56 0 0 1 1,-3.12a3.51,3.51 0 0 1 2.76,-1.1a5.73,5.73 0 0 1 1.16,0.13a3.75,3.75 0 0 1 0.91,0.29l-0.38,1a6.38,6.38 0 0 0 -0.87,-0.26a4,4 0 0 0 -0.85,-0.11c-1.63,0 -2.44,1 -2.44,3.12a3.77,3.77 0 0 0 0.59,2.27a2.08,2.08 0 0 0 1.77,0.79a5.36,5.36 0 0 0 2.06,-0.43l0,1.05a4.37,4.37 0 0 1 -2.06,0.44z" id="svg_138"/>
  <path class="cls-21" d="m299.85,93.28a4.4,4.4 0 0 1 -1,3.06a3.46,3.46 0 0 1 -2.73,1.1a3.56,3.56 0 0 1 -1.91,-0.5a3.32,3.32 0 0 1 -1.29,-1.45a5,5 0 0 1 -0.46,-2.21a4.4,4.4 0 0 1 1,-3.06a3.46,3.46 0 0 1 2.72,-1.1a3.42,3.42 0 0 1 2.68,1.13a4.39,4.39 0 0 1 0.99,3.03zm-6.12,0a3.81,3.81 0 0 0 0.62,2.34a2.43,2.43 0 0 0 3.62,0a3.77,3.77 0 0 0 0.62,-2.34a3.76,3.76 0 0 0 -0.59,-2.28a2.49,2.49 0 0 0 -3.63,0a3.8,3.8 0 0 0 -0.64,2.28z" id="svg_139"/>
  <path class="cls-21" d="m312.14,97.3l0,-5.22a2.19,2.19 0 0 0 -0.41,-1.44a1.59,1.59 0 0 0 -1.28,-0.48a2,2 0 0 0 -1.67,0.65a3.09,3.09 0 0 0 -0.54,2l0,4.49l-1.24,0l0,-5.22a2.19,2.19 0 0 0 -0.41,-1.44a1.59,1.59 0 0 0 -1.28,-0.48a2,2 0 0 0 -1.68,0.68a3.76,3.76 0 0 0 -0.53,2.25l0,4.21l-1.21,0l0,-8l1,0l0.19,1.1l0.06,0a2.46,2.46 0 0 1 1,-0.92a3,3 0 0 1 1.41,-0.33a2.39,2.39 0 0 1 2.45,1.34l0,0a2.57,2.57 0 0 1 1,-1a3.33,3.33 0 0 1 1.56,-0.37a2.74,2.74 0 0 1 2,0.7a3.16,3.16 0 0 1 0.67,2.24l0,5.24l-1.09,0z" id="svg_140"/>
  <path class="cls-21" d="m319.5,97.44a3.51,3.51 0 0 1 -1.43,-0.28a2.64,2.64 0 0 1 -1.09,-0.9l-0.09,0a10.64,10.64 0 0 1 0.11,1.34l0,3.3l-1.22,0l0,-11.63l1,0l0.17,1.1l0.05,0a2.72,2.72 0 0 1 1.09,-0.95a3.23,3.23 0 0 1 1.43,-0.3a3,3 0 0 1 2.46,1.1a4.77,4.77 0 0 1 0.87,3.06a4.76,4.76 0 0 1 -0.88,3.07a3,3 0 0 1 -2.47,1.09zm-0.18,-7.28a2.14,2.14 0 0 0 -1.78,0.68a3.53,3.53 0 0 0 -0.54,2.16l0,0.27a4.07,4.07 0 0 0 0.56,2.42a2.17,2.17 0 0 0 1.81,0.73a1.87,1.87 0 0 0 1.63,-0.85a4,4 0 0 0 0.59,-2.32a3.85,3.85 0 0 0 -0.59,-2.25a1.91,1.91 0 0 0 -1.68,-0.84z" id="svg_141"/>
  <path class="cls-21" d="m326.05,89.27l0,5.21a2.12,2.12 0 0 0 0.44,1.46a1.84,1.84 0 0 0 1.4,0.49a2.26,2.26 0 0 0 1.84,-0.69a3.47,3.47 0 0 0 0.59,-2.25l0,-4.22l1.21,0l0,8l-1,0l-0.18,-1.08l-0.06,0a2.42,2.42 0 0 1 -1,0.91a3.48,3.48 0 0 1 -1.51,0.31a3.1,3.1 0 0 1 -2.2,-0.69a3,3 0 0 1 -0.72,-2.23l0,-5.22l1.19,0z" id="svg_142"/>
  <path class="cls-21" d="m336.77,96.44a3.12,3.12 0 0 0 0.62,-0.05a3,3 0 0 0 0.48,-0.1l0,0.93a2,2 0 0 1 -0.58,0.16a4.6,4.6 0 0 1 -0.69,0.06c-1.56,0 -2.33,-0.81 -2.33,-2.45l0,-4.77l-1.15,0l0,-0.59l1.15,-0.51l0.51,-1.71l0.7,0l0,1.86l2.33,0l0,1l-2.33,0l0,4.72a1.62,1.62 0 0 0 0.35,1.11a1.19,1.19 0 0 0 0.94,0.34z" id="svg_143"/>
  <path class="cls-21" d="m342.72,97.44a3.7,3.7 0 0 1 -2.81,-1.08a4.17,4.17 0 0 1 -1,-3a4.63,4.63 0 0 1 1,-3.08a3.17,3.17 0 0 1 2.56,-1.15a3,3 0 0 1 2.39,1a3.78,3.78 0 0 1 0.88,2.62l0,0.76l-5.53,0a3.17,3.17 0 0 0 0.72,2.15a2.44,2.44 0 0 0 1.9,0.73a6.52,6.52 0 0 0 2.57,-0.54l0,1.09a6.83,6.83 0 0 1 -1.22,0.39a7,7 0 0 1 -1.46,0.11zm-0.33,-7.3a2,2 0 0 0 -1.54,0.63a2.87,2.87 0 0 0 -0.68,1.74l4.2,0a2.64,2.64 0 0 0 -0.52,-1.76a1.82,1.82 0 0 0 -1.46,-0.61z" id="svg_144"/>
  <path class="cls-21" d="m351.34,89.12a4.61,4.61 0 0 1 1,0.09l-0.17,1.13a4.31,4.31 0 0 0 -0.88,-0.11a2.12,2.12 0 0 0 -1.66,0.79a2.86,2.86 0 0 0 -0.7,2l0,4.28l-1.21,0l0,-8l1,0l0.14,1.49l0.06,0a3.56,3.56 0 0 1 1.08,-1.24a2.45,2.45 0 0 1 1.34,-0.43z" id="svg_145"/>
  <path class="cls-21" d="m357.6,87.1a0.81,0.81 0 0 1 0.2,-0.62a0.72,0.72 0 0 1 0.51,-0.19a0.73,0.73 0 0 1 0.51,0.2a0.79,0.79 0 0 1 0.21,0.61a0.82,0.82 0 0 1 -0.21,0.61a0.75,0.75 0 0 1 -1,0a0.82,0.82 0 0 1 -0.22,-0.61zm1.31,10.2l-1.21,0l0,-8l1.21,0l0,8z" id="svg_146"/>
  <path class="cls-21" d="m366.85,97.3l0,-5.2a2.07,2.07 0 0 0 -0.44,-1.46a1.84,1.84 0 0 0 -1.4,-0.48a2.3,2.3 0 0 0 -1.85,0.68a3.43,3.43 0 0 0 -0.58,2.25l0,4.21l-1.22,0l0,-8l1,0l0.2,1.1l0.06,0a2.45,2.45 0 0 1 1,-0.92a3.38,3.38 0 0 1 1.51,-0.33a3.09,3.09 0 0 1 2.18,0.7a3,3 0 0 1 0.73,2.24l0,5.21l-1.19,0z" id="svg_147"/>
  <path class="cls-21" d="m373.11,96.44a3.22,3.22 0 0 0 0.63,-0.05a2.66,2.66 0 0 0 0.47,-0.1l0,0.93a1.87,1.87 0 0 1 -0.58,0.16a4.6,4.6 0 0 1 -0.69,0.06c-1.55,0 -2.33,-0.81 -2.33,-2.45l0,-4.77l-1.15,0l0,-0.59l1.15,-0.51l0.51,-1.71l0.71,0l0,1.86l2.32,0l0,1l-2.32,0l0,4.72a1.62,1.62 0 0 0 0.34,1.11a1.19,1.19 0 0 0 0.94,0.34z" id="svg_148"/>
  <path class="cls-21" d="m379.06,97.44a3.71,3.71 0 0 1 -2.81,-1.08a4.21,4.21 0 0 1 -1,-3a4.63,4.63 0 0 1 1,-3.08a3.19,3.19 0 0 1 2.57,-1.15a3,3 0 0 1 2.38,1a3.78,3.78 0 0 1 0.88,2.62l0,0.76l-5.53,0a3.22,3.22 0 0 0 0.72,2.15a2.47,2.47 0 0 0 1.91,0.73a6.5,6.5 0 0 0 2.56,-0.54l0,1.09a6.83,6.83 0 0 1 -1.22,0.39a6.91,6.91 0 0 1 -1.46,0.11zm-0.33,-7.3a2,2 0 0 0 -1.54,0.63a2.93,2.93 0 0 0 -0.68,1.74l4.2,0a2.7,2.7 0 0 0 -0.51,-1.76a1.83,1.83 0 0 0 -1.47,-0.61z" id="svg_149"/>
  <path class="cls-21" d="m387.68,89.12a4.61,4.61 0 0 1 1,0.09l-0.17,1.13a4.31,4.31 0 0 0 -0.88,-0.11a2.13,2.13 0 0 0 -1.66,0.79a2.9,2.9 0 0 0 -0.69,2l0,4.28l-1.28,0l0,-8l1,0l0.14,1.49l0.06,0a3.56,3.56 0 0 1 1.08,-1.21a2.45,2.45 0 0 1 1.4,-0.46z" id="svg_150"/>
  <path class="cls-21" d="m395,97.3l-0.24,-1.14l-0.06,0a3.4,3.4 0 0 1 -1.2,1a3.62,3.62 0 0 1 -1.49,0.26a2.67,2.67 0 0 1 -1.87,-0.61a2.25,2.25 0 0 1 -0.68,-1.75q0,-2.43 3.89,-2.55l1.36,0l0,-0.51a2.05,2.05 0 0 0 -0.4,-1.4a1.68,1.68 0 0 0 -1.3,-0.45a5.29,5.29 0 0 0 -2.27,0.62l-0.38,-0.93a5.5,5.5 0 0 1 1.3,-0.51a5.76,5.76 0 0 1 1.42,-0.18a3,3 0 0 1 2.13,0.64a2.65,2.65 0 0 1 0.69,2l0,5.51l-0.9,0zm-2.75,-0.86a2.51,2.51 0 0 0 1.79,-0.62a2.32,2.32 0 0 0 0.64,-1.74l0,-0.73l-1.21,0a4.53,4.53 0 0 0 -2.09,0.45a1.36,1.36 0 0 0 -0.64,1.24a1.25,1.25 0 0 0 0.4,1a1.62,1.62 0 0 0 1.09,0.4l0.02,0z" id="svg_151"/>
  <path class="cls-21" d="m401.53,97.44a3.42,3.42 0 0 1 -2.7,-1.07a4.44,4.44 0 0 1 -0.95,-3a4.56,4.56 0 0 1 1,-3.12a3.49,3.49 0 0 1 2.76,-1.1a5.73,5.73 0 0 1 1.16,0.13a3.91,3.91 0 0 1 0.91,0.29l-0.38,1a6.13,6.13 0 0 0 -0.88,-0.26a3.88,3.88 0 0 0 -0.84,-0.11c-1.63,0 -2.44,1 -2.44,3.12a3.7,3.7 0 0 0 0.59,2.27a2.08,2.08 0 0 0 1.77,0.79a5.36,5.36 0 0 0 2.06,-0.43l0,1.05a4.37,4.37 0 0 1 -2.06,0.44z" id="svg_152"/>
  <path class="cls-21" d="m408.52,96.44a3.12,3.12 0 0 0 0.62,-0.05a3,3 0 0 0 0.48,-0.1l0,0.93a2,2 0 0 1 -0.58,0.16a4.6,4.6 0 0 1 -0.69,0.06c-1.56,0 -2.33,-0.81 -2.33,-2.45l0,-4.77l-1.15,0l0,-0.59l1.15,-0.51l0.51,-1.71l0.7,0l0,1.86l2.33,0l0,1l-2.33,0l0,4.72a1.62,1.62 0 0 0 0.35,1.11a1.19,1.19 0 0 0 0.94,0.34z" id="svg_153"/>
  <path class="cls-21" d="m411.16,87.1a0.85,0.85 0 0 1 0.2,-0.62a0.76,0.76 0 0 1 1,0a0.79,0.79 0 0 1 0.21,0.61a0.82,0.82 0 0 1 -0.21,0.61a0.72,0.72 0 0 1 -0.5,0.2a0.73,0.73 0 0 1 -0.52,-0.2a0.86,0.86 0 0 1 -0.18,-0.6zm1.32,10.2l-1.22,0l0,-8l1.22,0l0,8z" id="svg_154"/>
  <path class="cls-21" d="m421.86,93.28a4.4,4.4 0 0 1 -1,3.06a3.46,3.46 0 0 1 -2.73,1.1a3.56,3.56 0 0 1 -1.91,-0.5a3.32,3.32 0 0 1 -1.29,-1.45a5,5 0 0 1 -0.46,-2.21a4.4,4.4 0 0 1 1,-3.06a3.46,3.46 0 0 1 2.72,-1.1a3.4,3.4 0 0 1 2.68,1.13a4.39,4.39 0 0 1 0.99,3.03zm-6.12,0a3.81,3.81 0 0 0 0.62,2.34a2.43,2.43 0 0 0 3.62,0a3.77,3.77 0 0 0 0.62,-2.34a3.76,3.76 0 0 0 -0.6,-2.28a2.49,2.49 0 0 0 -3.63,0a3.8,3.8 0 0 0 -0.63,2.28z" id="svg_155"/>
  <path class="cls-21" d="m429.41,97.3l0,-5.2a2.08,2.08 0 0 0 -0.45,-1.46a1.81,1.81 0 0 0 -1.4,-0.48a2.27,2.27 0 0 0 -1.84,0.68a3.43,3.43 0 0 0 -0.59,2.25l0,4.21l-1.21,0l0,-8l1,0l0.19,1.1l0.06,0a2.48,2.48 0 0 1 1,-0.92a3.37,3.37 0 0 1 1.5,-0.33a3.05,3.05 0 0 1 2.18,0.7a3,3 0 0 1 0.74,2.24l0,5.21l-1.18,0z" id="svg_156"/>
  <path class="cls-21" d="m438.24,97.3l-1.24,0l0,-11.4l1.22,0l0.02,11.4z" id="svg_157"/>
  <path class="cls-21" d="m445.61,97.3l-0.24,-1.14l-0.06,0a3.47,3.47 0 0 1 -1.19,1a3.65,3.65 0 0 1 -1.49,0.26a2.71,2.71 0 0 1 -1.88,-0.61a2.24,2.24 0 0 1 -0.67,-1.75c0,-1.62 1.29,-2.47 3.89,-2.55l1.36,0l0,-0.51a2.05,2.05 0 0 0 -0.41,-1.4a1.67,1.67 0 0 0 -1.3,-0.45a5.33,5.33 0 0 0 -2.27,0.62l-0.37,-0.93a5.34,5.34 0 0 1 1.3,-0.51a5.7,5.7 0 0 1 1.42,-0.18a3,3 0 0 1 2.12,0.64a2.65,2.65 0 0 1 0.7,2l0,5.51l-0.91,0zm-2.74,-0.86a2.49,2.49 0 0 0 1.78,-0.62a2.32,2.32 0 0 0 0.65,-1.74l0,-0.73l-1.22,0a4.6,4.6 0 0 0 -2.09,0.45a1.38,1.38 0 0 0 -0.64,1.24a1.25,1.25 0 0 0 0.4,1a1.67,1.67 0 0 0 1.12,0.4z" id="svg_158"/>
  <path class="cls-21" d="m447.67,89.27l1.33,0l1.76,4.58a18,18 0 0 1 0.72,2.26l0.06,0c0.06,-0.25 0.19,-0.67 0.4,-1.28s0.86,-2.45 2,-5.56l1.31,0l-3.45,9.14a4.47,4.47 0 0 1 -1.2,1.92a2.55,2.55 0 0 1 -1.68,0.57a5.08,5.08 0 0 1 -1.1,-0.12l0,-1a4.16,4.16 0 0 0 0.9,0.09a1.86,1.86 0 0 0 1.79,-1.41l0.45,-1.14l-3.29,-8.05z" id="svg_159"/>
  <path class="cls-21" d="m459.79,97.44a3.71,3.71 0 0 1 -2.79,-1.08a4.21,4.21 0 0 1 -1,-3a4.63,4.63 0 0 1 1,-3.08a3.19,3.19 0 0 1 2.57,-1.15a3,3 0 0 1 2.38,1a3.78,3.78 0 0 1 0.88,2.62l0,0.76l-5.53,0a3.22,3.22 0 0 0 0.72,2.15a2.47,2.47 0 0 0 1.91,0.73a6.5,6.5 0 0 0 2.56,-0.54l0,1.09a6.83,6.83 0 0 1 -1.22,0.39a6.91,6.91 0 0 1 -1.48,0.11zm-0.33,-7.3a2,2 0 0 0 -1.54,0.63a2.93,2.93 0 0 0 -0.68,1.74l4.2,0a2.7,2.7 0 0 0 -0.51,-1.76a1.84,1.84 0 0 0 -1.47,-0.61z" id="svg_160"/>
  <path class="cls-21" d="m468.41,89.12a4.61,4.61 0 0 1 1,0.09l-0.17,1.13a4.3,4.3 0 0 0 -0.87,-0.11a2.13,2.13 0 0 0 -1.67,0.79a2.9,2.9 0 0 0 -0.69,2l0,4.28l-1.22,0l0,-8l1,0l0.14,1.49l0.07,0a3.56,3.56 0 0 1 1,-1.24a2.45,2.45 0 0 1 1.41,-0.43z" id="svg_161"/>
  <path class="cls-21" d="m471,95.56l0.11,0.16c-0.13,0.49 -0.31,1.06 -0.55,1.71s-0.49,1.25 -0.75,1.8l-0.91,0c0.13,-0.51 0.27,-1.13 0.43,-1.88s0.27,-1.35 0.34,-1.79l1.33,0z" id="svg_162"/>
  <path class="cls-21" d="m483.83,97.3l-1.47,-4.71c-0.09,-0.29 -0.27,-0.94 -0.52,-2l-0.06,0c-0.19,0.85 -0.36,1.51 -0.51,2l-1.52,4.7l-1.4,0l-2.19,-8l1.27,0c0.52,2 0.91,3.55 1.18,4.61a19.11,19.11 0 0 1 0.47,2.13l0.06,0c0.05,-0.28 0.14,-0.64 0.26,-1.08s0.22,-0.79 0.31,-1.05l1.47,-4.61l1.32,0l1.44,4.61a16.28,16.28 0 0 1 0.55,2.11l0.06,0a7.33,7.33 0 0 1 0.16,-0.81q0.12,-0.54 1.52,-5.91l1.26,0l-2.21,8l-1.45,0.01z" id="svg_163"/>
  <path class="cls-21" d="m494.55,97.3l0,-5.2a2.08,2.08 0 0 0 -0.45,-1.46a1.83,1.83 0 0 0 -1.4,-0.48a2.3,2.3 0 0 0 -1.85,0.69a3.53,3.53 0 0 0 -0.58,2.25l0,4.2l-1.21,0l0,-11.4l1.21,0l0,3.45a7.22,7.22 0 0 1 -0.06,1l0.08,0a2.51,2.51 0 0 1 1,-0.91a3.32,3.32 0 0 1 1.51,-0.33a3.09,3.09 0 0 1 2.21,0.7a3,3 0 0 1 0.74,2.22l0,5.27l-1.2,0z" id="svg_164"/>
  <path class="cls-21" d="m501.6,97.44a3.7,3.7 0 0 1 -2.81,-1.08a4.17,4.17 0 0 1 -1,-3a4.63,4.63 0 0 1 1,-3.08a3.17,3.17 0 0 1 2.56,-1.15a3,3 0 0 1 2.39,1a3.78,3.78 0 0 1 0.88,2.62l0,0.76l-5.62,0a3.17,3.17 0 0 0 0.71,2.15a2.48,2.48 0 0 0 1.91,0.73a6.52,6.52 0 0 0 2.57,-0.54l0,1.09a6.83,6.83 0 0 1 -1.22,0.39a7,7 0 0 1 -1.37,0.11zm-0.33,-7.3a2,2 0 0 0 -1.54,0.63a2.87,2.87 0 0 0 -0.68,1.74l4.2,0a2.64,2.64 0 0 0 -0.52,-1.76a1.82,1.82 0 0 0 -1.46,-0.61z" id="svg_165"/>
  <path class="cls-21" d="m510.22,89.12a4.68,4.68 0 0 1 1,0.09l-0.22,1.13a4.39,4.39 0 0 0 -0.88,-0.11a2.15,2.15 0 0 0 -1.67,0.79a2.9,2.9 0 0 0 -0.69,2l0,4.28l-1.21,0l0,-8l1,0l0.14,1.49l0.06,0a3.53,3.53 0 0 1 1.07,-1.21a2.48,2.48 0 0 1 1.4,-0.46z" id="svg_166"/>
  <path class="cls-21" d="m515.92,97.44a3.71,3.71 0 0 1 -2.81,-1.08a4.21,4.21 0 0 1 -1,-3a4.63,4.63 0 0 1 1,-3.08a3.19,3.19 0 0 1 2.57,-1.15a3.06,3.06 0 0 1 2.39,1a3.82,3.82 0 0 1 0.87,2.62l0,0.76l-5.53,0a3.22,3.22 0 0 0 0.72,2.15a2.47,2.47 0 0 0 1.91,0.73a6.5,6.5 0 0 0 2.56,-0.54l0,1.09a6.83,6.83 0 0 1 -1.22,0.39a6.91,6.91 0 0 1 -1.46,0.11zm-0.33,-7.3a2,2 0 0 0 -1.54,0.63a2.93,2.93 0 0 0 -0.68,1.74l4.2,0a2.7,2.7 0 0 0 -0.51,-1.76a1.83,1.83 0 0 0 -1.47,-0.61z" id="svg_167"/>
  <path class="cls-21" d="m234.15,115.3l-0.24,-1.14l-0.06,0a3.4,3.4 0 0 1 -1.2,1a3.59,3.59 0 0 1 -1.49,0.26a2.68,2.68 0 0 1 -1.87,-0.61a2.24,2.24 0 0 1 -0.67,-1.75q0,-2.43 3.88,-2.55l1.37,0l0,-0.51a2.05,2.05 0 0 0 -0.41,-1.4a1.67,1.67 0 0 0 -1.3,-0.45a5.29,5.29 0 0 0 -2.27,0.62l-0.37,-0.93a5.18,5.18 0 0 1 1.3,-0.51a5.68,5.68 0 0 1 1.41,-0.18a3,3 0 0 1 2.13,0.64a2.65,2.65 0 0 1 0.69,2l0,5.51l-0.9,0zm-2.74,-0.86a2.49,2.49 0 0 0 1.78,-0.62a2.32,2.32 0 0 0 0.65,-1.74l0,-0.73l-1.22,0a4.6,4.6 0 0 0 -2.09,0.45a1.36,1.36 0 0 0 -0.64,1.24a1.25,1.25 0 0 0 0.4,1a1.65,1.65 0 0 0 1.12,0.4z" id="svg_168"/>
  <path class="cls-21" d="m241.2,115.44a3.51,3.51 0 0 1 -1.43,-0.28a2.7,2.7 0 0 1 -1.09,-0.9l-0.09,0a10.64,10.64 0 0 1 0.09,1.34l0,3.3l-1.21,0l0,-11.63l1,0l0.17,1.1l0.06,0a2.78,2.78 0 0 1 1.09,-0.95a3.27,3.27 0 0 1 1.43,-0.3a3,3 0 0 1 2.47,1.1a4.82,4.82 0 0 1 0.86,3.06a4.76,4.76 0 0 1 -0.88,3.07a3,3 0 0 1 -2.47,1.09zm-0.2,-7.28a2.13,2.13 0 0 0 -1.78,0.68a3.46,3.46 0 0 0 -0.57,2.17l0,0.27a4,4 0 0 0 0.57,2.42a2.14,2.14 0 0 0 1.8,0.73a1.86,1.86 0 0 0 1.63,-0.85a3.93,3.93 0 0 0 0.59,-2.32a3.78,3.78 0 0 0 -0.59,-2.3a1.91,1.91 0 0 0 -1.65,-0.8z" id="svg_169"/>
  <path class="cls-21" d="m250.33,115.44a3.51,3.51 0 0 1 -1.43,-0.28a2.64,2.64 0 0 1 -1.09,-0.9l-0.09,0a10.64,10.64 0 0 1 0.09,1.34l0,3.3l-1.22,0l0,-11.63l1,0l0.17,1.1l0.06,0a2.78,2.78 0 0 1 1.09,-0.95a3.27,3.27 0 0 1 1.43,-0.3a3,3 0 0 1 2.46,1.1a4.77,4.77 0 0 1 0.87,3.06a4.76,4.76 0 0 1 -0.88,3.07a3,3 0 0 1 -2.46,1.09zm-0.18,-7.28a2.14,2.14 0 0 0 -1.78,0.68a3.53,3.53 0 0 0 -0.56,2.17l0,0.27a4.07,4.07 0 0 0 0.56,2.42a2.17,2.17 0 0 0 1.81,0.73a1.86,1.86 0 0 0 1.63,-0.85a3.93,3.93 0 0 0 0.59,-2.32a3.78,3.78 0 0 0 -0.59,-2.3a1.91,1.91 0 0 0 -1.66,-0.8z" id="svg_170"/>
  <path class="cls-21" d="m257,115.3l-1.21,0l0,-11.4l1.21,0l0,11.4z" id="svg_171"/>
  <path class="cls-21" d="m259.3,105.1a0.85,0.85 0 0 1 0.2,-0.62a0.76,0.76 0 0 1 1,0a0.79,0.79 0 0 1 0.21,0.61a0.82,0.82 0 0 1 -0.21,0.61a0.72,0.72 0 0 1 -0.5,0.2a0.73,0.73 0 0 1 -0.52,-0.2a0.86,0.86 0 0 1 -0.18,-0.6zm1.32,10.2l-1.22,0l0,-8l1.22,0l0,8z" id="svg_172"/>
  <path class="cls-21" d="m266.31,115.44a3.42,3.42 0 0 1 -2.7,-1.07a4.39,4.39 0 0 1 -1,-3a4.61,4.61 0 0 1 1,-3.12a3.51,3.51 0 0 1 2.77,-1.1a5.81,5.81 0 0 1 1.16,0.13a3.65,3.65 0 0 1 0.9,0.29l-0.37,1a6.54,6.54 0 0 0 -0.88,-0.26a4,4 0 0 0 -0.84,-0.11c-1.63,0 -2.45,1 -2.45,3.12a3.7,3.7 0 0 0 0.6,2.27a2.08,2.08 0 0 0 1.77,0.79a5.4,5.4 0 0 0 2.06,-0.43l0,1.05a4.4,4.4 0 0 1 -2.02,0.44z" id="svg_173"/>
  <path class="cls-21" d="m275.32,115.3l-0.24,-1.14l-0.08,0a3.4,3.4 0 0 1 -1.2,1a3.62,3.62 0 0 1 -1.49,0.26a2.67,2.67 0 0 1 -1.87,-0.61a2.25,2.25 0 0 1 -0.68,-1.75q0,-2.43 3.89,-2.55l1.36,0l0,-0.51a2.05,2.05 0 0 0 -0.4,-1.4a1.68,1.68 0 0 0 -1.3,-0.45a5.29,5.29 0 0 0 -2.27,0.62l-0.38,-0.93a5.5,5.5 0 0 1 1.3,-0.51a5.76,5.76 0 0 1 1.42,-0.18a3,3 0 0 1 2.13,0.64a2.65,2.65 0 0 1 0.69,2l0,5.51l-0.88,0zm-2.75,-0.86a2.51,2.51 0 0 0 1.79,-0.62a2.32,2.32 0 0 0 0.64,-1.74l0,-0.73l-1.21,0a4.53,4.53 0 0 0 -2.09,0.45a1.36,1.36 0 0 0 -0.64,1.24a1.25,1.25 0 0 0 0.4,1a1.62,1.62 0 0 0 1.11,0.4z" id="svg_174"/>
  <path class="cls-21" d="m281.3,114.44a3.18,3.18 0 0 0 0.62,0a3,3 0 0 0 0.48,-0.1l0,0.93a2,2 0 0 1 -0.58,0.16a4.62,4.62 0 0 1 -0.7,0.06c-1.55,0 -2.33,-0.81 -2.33,-2.45l0,-4.82l-1.15,0l0,-0.59l1.15,-0.51l0.52,-1.71l0.7,0l0,1.86l2.33,0l0,0.95l-2.34,0l0,4.72a1.62,1.62 0 0 0 0.34,1.11a1.21,1.21 0 0 0 0.96,0.39z" id="svg_175"/>
  <path class="cls-21" d="m283.93,105.1a0.82,0.82 0 0 1 0.21,-0.62a0.72,0.72 0 0 1 0.51,-0.19a0.73,0.73 0 0 1 0.51,0.2a0.79,0.79 0 0 1 0.21,0.61a0.82,0.82 0 0 1 -0.21,0.61a0.75,0.75 0 0 1 -1,0a0.82,0.82 0 0 1 -0.23,-0.61zm1.32,10.2l-1.25,0l0,-8l1.21,0l0.04,8z" id="svg_176"/>
  <path class="cls-21" d="m294.64,111.28a4.4,4.4 0 0 1 -1,3.06a3.46,3.46 0 0 1 -2.73,1.1a3.62,3.62 0 0 1 -1.92,-0.5a3.36,3.36 0 0 1 -1.28,-1.45a5,5 0 0 1 -0.46,-2.21a4.45,4.45 0 0 1 1,-3.06a3.48,3.48 0 0 1 2.73,-1.1a3.38,3.38 0 0 1 2.67,1.13a4.34,4.34 0 0 1 0.99,3.03zm-6.12,0a3.81,3.81 0 0 0 0.62,2.34a2.43,2.43 0 0 0 3.62,0a3.77,3.77 0 0 0 0.62,-2.34a3.76,3.76 0 0 0 -0.62,-2.33a2.17,2.17 0 0 0 -1.83,-0.79a2.13,2.13 0 0 0 -1.8,0.78a3.74,3.74 0 0 0 -0.61,2.34z" id="svg_177"/>
  <path class="cls-21" d="m302.19,115.3l0,-5.2a2.08,2.08 0 0 0 -0.45,-1.46a1.83,1.83 0 0 0 -1.4,-0.48a2.27,2.27 0 0 0 -1.84,0.68a3.37,3.37 0 0 0 -0.59,2.25l0,4.21l-1.22,0l0,-8l1,0l0.2,1.1l0.06,0a2.48,2.48 0 0 1 1.05,-0.92a3.34,3.34 0 0 1 1.5,-0.33a3.09,3.09 0 0 1 2.18,0.7a3,3 0 0 1 0.73,2.24l0,5.21l-1.22,0z" id="svg_178"/>
  <path class="cls-21" d="m311,113.11a2,2 0 0 1 -0.83,1.73a4,4 0 0 1 -2.35,0.6a5.09,5.09 0 0 1 -2.49,-0.5l0,-1.13a5.75,5.75 0 0 0 1.24,0.46a4.9,4.9 0 0 0 1.28,0.17a3,3 0 0 0 1.47,-0.3a1,1 0 0 0 0.1,-1.73a6.39,6.39 0 0 0 -1.58,-0.79a8.71,8.71 0 0 1 -1.6,-0.73a2.33,2.33 0 0 1 -0.7,-0.7a1.91,1.91 0 0 1 -0.23,-0.95a1.82,1.82 0 0 1 0.8,-1.55a3.7,3.7 0 0 1 2.19,-0.57a6.41,6.41 0 0 1 2.53,0.53l-0.43,1a5.86,5.86 0 0 0 -2.19,-0.5a2.5,2.5 0 0 0 -1.3,0.27a0.83,0.83 0 0 0 -0.44,0.75a0.9,0.9 0 0 0 0.16,0.55a1.6,1.6 0 0 0 0.53,0.43a12,12 0 0 0 1.41,0.6a5.17,5.17 0 0 1 1.93,1a1.88,1.88 0 0 1 0.5,1.36z" id="svg_179"/>
  <path class="cls-21" d="m320,115.44a3.42,3.42 0 0 1 -2.7,-1.07a4.44,4.44 0 0 1 -0.95,-3a4.56,4.56 0 0 1 1,-3.12a3.51,3.51 0 0 1 2.77,-1.1a5.63,5.63 0 0 1 1.15,0.13a3.75,3.75 0 0 1 0.91,0.29l-0.37,1a6.54,6.54 0 0 0 -0.88,-0.26a4,4 0 0 0 -0.84,-0.11c-1.64,0 -2.45,1 -2.45,3.12a3.7,3.7 0 0 0 0.6,2.27a2,2 0 0 0 1.76,0.79a5.36,5.36 0 0 0 2.06,-0.43l0,1.05a4.34,4.34 0 0 1 -2.06,0.44z" id="svg_180"/>
  <path class="cls-21" d="m329,115.3l-0.24,-1.14l-0.06,0a3.47,3.47 0 0 1 -1.19,1a3.65,3.65 0 0 1 -1.49,0.26a2.71,2.71 0 0 1 -1.88,-0.61a2.24,2.24 0 0 1 -0.67,-1.75c0,-1.62 1.29,-2.47 3.89,-2.55l1.36,0l0,-0.51a2.05,2.05 0 0 0 -0.41,-1.4a1.67,1.67 0 0 0 -1.3,-0.45a5.33,5.33 0 0 0 -2.27,0.62l-0.37,-0.93a5.34,5.34 0 0 1 1.3,-0.51a5.68,5.68 0 0 1 1.41,-0.18a3,3 0 0 1 2.13,0.64a2.65,2.65 0 0 1 0.7,2l0,5.51l-0.91,0zm-2.74,-0.86a2.49,2.49 0 0 0 1.78,-0.62a2.32,2.32 0 0 0 0.65,-1.74l0,-0.73l-1.22,0a4.6,4.6 0 0 0 -2.09,0.45a1.38,1.38 0 0 0 -0.64,1.24a1.25,1.25 0 0 0 0.4,1a1.67,1.67 0 0 0 1.16,0.4l-0.04,0z" id="svg_181"/>
  <path class="cls-21" d="m337.85,115.3l0,-5.2a2.08,2.08 0 0 0 -0.45,-1.46a1.83,1.83 0 0 0 -1.4,-0.48a2.27,2.27 0 0 0 -1.84,0.68a3.43,3.43 0 0 0 -0.59,2.25l0,4.21l-1.21,0l0,-8l1,0l0.2,1.1l0.06,0a2.48,2.48 0 0 1 1,-0.92a3.37,3.37 0 0 1 1.5,-0.33a3.07,3.07 0 0 1 2.18,0.7a3,3 0 0 1 0.74,2.24l0,5.21l-1.19,0z" id="svg_182"/>
  <path class="cls-21" d="m350.4,115.3l-0.24,-1.14l-0.06,0a3.4,3.4 0 0 1 -1.2,1a3.65,3.65 0 0 1 -1.49,0.26a2.67,2.67 0 0 1 -1.87,-0.61a2.21,2.21 0 0 1 -0.68,-1.75q0,-2.43 3.89,-2.55l1.36,0l0,-0.51a2,2 0 0 0 -0.41,-1.4a1.67,1.67 0 0 0 -1.3,-0.45a5.36,5.36 0 0 0 -2.27,0.62l-0.37,-0.93a5.5,5.5 0 0 1 1.3,-0.51a5.7,5.7 0 0 1 1.42,-0.18a3.07,3.07 0 0 1 2.13,0.64a2.65,2.65 0 0 1 0.69,2l0,5.51l-0.9,0zm-2.75,-0.86a2.47,2.47 0 0 0 1.78,-0.62a2.29,2.29 0 0 0 0.65,-1.74l0,-0.73l-1.21,0a4.62,4.62 0 0 0 -2.1,0.45a1.38,1.38 0 0 0 -0.64,1.24a1.29,1.29 0 0 0 0.4,1a1.67,1.67 0 0 0 1.12,0.4z" id="svg_183"/>
  <path class="cls-21" d="m357,115.44a3.42,3.42 0 0 1 -2.7,-1.07a4.39,4.39 0 0 1 -1,-3a4.61,4.61 0 0 1 1,-3.12a3.51,3.51 0 0 1 2.77,-1.1a5.73,5.73 0 0 1 1.16,0.13a3.65,3.65 0 0 1 0.9,0.29l-0.37,1a6.54,6.54 0 0 0 -0.88,-0.26a4,4 0 0 0 -0.84,-0.11c-1.63,0 -2.45,1 -2.45,3.12a3.7,3.7 0 0 0 0.6,2.27a2.08,2.08 0 0 0 1.77,0.79a5.4,5.4 0 0 0 2.04,-0.38l0,1a4.4,4.4 0 0 1 -2,0.44z" id="svg_184"/>
  <path class="cls-21" d="m363.92,115.44a3.42,3.42 0 0 1 -2.7,-1.07a4.44,4.44 0 0 1 -1,-3a4.56,4.56 0 0 1 1,-3.12a3.49,3.49 0 0 1 2.76,-1.1a5.73,5.73 0 0 1 1.16,0.13a3.91,3.91 0 0 1 0.91,0.29l-0.38,1a6.38,6.38 0 0 0 -0.87,-0.26a4,4 0 0 0 -0.85,-0.11c-1.63,0 -2.44,1 -2.44,3.12a3.77,3.77 0 0 0 0.59,2.27a2.08,2.08 0 0 0 1.77,0.79a5.36,5.36 0 0 0 2.13,-0.38l0,1a4.37,4.37 0 0 1 -2.08,0.44z" id="svg_185"/>
  <path class="cls-21" d="m371.05,115.44a3.7,3.7 0 0 1 -2.81,-1.08a4.17,4.17 0 0 1 -1,-3a4.63,4.63 0 0 1 1,-3.08a3.17,3.17 0 0 1 2.56,-1.15a3,3 0 0 1 2.39,1a3.78,3.78 0 0 1 0.88,2.62l0,0.76l-5.53,0a3.17,3.17 0 0 0 0.71,2.15a2.48,2.48 0 0 0 1.91,0.73a6.52,6.52 0 0 0 2.57,-0.54l0,1.09a6.83,6.83 0 0 1 -1.22,0.39a7,7 0 0 1 -1.46,0.11zm-0.33,-7.3a2,2 0 0 0 -1.54,0.63a2.87,2.87 0 0 0 -0.68,1.74l4.2,0a2.64,2.64 0 0 0 -0.52,-1.76a1.82,1.82 0 0 0 -1.46,-0.61z" id="svg_186"/>
  <path class="cls-21" d="m381.25,113.11a2,2 0 0 1 -0.83,1.73a4,4 0 0 1 -2.35,0.6a5.09,5.09 0 0 1 -2.49,-0.5l0,-1.13a5.75,5.75 0 0 0 1.24,0.46a4.9,4.9 0 0 0 1.28,0.17a3,3 0 0 0 1.47,-0.3a1,1 0 0 0 0.1,-1.73a6.39,6.39 0 0 0 -1.58,-0.79a8.71,8.71 0 0 1 -1.6,-0.73a2.33,2.33 0 0 1 -0.7,-0.7a1.91,1.91 0 0 1 -0.23,-0.95a1.82,1.82 0 0 1 0.8,-1.55a3.7,3.7 0 0 1 2.19,-0.57a6.41,6.41 0 0 1 2.53,0.53l-0.43,1a5.86,5.86 0 0 0 -2.19,-0.5a2.5,2.5 0 0 0 -1.3,0.27a0.83,0.83 0 0 0 -0.44,0.75a0.9,0.9 0 0 0 0.16,0.55a1.6,1.6 0 0 0 0.53,0.43a12,12 0 0 0 1.41,0.6a5.17,5.17 0 0 1 1.93,1a1.88,1.88 0 0 1 0.5,1.36z" id="svg_187"/>
  <path class="cls-21" d="m388.47,113.11a2,2 0 0 1 -0.84,1.73a4,4 0 0 1 -2.34,0.6a5,5 0 0 1 -2.49,-0.5l0,-1.13a5.56,5.56 0 0 0 1.24,0.46a4.85,4.85 0 0 0 1.28,0.17a2.92,2.92 0 0 0 1.46,-0.3a1,1 0 0 0 0.51,-0.93a1,1 0 0 0 -0.4,-0.8a6.32,6.32 0 0 0 -1.59,-0.79a8.55,8.55 0 0 1 -1.59,-0.73a2.12,2.12 0 0 1 -0.7,-0.7a2,2 0 0 1 0.56,-2.5a3.74,3.74 0 0 1 2.19,-0.57a6.46,6.46 0 0 1 2.54,0.53l-0.43,1a5.9,5.9 0 0 0 -2.19,-0.5a2.56,2.56 0 0 0 -1.31,0.27a0.85,0.85 0 0 0 -0.44,0.75a0.9,0.9 0 0 0 0.17,0.55a1.5,1.5 0 0 0 0.53,0.43a11,11 0 0 0 1.4,0.6a5.09,5.09 0 0 1 1.93,1a1.84,1.84 0 0 1 0.51,1.36z" id="svg_188"/>
  <path class="cls-21" d="m396.93,114.44a3.22,3.22 0 0 0 0.63,0a2.66,2.66 0 0 0 0.47,-0.1l0,0.93a1.87,1.87 0 0 1 -0.58,0.16a4.6,4.6 0 0 1 -0.69,0.06c-1.55,0 -2.33,-0.81 -2.33,-2.45l0,-4.82l-1.15,0l0,-0.59l1.15,-0.51l0.51,-1.71l0.7,0l0,1.86l2.36,0l0,0.95l-2.33,0l0,4.72a1.62,1.62 0 0 0 0.35,1.11a1.19,1.19 0 0 0 0.91,0.39z" id="svg_189"/>
  <path class="cls-21" d="m405.16,115.3l0,-5.2a2.12,2.12 0 0 0 -0.44,-1.46a1.84,1.84 0 0 0 -1.4,-0.48a2.29,2.29 0 0 0 -1.85,0.69a3.47,3.47 0 0 0 -0.58,2.25l0,4.2l-1.22,0l0,-11.4l1.22,0l0,3.45a7.22,7.22 0 0 1 -0.06,1l0.07,0a2.51,2.51 0 0 1 1,-0.91a3.35,3.35 0 0 1 1.51,-0.33a3.07,3.07 0 0 1 2.21,0.7a3,3 0 0 1 0.74,2.22l0,5.27l-1.2,0z" id="svg_190"/>
  <path class="cls-21" d="m412.21,115.44a3.71,3.71 0 0 1 -2.81,-1.08a4.21,4.21 0 0 1 -1,-3a4.63,4.63 0 0 1 1,-3.08a3.19,3.19 0 0 1 2.57,-1.15a3,3 0 0 1 2.38,1a3.78,3.78 0 0 1 0.88,2.62l0,0.76l-5.53,0a3.22,3.22 0 0 0 0.72,2.15a2.47,2.47 0 0 0 1.91,0.73a6.5,6.5 0 0 0 2.56,-0.54l0,1.09a6.83,6.83 0 0 1 -1.22,0.39a6.91,6.91 0 0 1 -1.46,0.11zm-0.33,-7.3a2,2 0 0 0 -1.54,0.63a2.93,2.93 0 0 0 -0.68,1.74l4.2,0a2.7,2.7 0 0 0 -0.51,-1.76a1.84,1.84 0 0 0 -1.47,-0.61z" id="svg_191"/>
  <path class="cls-21" d="m426.63,115.3l0,-5.2a2.08,2.08 0 0 0 -0.45,-1.46a1.83,1.83 0 0 0 -1.4,-0.48a2.31,2.31 0 0 0 -1.85,0.68a3.43,3.43 0 0 0 -0.58,2.25l0,4.21l-1.22,0l0,-8l1,0l0.2,1.1l0.06,0a2.48,2.48 0 0 1 1.05,-0.92a3.34,3.34 0 0 1 1.5,-0.33a3.09,3.09 0 0 1 2.18,0.7a3,3 0 0 1 0.73,2.24l0,5.21l-1.22,0z" id="svg_192"/>
  <path class="cls-21" d="m433.67,115.44a3.71,3.71 0 0 1 -2.81,-1.08a4.21,4.21 0 0 1 -1,-3a4.63,4.63 0 0 1 1,-3.08a3.19,3.19 0 0 1 2.57,-1.15a3.06,3.06 0 0 1 2.39,1a3.82,3.82 0 0 1 0.87,2.62l0,0.76l-5.53,0a3.22,3.22 0 0 0 0.72,2.15a2.47,2.47 0 0 0 1.91,0.73a6.47,6.47 0 0 0 2.56,-0.54l0,1.09a6,6 0 0 1 -2.61,0.51l-0.07,-0.01zm-0.33,-7.3a2,2 0 0 0 -1.54,0.63a2.93,2.93 0 0 0 -0.68,1.74l4.2,0a2.7,2.7 0 0 0 -0.51,-1.76a1.83,1.83 0 0 0 -1.47,-0.61z" id="svg_193"/>
  <path class="cls-21" d="m441.29,114.44a3.12,3.12 0 0 0 0.62,0a3,3 0 0 0 0.48,-0.1l0,0.93a2,2 0 0 1 -0.58,0.16a4.6,4.6 0 0 1 -0.69,0.06c-1.56,0 -2.33,-0.81 -2.33,-2.45l0,-4.82l-1.15,0l0,-0.59l1.15,-0.51l0.51,-1.71l0.7,0l0,1.86l2.33,0l0,0.95l-2.33,0l0,4.72a1.62,1.62 0 0 0 0.35,1.11a1.19,1.19 0 0 0 0.94,0.39z" id="svg_194"/>
  <path class="cls-21" d="m451.11,115.3l-1.47,-4.71c-0.09,-0.29 -0.27,-0.94 -0.52,-2l-0.06,0c-0.2,0.85 -0.37,1.51 -0.51,2l-1.55,4.71l-1.41,0l-2.19,-8l1.28,0c0.52,2 0.91,3.55 1.18,4.61a19.11,19.11 0 0 1 0.47,2.13l0.06,0c0.05,-0.28 0.14,-0.64 0.26,-1.08s0.22,-0.79 0.31,-1l1.47,-4.61l1.32,0l1.43,4.61a15,15 0 0 1 0.56,2.11l0.06,0a7.33,7.33 0 0 1 0.16,-0.81q0.12,-0.54 1.52,-5.91l1.26,0l-2.22,8l-1.41,-0.05z" id="svg_195"/>
  <path class="cls-21" d="m463.09,111.28a4.4,4.4 0 0 1 -1,3.06a3.46,3.46 0 0 1 -2.73,1.1a3.58,3.58 0 0 1 -1.91,-0.5a3.32,3.32 0 0 1 -1.29,-1.45a5.1,5.1 0 0 1 -0.46,-2.21a4.4,4.4 0 0 1 1,-3.06a3.46,3.46 0 0 1 2.72,-1.1a3.4,3.4 0 0 1 2.68,1.13a4.39,4.39 0 0 1 0.99,3.03zm-6.12,0a3.81,3.81 0 0 0 0.62,2.34a2.43,2.43 0 0 0 3.62,0a3.77,3.77 0 0 0 0.62,-2.34a3.76,3.76 0 0 0 -0.62,-2.33a2.49,2.49 0 0 0 -3.63,0a3.8,3.8 0 0 0 -0.58,2.33l-0.03,0z" id="svg_196"/>
  <path class="cls-21" d="m468.81,107.12a4.61,4.61 0 0 1 1,0.09l-0.17,1.13a4.31,4.31 0 0 0 -0.88,-0.11a2.12,2.12 0 0 0 -1.66,0.79a2.9,2.9 0 0 0 -0.69,2l0,4.28l-1.22,0l0,-8l1,0l0.14,1.49l0.06,0a3.56,3.56 0 0 1 1.08,-1.21a2.45,2.45 0 0 1 1.34,-0.46z" id="svg_197"/>
  <path class="cls-21" d="m472.56,111.19a13.41,13.41 0 0 1 1,-1.17l2.59,-2.75l1.45,0l-3.26,3.42l3.48,4.61l-1.47,0l-2.83,-3.8l-0.92,0.8l0,3l-1.2,0l0,-11.4l1.2,0l0,6c0,0.27 0,0.69 -0.06,1.25l0.02,0.04z" id="svg_198"/>
  <path class="cls-21" d="m488.31,113.11a2,2 0 0 1 -0.84,1.73a4,4 0 0 1 -2.34,0.6a5,5 0 0 1 -2.49,-0.5l0,-1.13a5.56,5.56 0 0 0 1.24,0.46a4.85,4.85 0 0 0 1.28,0.17a2.92,2.92 0 0 0 1.46,-0.3a1,1 0 0 0 0.51,-0.93a1,1 0 0 0 -0.4,-0.8a6.32,6.32 0 0 0 -1.59,-0.79a8.88,8.88 0 0 1 -1.59,-0.73a2.22,2.22 0 0 1 -0.7,-0.7a2,2 0 0 1 0.56,-2.5a3.74,3.74 0 0 1 2.19,-0.57a6.46,6.46 0 0 1 2.54,0.53l-0.43,1a5.9,5.9 0 0 0 -2.19,-0.5a2.56,2.56 0 0 0 -1.31,0.27a0.85,0.85 0 0 0 -0.44,0.75a0.9,0.9 0 0 0 0.17,0.55a1.5,1.5 0 0 0 0.53,0.43a10.65,10.65 0 0 0 1.41,0.6a5.25,5.25 0 0 1 1.93,1a1.88,1.88 0 0 1 0.5,1.36z" id="svg_199"/>
  <path class="cls-21" d="m493.68,115.44a3.68,3.68 0 0 1 -2.81,-1.08a4.17,4.17 0 0 1 -1,-3a4.69,4.69 0 0 1 1,-3.08a3.2,3.2 0 0 1 2.57,-1.15a3,3 0 0 1 2.39,1a3.82,3.82 0 0 1 0.88,2.62l0,0.76l-5.61,0a3.17,3.17 0 0 0 0.71,2.15a2.47,2.47 0 0 0 1.91,0.73a6.47,6.47 0 0 0 2.56,-0.54l0,1.09a6.59,6.59 0 0 1 -1.22,0.39a6.81,6.81 0 0 1 -1.38,0.11zm-0.33,-7.3a2,2 0 0 0 -1.55,0.63a2.93,2.93 0 0 0 -0.67,1.74l4.19,0a2.7,2.7 0 0 0 -0.51,-1.76a1.82,1.82 0 0 0 -1.46,-0.61z" id="svg_200"/>
  <path class="cls-21" d="m502.3,107.12a4.75,4.75 0 0 1 1,0.09l-0.17,1.13a4.39,4.39 0 0 0 -0.88,-0.11a2.13,2.13 0 0 0 -1.67,0.79a2.9,2.9 0 0 0 -0.69,2l0,4.28l-1.22,0l0,-8l1,0l0.14,1.49l0.06,0a3.43,3.43 0 0 1 1.07,-1.21a2.45,2.45 0 0 1 1.36,-0.46z" id="svg_201"/>
  <path class="cls-21" d="m507.24,115.3l-3,-8l1.3,0l1.69,4.7c0.39,1.11 0.62,1.84 0.69,2.17l0.08,0a15.6,15.6 0 0 1 0.5,-1.61q0.43,-1.22 1.93,-5.32l1.3,0l-3,8l-1.49,0.06z" id="svg_202"/>
  <path class="cls-21" d="m513.08,105.1a0.82,0.82 0 0 1 0.21,-0.62a0.72,0.72 0 0 1 0.51,-0.19a0.73,0.73 0 0 1 0.51,0.2a0.79,0.79 0 0 1 0.21,0.61a0.82,0.82 0 0 1 -0.21,0.61a0.75,0.75 0 0 1 -1,0a0.82,0.82 0 0 1 -0.23,-0.61zm1.32,10.2l-1.21,0l0,-8l1.21,0l0,8z" id="svg_203"/>
  <path class="cls-21" d="m520.1,115.44a3.39,3.39 0 0 1 -2.7,-1.07a4.39,4.39 0 0 1 -1,-3a4.56,4.56 0 0 1 1,-3.12a3.51,3.51 0 0 1 2.77,-1.1a5.63,5.63 0 0 1 1.15,0.13a3.75,3.75 0 0 1 0.91,0.29l-0.37,1a6.54,6.54 0 0 0 -0.88,-0.26a4,4 0 0 0 -0.84,-0.11c-1.63,0 -2.45,1 -2.45,3.12a3.7,3.7 0 0 0 0.6,2.27a2.08,2.08 0 0 0 1.77,0.79a5.31,5.31 0 0 0 2,-0.43l0,1.05a4.33,4.33 0 0 1 -1.96,0.44z" id="svg_204"/>
  <path class="cls-21" d="m527.22,115.44a3.71,3.71 0 0 1 -2.81,-1.08a4.21,4.21 0 0 1 -1,-3a4.63,4.63 0 0 1 1,-3.08a3.19,3.19 0 0 1 2.57,-1.15a3,3 0 0 1 2.38,1a3.78,3.78 0 0 1 0.88,2.62l0,0.76l-5.53,0a3.22,3.22 0 0 0 0.72,2.15a2.47,2.47 0 0 0 1.91,0.73a6.5,6.5 0 0 0 2.56,-0.54l0,1.09a6.83,6.83 0 0 1 -1.22,0.39a6.91,6.91 0 0 1 -1.46,0.11zm-0.33,-7.3a2,2 0 0 0 -1.54,0.63a2.93,2.93 0 0 0 -0.68,1.74l4.2,0a2.7,2.7 0 0 0 -0.51,-1.76a1.84,1.84 0 0 0 -1.47,-0.61z" id="svg_205"/>
  <path class="cls-21" d="m537.42,113.11a2,2 0 0 1 -0.83,1.73a4,4 0 0 1 -2.34,0.6a5,5 0 0 1 -2.49,-0.5l0,-1.13a5.38,5.38 0 0 0 1.24,0.46a4.85,4.85 0 0 0 1.28,0.17a2.92,2.92 0 0 0 1.46,-0.3a1,1 0 0 0 0.51,-0.93a1,1 0 0 0 -0.4,-0.8a6.32,6.32 0 0 0 -1.59,-0.79a8.24,8.24 0 0 1 -1.59,-0.73a2.26,2.26 0 0 1 -0.71,-0.7a1.91,1.91 0 0 1 -0.23,-0.95a1.82,1.82 0 0 1 0.8,-1.55a3.7,3.7 0 0 1 2.19,-0.57a6.46,6.46 0 0 1 2.54,0.53l-0.44,1a5.82,5.82 0 0 0 -2.19,-0.5a2.52,2.52 0 0 0 -1.3,0.27a0.85,0.85 0 0 0 -0.44,0.75a0.9,0.9 0 0 0 0.17,0.55a1.5,1.5 0 0 0 0.53,0.43a11,11 0 0 0 1.4,0.6a5.09,5.09 0 0 1 1.93,1a1.83,1.83 0 0 1 0.5,1.36z" id="svg_206"/>
  <line class="cls-22" id="svg_464" x1="210.28" x2="222.2" y1="101.94" y2="101.94"/>
 </g>
</svg>