<?xml version="1.0"?>
<svg width="588" height="200" xmlns="http://www.w3.org/2000/svg" xmlns:svg="http://www.w3.org/2000/svg" xmlns:se="http://svg-edit.googlecode.com" data-name="Layer 1">
 <defs>
  <style>.cls-1,.cls-18,.cls-19{fill:#78b9db;}.cls-1,.cls-11,.cls-12,.cls-13,.cls-14,.cls-17,.cls-18,.cls-2,.cls-3,.cls-5,.cls-6,.cls-8,.cls-9{stroke:#fff;}.cls-1,.cls-22{stroke-linecap:round;stroke-linejoin:round;}.cls-2{fill:#77c3e2;}.cls-11,.cls-12,.cls-13,.cls-14,.cls-17,.cls-18,.cls-2,.cls-3,.cls-5,.cls-6,.cls-8,.cls-9{stroke-miterlimit:10;}.cls-3,.cls-4{fill:#8176b5;}.cls-5{fill:#7ac5d8;}.cls-6,.cls-7{fill:#7f81bb;}.cls-8{fill:#7cc6ce;}.cls-10,.cls-9{fill:#7d8fc3;}.cls-11{fill:#7fc6c5;}.cls-12,.cls-16{fill:#7b9fcc;}.cls-13{fill:#80c8bb;}.cls-14,.cls-15{fill:#79afd5;}.cls-17{fill:#82c9b1;}.cls-20{fill:#fff;}.cls-21{fill:#4d4d4f;}.cls-22{fill:none;stroke:#4c4c4c;stroke-width:2px;}</style>
 </defs>
 <title>lc-svg-version.1</title>
 <g class="layer">
  <title>Layer 1</title>
  <rect class="cls-5" height="43.26" id="svg_6" width="159.03" x="47.14" y="74.47"/>
  <rect class="cls-6" height="43.26" id="svg_7" width="159.03" x="9.53" y="84.4"/>
  <polygon class="cls-7" id="svg_8" points="9.529998779296875,84.39999389648438 47.13999938964844,74.47000122070312 206.17001342773438,74.47000122070312 168.55999755859375,84.39999389648438 9.529998779296875,84.39999389648438 "/>
  <polygon class="cls-6" id="svg_9" points="168.55999755859375,127.66000366210938 206.17001342773438,117.739990234375 206.17001342773438,74.47000122070312 168.55999755859375,84.39999389648438 168.55999755859375,127.66000366210938 "/>
  <path class="cls-20" d="m191.17,107.05l-6.5,0l0,-1.83l2.34,-3.17c0.69,-0.94 1.14,-1.6 1.35,-2a4.49,4.49 0 0 0 0.46,-1a3.45,3.45 0 0 0 0.14,-1a1.7,1.7 0 0 0 -0.31,-1.12a1,1 0 0 0 -0.82,-0.36a1.91,1.91 0 0 0 -1.05,0.33a5.27,5.27 0 0 0 -1.06,0.95l-1.07,-1.7a7.5,7.5 0 0 1 1.14,-1.11a3.94,3.94 0 0 1 1,-0.5a4.09,4.09 0 0 1 1.2,-0.17a2.71,2.71 0 0 1 1.53,0.43a2.75,2.75 0 0 1 1,1.19a4,4 0 0 1 0.37,1.75a5.61,5.61 0 0 1 -0.23,1.62a7.18,7.18 0 0 1 -0.66,1.64a23.28,23.28 0 0 1 -1.67,2.25l-1.2,1.51l0,0.12l4,0l0.04,2.17z" id="svg_33"/>
  <path class="cls-20" d="m49,105.48a4.1,4.1 0 0 1 -1.17,3.14a4.75,4.75 0 0 1 -3.37,1.09l-2.41,0l0,-8.31l2.61,0a4.37,4.37 0 0 1 3.16,1.08a3.94,3.94 0 0 1 1.18,3zm-1.83,0q0,-2.67 -2.37,-2.67l-0.93,0l0,5.41l0.75,0c1.65,0.04 2.5,-0.88 2.5,-2.7l0.05,-0.04z" id="svg_106"/>
  <path class="cls-20" d="m55.75,109.71l-0.6,-2l-3,0l-0.6,2l-1.9,0l2.93,-8.34l2.16,0l2.94,8.34l-1.93,0zm-1,-3.45c-0.56,-1.8 -0.87,-2.81 -0.94,-3s-0.12,-0.42 -0.15,-0.56c-0.13,0.48 -0.48,1.68 -1.07,3.6l2.16,-0.04z" id="svg_107"/>
  <path class="cls-20" d="m61.9,109.71l-1.76,0l0,-6.84l-2.26,0l0,-1.47l6.28,0l0,1.47l-2.26,0l0,6.84z" id="svg_108"/>
  <path class="cls-20" d="m70.52,109.71l-0.6,-2l-3,0l-0.6,2l-1.9,0l2.93,-8.34l2.15,0l3,8.34l-1.98,0zm-1,-3.45c-0.56,-1.8 -0.87,-2.81 -0.94,-3s-0.12,-0.42 -0.15,-0.56q-0.19,0.72 -1.08,3.6l2.17,-0.04z" id="svg_109"/>
  <path class="cls-20" d="m73.46,109.71l0,-8.31l1.76,0l0,6.86l3.37,0l0,1.45l-5.13,0z" id="svg_110"/>
  <path class="cls-20" d="m80,109.71l0,-8.31l1.8,0l0,8.31l-1.8,0z" id="svg_111"/>
  <path class="cls-20" d="m91.25,109.71l-2.25,0l-3.62,-6.28l-0.05,0c0.07,1.11 0.11,1.9 0.11,2.37l0,3.91l-1.55,0l0,-8.31l2.22,0l3.6,6.22l0,0c0,-1.07 -0.08,-1.84 -0.08,-2.29l0,-3.93l1.58,0l0.04,8.31z" id="svg_112"/>
  <path class="cls-20" d="m100,109.71l-2,0l-2.18,-3.5l-0.74,0.53l0,3l-1.74,0l0,-8.34l1.77,0l0,3.8l0.69,-1l2.25,-2.83l2,0l-2.89,3.68l2.84,4.66z" id="svg_113"/>
  <path class="cls-20" d="m104.09,109.71l0,-8.31l1.77,0l0,6.86l3.36,0l0,1.45l-5.13,0z" id="svg_114"/>
  <path class="cls-20" d="m115.75,109.71l-0.6,-2l-3,0l-0.6,2l-1.9,0l2.93,-8.34l2.16,0l2.94,8.34l-1.93,0zm-1,-3.45c-0.56,-1.8 -0.87,-2.81 -0.94,-3s-0.12,-0.42 -0.15,-0.56c-0.13,0.48 -0.48,1.68 -1.07,3.6l2.16,-0.04z" id="svg_115"/>
  <path class="cls-20" d="m121.28,104.82l1.72,-3.42l1.9,0l-2.76,5.08l0,3.23l-1.74,0l0,-3.18l-2.76,-5.13l1.91,0l1.73,3.42z" id="svg_116"/>
  <path class="cls-20" d="m130.74,109.71l-4.74,0l0,-8.31l4.78,0l0,1.45l-3,0l0,1.82l2.81,0l0,1.44l-2.81,0l0,2.15l3,0l-0.04,1.45z" id="svg_117"/>
  <path class="cls-20" d="m134.23,106.52l0,3.19l-1.76,0l0,-8.31l2.42,0a4.16,4.16 0 0 1 2.51,0.62a2.21,2.21 0 0 1 0.81,1.87a2.23,2.23 0 0 1 -0.4,1.31a2.71,2.71 0 0 1 -1.14,0.89c1.25,1.87 2.06,3.07 2.44,3.62l-2,0l-2,-3.19l-0.88,0zm0,-1.43l0.57,0a2.11,2.11 0 0 0 1.23,-0.28a1,1 0 0 0 0.4,-0.87a0.89,0.89 0 0 0 -0.4,-0.84a2.46,2.46 0 0 0 -1.26,-0.25l-0.54,0l0,2.24z" id="svg_118"/>
  <path class="cls-21" d="m240,100.22a5.38,5.38 0 0 1 -1.44,4a5.68,5.68 0 0 1 -4.14,1.41l-3,0l0,-10.63l3.28,0a5.26,5.26 0 0 1 3.88,1.38a5.2,5.2 0 0 1 1.42,3.84zm-1.32,0a4.29,4.29 0 0 0 -1,-3.15a4.22,4.22 0 0 0 -3.13,-1.07l-1.81,0l0,8.56l1.52,0a4.63,4.63 0 0 0 3.35,-1.1a4.36,4.36 0 0 0 1.02,-3.2l0.05,-0.04z" id="svg_431"/>
  <path class="cls-21" d="m245.52,105.82a3.68,3.68 0 0 1 -2.8,-1.08a4.2,4.2 0 0 1 -1,-3a4.71,4.71 0 0 1 0.95,-3.09a3.19,3.19 0 0 1 2.57,-1.14a3,3 0 0 1 2.39,1a3.86,3.86 0 0 1 0.88,2.62l0,0.77l-5.51,0a3.19,3.19 0 0 0 0.71,2.15a2.47,2.47 0 0 0 1.91,0.73a6.47,6.47 0 0 0 2.56,-0.54l0,1.08a6,6 0 0 1 -1.22,0.4a6.84,6.84 0 0 1 -1.44,0.1zm-0.32,-7.3a2,2 0 0 0 -1.55,0.63a2.86,2.86 0 0 0 -0.67,1.74l4.19,0a2.7,2.7 0 0 0 -0.51,-1.76a1.79,1.79 0 0 0 -1.46,-0.61z" id="svg_432"/>
  <path class="cls-21" d="m254.21,98.59l-2,0l0,7.09l-1.21,0l0,-7.09l-1.44,0l0,-0.59l1.44,-0.44l0,-0.44c0,-2 0.86,-3 2.59,-3a5.31,5.31 0 0 1 1.49,0.25l-0.32,1a4,4 0 0 0 -1.2,-0.23a1.13,1.13 0 0 0 -1,0.46a2.53,2.53 0 0 0 -0.33,1.47l0,0.52l2,0l-0.02,1zm1.36,-3.12a0.79,0.79 0 0 1 0.21,-0.61a0.69,0.69 0 0 1 0.51,-0.19a0.71,0.71 0 0 1 0.5,0.19a0.79,0.79 0 0 1 0.22,0.61a0.76,0.76 0 0 1 -0.22,0.61a0.69,0.69 0 0 1 -0.5,0.21a0.66,0.66 0 0 1 -0.51,-0.21a0.79,0.79 0 0 1 -0.21,-0.61zm1.32,10.21l-1.22,0l0,-8l1.22,0l0,8z" id="svg_433"/>
  <path class="cls-21" d="m264.87,105.68l0,-5.2a2.08,2.08 0 0 0 -0.45,-1.46a1.79,1.79 0 0 0 -1.4,-0.49a2.28,2.28 0 0 0 -1.84,0.69a3.42,3.42 0 0 0 -0.59,2.24l0,4.22l-1.22,0l0,-8l1,0l0.2,1.1l0.06,0a2.42,2.42 0 0 1 1.05,-0.92a3.37,3.37 0 0 1 1.5,-0.33a3,3 0 0 1 2.18,0.7a3,3 0 0 1 0.73,2.24l0,5.24l-1.22,-0.03z" id="svg_434"/>
  <path class="cls-21" d="m271.92,105.82a3.68,3.68 0 0 1 -2.81,-1.08a4.2,4.2 0 0 1 -1,-3a4.71,4.71 0 0 1 0.95,-3.09a3.19,3.19 0 0 1 2.57,-1.14a3,3 0 0 1 2.39,1a3.86,3.86 0 0 1 0.88,2.62l0,0.77l-5.53,0a3.19,3.19 0 0 0 0.71,2.15a2.47,2.47 0 0 0 1.91,0.73a6.47,6.47 0 0 0 2.56,-0.54l0,1.08a6,6 0 0 1 -1.22,0.4a6.81,6.81 0 0 1 -1.41,0.1zm-0.33,-7.3a2,2 0 0 0 -1.55,0.63a2.86,2.86 0 0 0 -0.67,1.74l4.19,0a2.7,2.7 0 0 0 -0.51,-1.76a1.79,1.79 0 0 0 -1.46,-0.61z" id="svg_435"/>
  <path class="cls-21" d="m282.12,103.49a2,2 0 0 1 -0.84,1.72a3.86,3.86 0 0 1 -2.34,0.61a5.18,5.18 0 0 1 -2.49,-0.5l0,-1.13a6.1,6.1 0 0 0 1.24,0.46a5.3,5.3 0 0 0 1.28,0.17a2.81,2.81 0 0 0 1.46,-0.31a1,1 0 0 0 0.52,-0.92a1,1 0 0 0 -0.41,-0.8a6,6 0 0 0 -1.54,-0.79a8.88,8.88 0 0 1 -1.59,-0.73a2.15,2.15 0 0 1 -0.7,-0.71a1.94,1.94 0 0 1 0.57,-2.49a3.7,3.7 0 0 1 2.19,-0.57a6.45,6.45 0 0 1 2.53,0.5l-0.43,1a5.9,5.9 0 0 0 -2.19,-0.5a2.56,2.56 0 0 0 -1.31,0.27a0.85,0.85 0 0 0 -0.44,0.75a0.92,0.92 0 0 0 0.17,0.55a1.73,1.73 0 0 0 0.53,0.43a11,11 0 0 0 1.41,0.59a5.39,5.39 0 0 1 1.93,1.05a1.86,1.86 0 0 1 0.45,1.35z" id="svg_436"/>
  <path class="cls-21" d="m290.59,104.82a4.21,4.21 0 0 0 0.62,-0.05a2.66,2.66 0 0 0 0.47,-0.1l0,0.93a1.87,1.87 0 0 1 -0.58,0.16a4.39,4.39 0 0 1 -0.69,0.06c-1.55,0 -2.33,-0.82 -2.33,-2.45l0,-4.78l-1.15,0l0,-0.59l1.15,-0.51l0.51,-1.71l0.71,0l0,1.86l2.33,0l0,0.94l-2.33,0l0,4.73a1.62,1.62 0 0 0 0.34,1.11a1.21,1.21 0 0 0 0.95,0.4z" id="svg_437"/>
  <path class="cls-21" d="m298.82,105.68l0,-5.2a2.08,2.08 0 0 0 -0.45,-1.46a1.81,1.81 0 0 0 -1.4,-0.49a2.29,2.29 0 0 0 -1.85,0.69a3.48,3.48 0 0 0 -0.58,2.26l0,4.2l-1.22,0l0,-11.4l1.22,0l0,3.45a7.32,7.32 0 0 1 -0.06,1l0.07,0a2.51,2.51 0 0 1 1,-0.91a3.4,3.4 0 0 1 1.52,-0.33a3.06,3.06 0 0 1 2.2,0.7a2.89,2.89 0 0 1 0.74,2.22l0,5.24l-1.19,0.03z" id="svg_438"/>
  <path class="cls-21" d="m305.86,105.82a3.71,3.71 0 0 1 -2.81,-1.08a4.24,4.24 0 0 1 -1,-3a4.66,4.66 0 0 1 1,-3.09a3.18,3.18 0 0 1 2.57,-1.14a3,3 0 0 1 2.39,1a3.86,3.86 0 0 1 0.88,2.62l0,0.77l-5.53,0a3.19,3.19 0 0 0 0.64,2.1a2.47,2.47 0 0 0 1.91,0.73a6.47,6.47 0 0 0 2.56,-0.54l0,1.08a6.18,6.18 0 0 1 -1.22,0.4a6.84,6.84 0 0 1 -1.39,0.15zm-0.33,-7.3a2,2 0 0 0 -1.54,0.63a2.93,2.93 0 0 0 -0.68,1.74l4.2,0a2.7,2.7 0 0 0 -0.51,-1.76a1.8,1.8 0 0 0 -1.47,-0.61z" id="svg_439"/>
  <path class="cls-21" d="m318.4,98.59l-2,0l0,7.09l-1.22,0l0,-7.09l-1.43,0l0,-0.59l1.43,-0.44l0,-0.44c0,-2 0.87,-3 2.59,-3a5.31,5.31 0 0 1 1.49,0.25l-0.31,1a4.09,4.09 0 0 0 -1.2,-0.23a1.16,1.16 0 0 0 -1,0.46a2.53,2.53 0 0 0 -0.33,1.47l0,0.52l2,0l-0.02,1z" id="svg_440"/>
  <path class="cls-21" d="m326.71,101.65a4.44,4.44 0 0 1 -1,3.07a3.5,3.5 0 0 1 -2.74,1.1a3.7,3.7 0 0 1 -1.91,-0.5a3.44,3.44 0 0 1 -1.29,-1.45a5.11,5.11 0 0 1 -0.45,-2.22a4.44,4.44 0 0 1 1,-3a3.47,3.47 0 0 1 2.73,-1.1a3.37,3.37 0 0 1 2.67,1.12a4.43,4.43 0 0 1 0.99,2.98zm-6.12,0a3.83,3.83 0 0 0 0.61,2.35a2.46,2.46 0 0 0 3.63,0a3.81,3.81 0 0 0 0.62,-2.35a3.73,3.73 0 0 0 -0.62,-2.32a2.2,2.2 0 0 0 -1.83,-0.8a2.14,2.14 0 0 0 -1.8,0.79a3.72,3.72 0 0 0 -0.61,2.33z" id="svg_441"/>
  <path class="cls-21" d="m332.42,97.5a4.61,4.61 0 0 1 1,0.09l-0.16,1.13a3.83,3.83 0 0 0 -0.88,-0.11a2.13,2.13 0 0 0 -1.67,0.79a2.89,2.89 0 0 0 -0.69,2l0,4.31l-1.22,0l0,-8l1,0l0.14,1.48l0,0a3.52,3.52 0 0 1 1.08,-1.2a2.37,2.37 0 0 1 1.4,-0.49z" id="svg_442"/>
  <path class="cls-21" d="m345.21,105.68l0,-5.23a2.13,2.13 0 0 0 -0.42,-1.44a1.57,1.57 0 0 0 -1.27,-0.48a2,2 0 0 0 -1.68,0.66a3.08,3.08 0 0 0 -0.54,2l0,4.49l-1.22,0l0,-5.23a2.13,2.13 0 0 0 -0.41,-1.44a1.59,1.59 0 0 0 -1.28,-0.48a2,2 0 0 0 -1.67,0.69a3.73,3.73 0 0 0 -0.53,2.24l0,4.22l-1.19,0l0,-8l1,0l0.2,1.1l0.06,0a2.39,2.39 0 0 1 1,-0.92a3,3 0 0 1 1.4,-0.33a2.38,2.38 0 0 1 2.46,1.36l0.06,0a2.55,2.55 0 0 1 1,-1a3.14,3.14 0 0 1 1.55,-0.37a2.7,2.7 0 0 1 2,0.7a3.14,3.14 0 0 1 0.68,2.24l0,5.24l-1.2,-0.02z" id="svg_443"/>
  <path class="cls-21" d="m353.75,105.68l-0.25,-1.15l-0.05,0a3.28,3.28 0 0 1 -1.2,1a3.64,3.64 0 0 1 -1.49,0.27a2.67,2.67 0 0 1 -1.87,-0.61a2.23,2.23 0 0 1 -0.68,-1.75c0,-1.62 1.29,-2.47 3.89,-2.55l1.36,-0.05l0,-0.5a2,2 0 0 0 -0.41,-1.39a1.67,1.67 0 0 0 -1.3,-0.45a5.3,5.3 0 0 0 -2.27,0.61l-0.37,-0.93a5.87,5.87 0 0 1 2.72,-0.68a3.07,3.07 0 0 1 2.12,0.63a2.65,2.65 0 0 1 0.7,2.05l0,5.48l-0.9,0.02zm-2.75,-0.86a2.49,2.49 0 0 0 1.78,-0.62a2.33,2.33 0 0 0 0.65,-1.75l0,-0.72l-1.22,0a4.35,4.35 0 0 0 -2.09,0.45a1.38,1.38 0 0 0 -0.64,1.24a1.27,1.27 0 0 0 0.4,1a1.67,1.67 0 0 0 1.12,0.4z" id="svg_444"/>
  <path class="cls-21" d="m359.73,104.82a4.21,4.21 0 0 0 0.62,-0.05a2.66,2.66 0 0 0 0.47,-0.1l0,0.93a1.87,1.87 0 0 1 -0.58,0.16a4.49,4.49 0 0 1 -0.69,0.06c-1.55,0 -2.33,-0.82 -2.33,-2.45l0,-4.78l-1.15,0l0,-0.59l1.15,-0.51l0.51,-1.71l0.71,0l0,1.86l2.33,0l0,0.94l-2.33,0l0,4.73a1.62,1.62 0 0 0 0.34,1.11a1.21,1.21 0 0 0 0.95,0.4z" id="svg_445"/>
  <path class="cls-21" d="m373.25,101.65a4.44,4.44 0 0 1 -1,3.07a3.48,3.48 0 0 1 -2.73,1.1a3.68,3.68 0 0 1 -1.91,-0.5a3.32,3.32 0 0 1 -1.29,-1.45a5.11,5.11 0 0 1 -0.45,-2.22a4.39,4.39 0 0 1 1,-3a3.46,3.46 0 0 1 2.72,-1.1a3.38,3.38 0 0 1 2.68,1.12a4.42,4.42 0 0 1 0.98,2.98zm-6.11,0a3.83,3.83 0 0 0 0.61,2.35a2.45,2.45 0 0 0 3.62,0a3.74,3.74 0 0 0 0.62,-2.35a3.67,3.67 0 0 0 -0.62,-2.32a2.17,2.17 0 0 0 -1.82,-0.8a2.14,2.14 0 0 0 -1.8,0.79a3.72,3.72 0 0 0 -0.61,2.33z" id="svg_446"/>
  <path class="cls-21" d="m378.87,98.59l-2,0l0,7.09l-1.22,0l0,-7.09l-1.43,0l0,-0.59l1.43,-0.44l0,-0.44c0,-2 0.86,-3 2.59,-3a5.31,5.31 0 0 1 1.49,0.25l-0.31,1a4.09,4.09 0 0 0 -1.2,-0.23a1.16,1.16 0 0 0 -1,0.46a2.53,2.53 0 0 0 -0.33,1.47l0,0.52l2,0l-0.02,1z" id="svg_447"/>
  <path class="cls-21" d="m389.7,104.6l-0.07,0a2.86,2.86 0 0 1 -2.52,1.22a3,3 0 0 1 -2.45,-1.07a5.84,5.84 0 0 1 0,-6.15a3.25,3.25 0 0 1 4.95,0.09l0.09,0l0,-0.58l0,-0.56l0,-3.27l1.22,0l0,11.4l-1,0l-0.22,-1.08zm-2.43,0.2a2.2,2.2 0 0 0 1.8,-0.67a3.47,3.47 0 0 0 0.56,-2.19l0,-0.26a4,4 0 0 0 -0.57,-2.43a2.13,2.13 0 0 0 -1.81,-0.73a1.88,1.88 0 0 0 -1.64,0.83a4.21,4.21 0 0 0 -0.56,2.35a3.93,3.93 0 0 0 0.56,2.32a1.92,1.92 0 0 0 1.66,0.78z" id="svg_448"/>
  <path class="cls-21" d="m398.2,105.68l-0.24,-1.15l-0.06,0a3.26,3.26 0 0 1 -1.19,1a3.66,3.66 0 0 1 -1.5,0.27a2.68,2.68 0 0 1 -1.87,-0.61a2.25,2.25 0 0 1 -0.67,-1.75c0,-1.62 1.29,-2.47 3.89,-2.55l1.36,-0.05l0,-0.5a2,2 0 0 0 -0.41,-1.39a1.67,1.67 0 0 0 -1.3,-0.45a5.3,5.3 0 0 0 -2.27,0.61l-0.37,-0.93a5.76,5.76 0 0 1 1.3,-0.5a5.68,5.68 0 0 1 1.41,-0.18a3.08,3.08 0 0 1 2.13,0.63a2.68,2.68 0 0 1 0.69,2.05l0,5.48l-0.9,0.02zm-2.74,-0.86a2.49,2.49 0 0 0 1.78,-0.62a2.33,2.33 0 0 0 0.65,-1.75l0,-0.72l-1.22,0a4.35,4.35 0 0 0 -2.09,0.45a1.36,1.36 0 0 0 -0.64,1.24a1.23,1.23 0 0 0 0.4,1a1.67,1.67 0 0 0 1.12,0.4z" id="svg_449"/>
  <path class="cls-21" d="m404.18,104.82a4.23,4.23 0 0 0 0.63,-0.05a2.66,2.66 0 0 0 0.47,-0.1l0,0.93a1.87,1.87 0 0 1 -0.58,0.16a4.6,4.6 0 0 1 -0.69,0.06c-1.55,0 -2.33,-0.82 -2.33,-2.45l0,-4.78l-1.15,0l0,-0.59l1.15,-0.51l0.51,-1.71l0.7,0l0,1.86l2.33,0l0,0.94l-2.33,0l0,4.73a1.62,1.62 0 0 0 0.35,1.11a1.19,1.19 0 0 0 0.94,0.4z" id="svg_450"/>
  <path class="cls-21" d="m412.07,105.68l-0.24,-1.15l-0.06,0a3.21,3.21 0 0 1 -1.2,1a3.61,3.61 0 0 1 -1.49,0.27a2.67,2.67 0 0 1 -1.87,-0.61a2.26,2.26 0 0 1 -0.68,-1.75q0,-2.43 3.89,-2.55l1.36,-0.05l0,-0.5a2,2 0 0 0 -0.4,-1.39a1.68,1.68 0 0 0 -1.3,-0.45a5.26,5.26 0 0 0 -2.27,0.61l-0.38,-0.93a5.94,5.94 0 0 1 1.3,-0.5a5.76,5.76 0 0 1 1.42,-0.18a3.08,3.08 0 0 1 2.13,0.63a2.68,2.68 0 0 1 0.69,2.05l0,5.48l-0.9,0.02zm-2.75,-0.86a2.51,2.51 0 0 0 1.79,-0.62a2.33,2.33 0 0 0 0.64,-1.75l0,-0.72l-1.21,0a4.29,4.29 0 0 0 -2.09,0.45a1.36,1.36 0 0 0 -0.64,1.24a1.23,1.23 0 0 0 0.4,1a1.62,1.62 0 0 0 1.11,0.4z" id="svg_451"/>
  <path class="cls-21" d="m426.3,101.65a4.44,4.44 0 0 1 -1,3.07a3.5,3.5 0 0 1 -2.73,1.1a3.65,3.65 0 0 1 -1.91,-0.5a3.32,3.32 0 0 1 -1.29,-1.45a5,5 0 0 1 -0.46,-2.22a4.39,4.39 0 0 1 1,-3a3.46,3.46 0 0 1 2.72,-1.1a3.41,3.41 0 0 1 2.68,1.12a4.42,4.42 0 0 1 0.99,2.98zm-6.12,0a3.83,3.83 0 0 0 0.62,2.35a2.45,2.45 0 0 0 3.62,0a3.81,3.81 0 0 0 0.62,-2.35a3.73,3.73 0 0 0 -0.62,-2.32a2.47,2.47 0 0 0 -3.63,0a3.79,3.79 0 0 0 -0.61,2.32z" id="svg_452"/>
  <path class="cls-21" d="m433.85,105.68l0,-5.2a2.08,2.08 0 0 0 -0.45,-1.46a1.78,1.78 0 0 0 -1.4,-0.49a2.29,2.29 0 0 0 -1.84,0.69a3.42,3.42 0 0 0 -0.59,2.24l0,4.22l-1.21,0l0,-8l1,0l0.19,1.1l0.06,0a2.42,2.42 0 0 1 1,-0.92a3.37,3.37 0 0 1 1.5,-0.33a3,3 0 0 1 2.18,0.7a3,3 0 0 1 0.74,2.24l0,5.24l-1.18,-0.03z" id="svg_453"/>
  <path class="cls-21" d="m444.05,104.82a4.23,4.23 0 0 0 0.63,-0.05a2.66,2.66 0 0 0 0.47,-0.1l0,0.93a1.87,1.87 0 0 1 -0.58,0.16a4.6,4.6 0 0 1 -0.69,0.06c-1.55,0 -2.33,-0.82 -2.33,-2.45l0,-4.78l-1.15,0l0,-0.59l1.15,-0.51l0.51,-1.71l0.7,0l0,1.86l2.33,0l0,0.94l-2.33,0l0,4.73a1.62,1.62 0 0 0 0.35,1.11a1.19,1.19 0 0 0 0.94,0.4z" id="svg_454"/>
  <path class="cls-21" d="m452.28,105.68l0,-5.2a2.12,2.12 0 0 0 -0.44,-1.46a1.81,1.81 0 0 0 -1.4,-0.49a2.29,2.29 0 0 0 -1.85,0.69a3.48,3.48 0 0 0 -0.58,2.26l0,4.2l-1.22,0l0,-11.4l1.21,0l0,3.45a7.32,7.32 0 0 1 -0.06,1l0.06,0a2.51,2.51 0 0 1 1,-0.91a3.35,3.35 0 0 1 1.51,-0.33a3.07,3.07 0 0 1 2.21,0.7a2.93,2.93 0 0 1 0.74,2.22l0,5.24l-1.18,0.03z" id="svg_455"/>
  <path class="cls-21" d="m459.33,105.82a3.71,3.71 0 0 1 -2.81,-1.08a4.24,4.24 0 0 1 -1,-3a4.66,4.66 0 0 1 1,-3.09a3.18,3.18 0 0 1 2.48,-1.15a3,3 0 0 1 2.38,1a3.81,3.81 0 0 1 0.88,2.62l0,0.77l-5.53,0a3.24,3.24 0 0 0 0.72,2.15a2.47,2.47 0 0 0 1.91,0.73a6.5,6.5 0 0 0 2.56,-0.54l0,1.08a6.18,6.18 0 0 1 -1.22,0.4a6.91,6.91 0 0 1 -1.37,0.11zm-0.33,-7.3a2,2 0 0 0 -1.54,0.63a2.93,2.93 0 0 0 -0.68,1.74l4.22,0a2.7,2.7 0 0 0 -0.51,-1.76a1.81,1.81 0 0 0 -1.49,-0.61z" id="svg_456"/>
  <path class="cls-21" d="m473.75,105.68l0,-5.2a2.08,2.08 0 0 0 -0.45,-1.46a1.79,1.79 0 0 0 -1.4,-0.49a2.31,2.31 0 0 0 -1.85,0.69a3.42,3.42 0 0 0 -0.58,2.24l0,4.22l-1.22,0l0,-8l1,0l0.2,1.1l0.06,0a2.42,2.42 0 0 1 1.05,-0.92a3.34,3.34 0 0 1 1.5,-0.33a3,3 0 0 1 2.18,0.7a3,3 0 0 1 0.73,2.24l0,5.24l-1.22,-0.03z" id="svg_457"/>
  <path class="cls-21" d="m480.79,105.82a3.71,3.71 0 0 1 -2.81,-1.08a4.24,4.24 0 0 1 -1,-3a4.66,4.66 0 0 1 1,-3.09a3.18,3.18 0 0 1 2.57,-1.14a3,3 0 0 1 2.39,1a3.86,3.86 0 0 1 0.88,2.62l0,0.77l-5.54,0a3.24,3.24 0 0 0 0.72,2.15a2.47,2.47 0 0 0 1.91,0.73a6.47,6.47 0 0 0 2.56,-0.54l0,1.08a6.18,6.18 0 0 1 -1.22,0.4a6.84,6.84 0 0 1 -1.46,0.1zm-0.33,-7.3a2,2 0 0 0 -1.54,0.63a2.93,2.93 0 0 0 -0.68,1.74l4.2,0a2.7,2.7 0 0 0 -0.51,-1.76a1.8,1.8 0 0 0 -1.47,-0.61z" id="svg_458"/>
  <path class="cls-21" d="m488.41,104.82a4.1,4.1 0 0 0 0.62,-0.05a3,3 0 0 0 0.48,-0.1l0,0.93a2,2 0 0 1 -0.58,0.16a4.6,4.6 0 0 1 -0.69,0.06c-1.56,0 -2.33,-0.82 -2.33,-2.45l0,-4.78l-1.15,0l0,-0.59l1.15,-0.51l0.51,-1.71l0.7,0l0,1.86l2.33,0l0,0.94l-2.33,0l0,4.73a1.62,1.62 0 0 0 0.35,1.11a1.19,1.19 0 0 0 0.94,0.4z" id="svg_459"/>
  <path class="cls-21" d="m498.23,105.68l-1.47,-4.68c-0.09,-0.29 -0.27,-1 -0.52,-2l-0.06,0q-0.3,1.29 -0.51,2l-1.52,4.7l-1.4,0l-2.2,-8l1.28,0c0.52,2 0.91,3.55 1.18,4.61a19.11,19.11 0 0 1 0.47,2.13l0.06,0c0,-0.28 0.14,-0.64 0.26,-1.08s0.22,-0.8 0.31,-1.05l1.47,-4.61l1.32,0l1.43,4.61a15,15 0 0 1 0.56,2.11l0.11,0a7.33,7.33 0 0 1 0.16,-0.81q0.12,-0.56 1.52,-5.91l1.26,0l-2.22,8l-1.49,-0.02z" id="svg_460"/>
  <path class="cls-21" d="m510.21,101.65a4.44,4.44 0 0 1 -1,3.07a3.5,3.5 0 0 1 -2.73,1.1a3.68,3.68 0 0 1 -1.91,-0.5a3.32,3.32 0 0 1 -1.29,-1.45a5.11,5.11 0 0 1 -0.46,-2.22a4.39,4.39 0 0 1 1,-3a3.46,3.46 0 0 1 2.72,-1.1a3.39,3.39 0 0 1 2.68,1.12a4.42,4.42 0 0 1 0.99,2.98zm-6.12,0a3.83,3.83 0 0 0 0.62,2.35a2.45,2.45 0 0 0 3.62,0a3.74,3.74 0 0 0 0.62,-2.35a3.67,3.67 0 0 0 -0.62,-2.32a2.47,2.47 0 0 0 -3.63,0a3.79,3.79 0 0 0 -0.61,2.32z" id="svg_461"/>
  <path class="cls-21" d="m515.93,97.5a4.61,4.61 0 0 1 1,0.09l-0.17,1.13a3.7,3.7 0 0 0 -0.88,-0.11a2.12,2.12 0 0 0 -1.66,0.79a2.89,2.89 0 0 0 -0.69,2l0,4.31l-1.22,0l0,-8l1,0l0.14,1.48l0.06,0a3.52,3.52 0 0 1 1.08,-1.2a2.37,2.37 0 0 1 1.34,-0.49z" id="svg_462"/>
  <path class="cls-21" d="m519.68,101.57a14.91,14.91 0 0 1 1,-1.18l2.59,-2.74l1.45,0l-3.26,3.42l3.48,4.61l-1.47,0l-2.83,-3.8l-0.92,0.79l0,3l-1.2,0l0,-11.4l1.2,0l0,6c0,0.27 0,0.69 -0.06,1.25l0.02,0.05z" id="svg_463"/>
  <line class="cls-22" id="svg_469" x1="212.28" x2="224.2" y1="100.46" y2="100.46"/>
 </g>
</svg>