<?xml version="1.0"?>
<svg width="588" height="200" xmlns="http://www.w3.org/2000/svg" xmlns:svg="http://www.w3.org/2000/svg" xmlns:se="http://svg-edit.googlecode.com" data-name="Layer 1">
 <defs>
  <style>.cls-1,.cls-18,.cls-19{fill:#78b9db;}.cls-1,.cls-11,.cls-12,.cls-13,.cls-14,.cls-17,.cls-18,.cls-2,.cls-3,.cls-5,.cls-6,.cls-8,.cls-9{stroke:#fff;}.cls-1,.cls-22{stroke-linecap:round;stroke-linejoin:round;}.cls-2{fill:#77c3e2;}.cls-11,.cls-12,.cls-13,.cls-14,.cls-17,.cls-18,.cls-2,.cls-3,.cls-5,.cls-6,.cls-8,.cls-9{stroke-miterlimit:10;}.cls-3,.cls-4{fill:#8176b5;}.cls-5{fill:#7ac5d8;}.cls-6,.cls-7{fill:#7f81bb;}.cls-8{fill:#7cc6ce;}.cls-10,.cls-9{fill:#7d8fc3;}.cls-11{fill:#7fc6c5;}.cls-12,.cls-16{fill:#7b9fcc;}.cls-13{fill:#80c8bb;}.cls-14,.cls-15{fill:#79afd5;}.cls-17{fill:#82c9b1;}.cls-20{fill:#fff;}.cls-21{fill:#4d4d4f;}.cls-22{fill:none;stroke:#4c4c4c;stroke-width:2px;}</style>
 </defs>
 <title>lc-svg-version.1</title>
 <g class="layer">
  <title>Layer 1</title>
  <rect class="cls-8" fill="black" height="43.26" id="svg_10" width="159.03" x="45.14" y="73.73"/>
  <rect class="cls-9" height="43.26" id="svg_11" width="159.03" x="7.53" y="83.65"/>
  <polygon class="cls-10" id="svg_12" points="7.529999732971191,83.64999389648438 45.13999938964844,73.72999572753906 204.1699981689453,73.72999572753906 166.55999755859375,83.64999389648438 7.529999732971191,83.64999389648438 "/>
  <polygon class="cls-9" fill="black" id="svg_13" points="166.55999755859375,126.91000366210938 204.1699981689453,116.989990234375 204.1699981689453,73.72999572753906 166.55999755859375,83.64999389648438 166.55999755859375,126.91000366210938 "/>
  <path class="cls-20" d="m188.81,96.63a3.62,3.62 0 0 1 -0.53,2a2.66,2.66 0 0 1 -1.48,1.12l0,0.05a2.61,2.61 0 0 1 1.7,0.92a3,3 0 0 1 0.58,2a3.85,3.85 0 0 1 -1,2.8a3.7,3.7 0 0 1 -2.78,1a5.25,5.25 0 0 1 -2.68,-0.67l0,-2.24a5.08,5.08 0 0 0 1.19,0.59a3.66,3.66 0 0 0 1.28,0.24a2,2 0 0 0 1.44,-0.45a1.88,1.88 0 0 0 0.46,-1.42a1.42,1.42 0 0 0 -0.53,-1.25a3.15,3.15 0 0 0 -1.71,-0.36l-0.7,0l0,-2l0.72,0a2.66,2.66 0 0 0 1.58,-0.38a1.54,1.54 0 0 0 0.5,-1.3c0,-0.94 -0.45,-1.42 -1.33,-1.42a2.31,2.31 0 0 0 -0.93,0.21a4.4,4.4 0 0 0 -1.05,0.71l-0.91,-1.82a4.22,4.22 0 0 1 3,-1.23a3.19,3.19 0 0 1 2.28,0.79a2.83,2.83 0 0 1 0.9,2.11z" id="svg_32"/>
  <path class="cls-20" d="m47.62,110.32l-2.24,0l-3.62,-6.32l0,0c0.08,1.11 0.11,1.9 0.11,2.37l0,3.91l-1.62,0l0,-8.28l2.22,0l3.61,6.22l0,0c-0.06,-1.08 -0.09,-1.84 -0.09,-2.29l0,-3.93l1.59,0l0.04,8.32z" id="svg_94"/>
  <path class="cls-20" d="m54.49,110.32l-4.78,0l0,-8.32l4.78,0l0,1.44l-3,0l0,1.82l2.81,0l0,1.45l-2.83,0l0,2.14l3,0l0.02,1.47z" id="svg_95"/>
  <path class="cls-20" d="m59.43,110.32l-1.76,0l0,-6.84l-2.26,0l0,-1.48l6.27,0l0,1.46l-2.25,0l0,6.86z" id="svg_96"/>
  <path class="cls-20" d="m71.05,110.32l-2,0l-1.13,-4.32c0,-0.15 -0.11,-0.48 -0.21,-1a9.55,9.55 0 0 1 -0.17,-1c0,0.2 -0.08,0.53 -0.18,1s-0.16,0.78 -0.21,1l-1.15,4.32l-2,0l-2.08,-8.32l1.73,0l1.06,4.53c0.19,0.84 0.32,1.56 0.4,2.18c0,-0.22 0.08,-0.55 0.16,-1s0.16,-0.8 0.23,-1.05l1.21,-4.66l1.67,0l1.21,4.65c0,0.21 0.12,0.53 0.2,1l0.18,1.1q0,-0.45 0.18,-1.11c0.08,-0.44 0.16,-0.8 0.23,-1.07l1.05,-4.57l1.74,0l-2.12,8.32z" id="svg_97"/>
  <path class="cls-20" d="m81.75,106.16a4.52,4.52 0 0 1 -1,3.17a4.44,4.44 0 0 1 -5.87,0a4.53,4.53 0 0 1 -1,-3.18a4.43,4.43 0 0 1 1,-3.17a3.82,3.82 0 0 1 2.94,-1.09a3.78,3.78 0 0 1 2.93,1.1a4.54,4.54 0 0 1 1,3.17zm-6.06,0a3.42,3.42 0 0 0 0.53,2.1a1.85,1.85 0 0 0 1.57,0.7c1.41,0 2.11,-0.93 2.11,-2.8s-0.7,-2.81 -2.09,-2.81a1.88,1.88 0 0 0 -1.59,0.71a3.49,3.49 0 0 0 -0.53,2.1z" id="svg_98"/>
  <path class="cls-20" d="m85.23,107.14l0,3.18l-1.76,0l0,-8.32l2.42,0a4.16,4.16 0 0 1 2.51,0.61a2.23,2.23 0 0 1 0.81,1.88a2.2,2.2 0 0 1 -0.4,1.3a2.61,2.61 0 0 1 -1.15,0.89q1.88,2.81 2.45,3.62l-2,0l-2,-3.18l-0.88,0.02zm0,-1.44l0.57,0a2.2,2.2 0 0 0 1.23,-0.27a1,1 0 0 0 0.4,-0.88a0.9,0.9 0 0 0 -0.41,-0.84a2.41,2.41 0 0 0 -1.25,-0.25l-0.54,0l0,2.24z" id="svg_99"/>
  <path class="cls-20" d="m97.83,110.32l-2,0l-2.17,-3.5l-0.75,0.54l0,3l-1.76,0l0,-8.36l1.76,0l0,3.8l0.7,-1l2.25,-2.8l2,0l-2.9,3.67l2.87,4.65z" id="svg_100"/>
  <path class="cls-20" d="m101.9,110.32l0,-8.32l1.76,0l0,6.85l3.34,0l0,1.45l-5.1,0.02z" id="svg_101"/>
  <path class="cls-20" d="m113.56,110.32l-0.6,-2l-3,0l-0.6,2l-1.9,0l2.93,-8.34l2.15,0l2.95,8.34l-1.93,0zm-1,-3.45c-0.56,-1.79 -0.87,-2.81 -0.94,-3s-0.12,-0.42 -0.15,-0.56q-0.2,0.74 -1.08,3.6l2.17,-0.04z" id="svg_102"/>
  <path class="cls-20" d="m119.09,105.44l1.73,-3.42l1.9,0l-2.72,5.07l0,3.23l-1.75,0l0,-3.17l-2.79,-5.15l1.91,0l1.72,3.44z" id="svg_103"/>
  <path class="cls-20" d="m128.55,110.32l-4.79,0l0,-8.32l4.79,0l0,1.44l-3,0l0,1.82l2.82,0l0,1.45l-2.82,0l0,2.14l3,0l0,1.47z" id="svg_104"/>
  <path class="cls-20" d="m132,107.14l0,3.18l-1.76,0l0,-8.32l2.42,0a4.18,4.18 0 0 1 2.51,0.61a2.45,2.45 0 0 1 0.4,3.18a2.58,2.58 0 0 1 -1.14,0.89q1.88,2.81 2.45,3.62l-2,0l-2,-3.18l-0.88,0.02zm0,-1.44l0.57,0a2.2,2.2 0 0 0 1.23,-0.27a1,1 0 0 0 0.4,-0.88a0.92,0.92 0 0 0 -0.41,-0.84a2.41,2.41 0 0 0 -1.25,-0.25l-0.54,0l0,2.24z" id="svg_105"/>
  <path class="cls-21" d="m238,99.47a5.38,5.38 0 0 1 -1.44,4a5.68,5.68 0 0 1 -4.14,1.41l-3,0l0,-10.66l3.28,0a4.81,4.81 0 0 1 5.27,5.25l0.03,0zm-1.32,0a4.31,4.31 0 0 0 -1,-3.15a4.22,4.22 0 0 0 -3.13,-1.06l-1.81,0l0,8.55l1.52,0a4.63,4.63 0 0 0 3.35,-1.09a4.37,4.37 0 0 0 1.02,-3.21l0.05,-0.04z" id="svg_392"/>
  <path class="cls-21" d="m243.52,105.07a3.68,3.68 0 0 1 -2.8,-1.08a4.18,4.18 0 0 1 -1,-3a4.69,4.69 0 0 1 0.95,-3.08a3.17,3.17 0 0 1 2.57,-1.15a3,3 0 0 1 2.39,1a3.81,3.81 0 0 1 0.88,2.61l0,0.77l-5.51,0a3.17,3.17 0 0 0 0.71,2.15a2.47,2.47 0 0 0 1.91,0.73a6.47,6.47 0 0 0 2.56,-0.54l0,1.08a6,6 0 0 1 -1.22,0.4a6.84,6.84 0 0 1 -1.44,0.11zm-0.32,-7.3a2,2 0 0 0 -1.55,0.63a2.86,2.86 0 0 0 -0.67,1.74l4.19,0a2.7,2.7 0 0 0 -0.51,-1.76a1.79,1.79 0 0 0 -1.46,-0.61z" id="svg_393"/>
  <path class="cls-21" d="m251.77,105.07a3.42,3.42 0 0 1 -2.7,-1.07a4.4,4.4 0 0 1 -1,-3a4.58,4.58 0 0 1 1,-3.11a3.51,3.51 0 0 1 2.77,-1.1a5.73,5.73 0 0 1 1.16,0.13a3.91,3.91 0 0 1 0.91,0.29l-0.38,1a6.54,6.54 0 0 0 -0.88,-0.26a4,4 0 0 0 -0.84,-0.11c-1.63,0 -2.45,1 -2.45,3.12a3.7,3.7 0 0 0 0.6,2.27a2.08,2.08 0 0 0 1.77,0.79a5.4,5.4 0 0 0 2.06,-0.43l0,1.08a4.53,4.53 0 0 1 -2.02,0.4z" id="svg_394"/>
  <path class="cls-21" d="m255.54,94.72a0.84,0.84 0 0 1 0.2,-0.61a0.72,0.72 0 0 1 0.51,-0.19a0.69,0.69 0 0 1 0.51,0.2a0.78,0.78 0 0 1 0.21,0.6a0.83,0.83 0 0 1 -0.21,0.62a0.75,0.75 0 0 1 -1,0a0.87,0.87 0 0 1 -0.22,-0.62zm1.32,10.21l-1.22,0l0,-8l1.22,0l0,8z" id="svg_395"/>
  <path class="cls-21" d="m264.8,103.85l-0.06,0a2.86,2.86 0 0 1 -2.52,1.22a3,3 0 0 1 -2.45,-1.07a4.72,4.72 0 0 1 -0.88,-3.07a4.79,4.79 0 0 1 0.88,-3.08a3,3 0 0 1 2.45,-1.1a2.91,2.91 0 0 1 2.5,1.19l0.1,0l-0.05,-0.58l0,-0.56l0,-3.27l1.23,0l0,11.4l-1,0l-0.2,-1.08zm-2.43,0.21a2.24,2.24 0 0 0 1.81,-0.68a3.45,3.45 0 0 0 0.56,-2.19l0,-0.26a4,4 0 0 0 -0.57,-2.43a2.14,2.14 0 0 0 -1.81,-0.73a1.87,1.87 0 0 0 -1.64,0.83a4.14,4.14 0 0 0 -0.57,2.35a3.91,3.91 0 0 0 0.57,2.32a1.9,1.9 0 0 0 1.65,0.79z" id="svg_396"/>
  <path class="cls-21" d="m271.84,105.07a3.68,3.68 0 0 1 -2.84,-1.07a4.18,4.18 0 0 1 -1,-3a4.69,4.69 0 0 1 0.95,-3.08a3.17,3.17 0 0 1 2.57,-1.15a3,3 0 0 1 2.39,1a3.81,3.81 0 0 1 0.88,2.61l0,0.77l-5.53,0a3.17,3.17 0 0 0 0.71,2.15a2.47,2.47 0 0 0 1.91,0.73a6.47,6.47 0 0 0 2.56,-0.54l0,1.08a6,6 0 0 1 -1.22,0.4a6.84,6.84 0 0 1 -1.38,0.1zm-0.33,-7.3a2,2 0 0 0 -1.54,0.63a2.93,2.93 0 0 0 -0.68,1.74l4.2,0a2.7,2.7 0 0 0 -0.51,-1.76a1.8,1.8 0 0 0 -1.47,-0.61z" id="svg_397"/>
  <path class="cls-21" d="m282.05,102.74a2,2 0 0 1 -0.84,1.73a4,4 0 0 1 -2.34,0.6a5,5 0 0 1 -2.49,-0.5l0,-1.13a5.56,5.56 0 0 0 1.24,0.46a5.3,5.3 0 0 0 1.28,0.17a2.92,2.92 0 0 0 1.46,-0.3a1,1 0 0 0 0.52,-0.93a1,1 0 0 0 -0.41,-0.8a6.32,6.32 0 0 0 -1.59,-0.79a8.88,8.88 0 0 1 -1.59,-0.73a2.15,2.15 0 0 1 -0.7,-0.71a1.75,1.75 0 0 1 -0.23,-0.94a1.81,1.81 0 0 1 0.79,-1.55a3.74,3.74 0 0 1 2.19,-0.57a6.46,6.46 0 0 1 2.54,0.53l-0.43,1a5.9,5.9 0 0 0 -2.19,-0.5a2.56,2.56 0 0 0 -1.26,0.22a0.85,0.85 0 0 0 -0.44,0.75a0.92,0.92 0 0 0 0.17,0.55a1.62,1.62 0 0 0 0.53,0.43a9.71,9.71 0 0 0 1.41,0.59a5.39,5.39 0 0 1 1.93,1.05a1.88,1.88 0 0 1 0.45,1.37z" id="svg_398"/>
  <path class="cls-21" d="m294.48,104.93l-1.48,-4.71c-0.09,-0.29 -0.26,-0.94 -0.52,-2l-0.05,0c-0.2,0.85 -0.37,1.51 -0.52,2l-1.51,4.7l-1.4,0l-2.19,-8l1.28,0c0.51,2 0.91,3.55 1.18,4.61a18.32,18.32 0 0 1 0.46,2.13l0.06,0c0.06,-0.28 0.14,-0.64 0.26,-1.08s0.23,-0.79 0.31,-1.05l1.48,-4.61l1.31,0l1.44,4.61a16.55,16.55 0 0 1 0.56,2.11l0.06,0a6.73,6.73 0 0 1 0.15,-0.81q0.13,-0.56 1.53,-5.91l1.26,0l-2.22,8l-1.45,0.01z" id="svg_399"/>
  <path class="cls-21" d="m305.2,104.93l0,-5.2a2.08,2.08 0 0 0 -0.45,-1.46a1.84,1.84 0 0 0 -1.4,-0.48a2.32,2.32 0 0 0 -1.85,0.68a3.5,3.5 0 0 0 -0.58,2.26l0,4.2l-1.22,0l0,-11.4l1.22,0l0,3.47a7.22,7.22 0 0 1 -0.06,1l0.07,0a2.51,2.51 0 0 1 1,-0.91a3.4,3.4 0 0 1 1.52,-0.33a3.06,3.06 0 0 1 2.2,0.7a2.9,2.9 0 0 1 0.74,2.22l0,5.24l-1.19,0.01z" id="svg_400"/>
  <path class="cls-21" d="m308.69,94.72a0.81,0.81 0 0 1 0.21,-0.61a0.72,0.72 0 0 1 0.51,-0.19a0.69,0.69 0 0 1 0.51,0.2a0.78,0.78 0 0 1 0.21,0.6a0.83,0.83 0 0 1 -0.21,0.62a0.75,0.75 0 0 1 -1,0a0.83,0.83 0 0 1 -0.23,-0.62zm1.31,10.21l-1.2,0l0,-8l1.2,0l0,8z" id="svg_401"/>
  <path class="cls-21" d="m315.7,105.07a3.42,3.42 0 0 1 -2.7,-1.07a4.45,4.45 0 0 1 -0.95,-3a4.53,4.53 0 0 1 1,-3.11a3.51,3.51 0 0 1 2.77,-1.1a5.63,5.63 0 0 1 1.15,0.13a3.75,3.75 0 0 1 0.91,0.29l-0.37,1a6.54,6.54 0 0 0 -0.88,-0.26a4,4 0 0 0 -0.84,-0.11c-1.64,0 -2.45,1 -2.45,3.12a3.7,3.7 0 0 0 0.6,2.27a2,2 0 0 0 1.76,0.79a5.36,5.36 0 0 0 2.06,-0.43l0,1.08a4.47,4.47 0 0 1 -2.06,0.4z" id="svg_402"/>
  <path class="cls-21" d="m325.07,104.93l0,-5.2a2.08,2.08 0 0 0 -0.45,-1.46a1.83,1.83 0 0 0 -1.4,-0.48a2.33,2.33 0 0 0 -1.85,0.68a3.56,3.56 0 0 0 -0.58,2.26l0,4.2l-1.21,0l0,-11.4l1.21,0l0,3.47a7.22,7.22 0 0 1 -0.06,1l0.08,0a2.45,2.45 0 0 1 1,-0.91a3.32,3.32 0 0 1 1.51,-0.33a3.09,3.09 0 0 1 2.21,0.7a2.94,2.94 0 0 1 0.73,2.22l0,5.24l-1.19,0.01z" id="svg_403"/>
  <path class="cls-21" d="m336.41,105.07a3.36,3.36 0 0 1 -1.43,-0.29a2.66,2.66 0 0 1 -1.09,-0.89l-0.08,0a10.56,10.56 0 0 1 0.08,1.34l0,3.3l-1.21,0l0,-11.63l1,0l0.17,1.1l0.05,0a2.81,2.81 0 0 1 1.1,-0.95a3.22,3.22 0 0 1 1.42,-0.3a3,3 0 0 1 2.47,1.1a5.78,5.78 0 0 1 0,6.13a3,3 0 0 1 -2.48,1.09zm-0.17,-7.28a2.14,2.14 0 0 0 -1.78,0.68a3.46,3.46 0 0 0 -0.57,2.17l0,0.27a4,4 0 0 0 0.57,2.42a2.16,2.16 0 0 0 1.81,0.73a1.9,1.9 0 0 0 1.63,-0.85a4,4 0 0 0 0.59,-2.32a3.85,3.85 0 0 0 -0.59,-2.3a1.94,1.94 0 0 0 -1.66,-0.8z" id="svg_404"/>
  <path class="cls-21" d="m347.3,104.93l0,-5.2a2.08,2.08 0 0 0 -0.45,-1.46a1.83,1.83 0 0 0 -1.4,-0.48a2.33,2.33 0 0 0 -1.85,0.68a3.56,3.56 0 0 0 -0.58,2.26l0,4.2l-1.21,0l0,-11.4l1.19,0l0,3.47a7.22,7.22 0 0 1 -0.06,1l0.06,0a2.51,2.51 0 0 1 1,-0.91a3.32,3.32 0 0 1 1.51,-0.33a3.09,3.09 0 0 1 2.21,0.7a2.94,2.94 0 0 1 0.74,2.22l0,5.24l-1.16,0.01z" id="svg_405"/>
  <path class="cls-21" d="m349.63,96.9l1.31,0l1.76,4.58a17.46,17.46 0 0 1 0.71,2.26l0.06,0c0.07,-0.25 0.2,-0.67 0.4,-1.28s0.87,-2.45 2,-5.56l1.3,0l-3.46,9.1a4.62,4.62 0 0 1 -1.19,1.92a2.55,2.55 0 0 1 -1.68,0.57a5,5 0 0 1 -1.1,-0.12l0,-1a4.16,4.16 0 0 0 0.9,0.09a1.85,1.85 0 0 0 1.78,-1.41l0.45,-1.14l-3.24,-8.01z" id="svg_406"/>
  <path class="cls-21" d="m363.84,102.74a2,2 0 0 1 -0.84,1.73a3.93,3.93 0 0 1 -2.34,0.6a5.09,5.09 0 0 1 -2.49,-0.5l0,-1.13a5.75,5.75 0 0 0 1.24,0.46a5.3,5.3 0 0 0 1.28,0.17a3,3 0 0 0 1.47,-0.3a1,1 0 0 0 0.1,-1.73a6.32,6.32 0 0 0 -1.59,-0.79a8.88,8.88 0 0 1 -1.59,-0.73a2.15,2.15 0 0 1 -0.7,-0.71a1.84,1.84 0 0 1 -0.23,-0.94a1.79,1.79 0 0 1 0.8,-1.55a3.7,3.7 0 0 1 2.19,-0.57a6.41,6.41 0 0 1 2.53,0.53l-0.43,1a5.9,5.9 0 0 0 -2.19,-0.5a2.5,2.5 0 0 0 -1.3,0.27a0.83,0.83 0 0 0 -0.44,0.75a0.92,0.92 0 0 0 0.16,0.55a1.73,1.73 0 0 0 0.53,0.43a10.25,10.25 0 0 0 1.41,0.59a5.39,5.39 0 0 1 1.93,1.05a1.88,1.88 0 0 1 0.5,1.32z" id="svg_407"/>
  <path class="cls-21" d="m365.57,94.72a0.81,0.81 0 0 1 0.21,-0.61a0.72,0.72 0 0 1 0.51,-0.19a0.69,0.69 0 0 1 0.51,0.2a0.78,0.78 0 0 1 0.21,0.6a0.83,0.83 0 0 1 -0.21,0.62a0.75,0.75 0 0 1 -1,0a0.83,0.83 0 0 1 -0.23,-0.62zm1.32,10.21l-1.21,0l0,-8l1.21,0l0,8z" id="svg_408"/>
  <path class="cls-21" d="m372.58,105.07a3.42,3.42 0 0 1 -2.7,-1.07a4.45,4.45 0 0 1 -0.95,-3a4.53,4.53 0 0 1 1,-3.11a3.51,3.51 0 0 1 2.77,-1.1a5.63,5.63 0 0 1 1.15,0.13a3.75,3.75 0 0 1 0.91,0.29l-0.37,1a7,7 0 0 0 -0.88,-0.26a4,4 0 0 0 -0.84,-0.11c-1.64,0 -2.45,1 -2.45,3.12a3.7,3.7 0 0 0 0.6,2.27a2,2 0 0 0 1.76,0.79a5.36,5.36 0 0 0 2.06,-0.43l0,1.08a4.47,4.47 0 0 1 -2.06,0.4z" id="svg_409"/>
  <path class="cls-21" d="m381.59,104.93l-0.24,-1.15l-0.06,0a3.32,3.32 0 0 1 -1.19,1a3.82,3.82 0 0 1 -1.49,0.26a2.67,2.67 0 0 1 -1.87,-0.61a2.21,2.21 0 0 1 -0.68,-1.75c0,-1.62 1.29,-2.47 3.89,-2.55l1.36,-0.05l0,-0.49a2.05,2.05 0 0 0 -0.41,-1.4a1.67,1.67 0 0 0 -1.3,-0.45a5.33,5.33 0 0 0 -2.27,0.62l-0.37,-0.93a5.34,5.34 0 0 1 1.3,-0.51a5.7,5.7 0 0 1 1.42,-0.18a3,3 0 0 1 2.12,0.64a2.65,2.65 0 0 1 0.7,2l0,5.48l-0.91,0.07zm-2.74,-0.86a2.49,2.49 0 0 0 1.78,-0.62a2.33,2.33 0 0 0 0.65,-1.75l0,-0.7l-1.22,0a4.47,4.47 0 0 0 -2.09,0.45a1.38,1.38 0 0 0 -0.64,1.24a1.25,1.25 0 0 0 0.4,1a1.67,1.67 0 0 0 1.12,0.38z" id="svg_410"/>
  <path class="cls-21" d="m386.12,104.93l-1.21,0l0,-11.4l1.21,0l0,11.4z" id="svg_411"/>
  <path class="cls-21" d="m396.33,105.07a3.36,3.36 0 0 1 -1.43,-0.29a2.66,2.66 0 0 1 -1.09,-0.89l-0.09,0a10.64,10.64 0 0 1 0.09,1.34l0,3.3l-1.21,0l0,-11.63l1,0l0.17,1.1l0.06,0a2.78,2.78 0 0 1 1.09,-0.95a3.27,3.27 0 0 1 1.43,-0.3a3,3 0 0 1 2.47,1.1a5.78,5.78 0 0 1 0,6.13a3,3 0 0 1 -2.49,1.09zm-0.17,-7.28a2.13,2.13 0 0 0 -1.78,0.68a3.46,3.46 0 0 0 -0.57,2.17l0,0.27a4,4 0 0 0 0.57,2.42a2.16,2.16 0 0 0 1.81,0.73a1.9,1.9 0 0 0 1.63,-0.85a4,4 0 0 0 0.59,-2.32a3.85,3.85 0 0 0 -0.59,-2.3a1.94,1.94 0 0 0 -1.66,-0.8z" id="svg_412"/>
  <path class="cls-21" d="m406.74,104.93l-0.24,-1.15l-0.06,0a3.34,3.34 0 0 1 -1.2,1a3.79,3.79 0 0 1 -1.49,0.26a2.68,2.68 0 0 1 -1.87,-0.61a2.25,2.25 0 0 1 -0.68,-1.75q0,-2.43 3.89,-2.55l1.36,-0.05l0,-0.49a2.05,2.05 0 0 0 -0.4,-1.4a1.68,1.68 0 0 0 -1.3,-0.45a5.29,5.29 0 0 0 -2.27,0.62l-0.38,-0.93a5.5,5.5 0 0 1 1.3,-0.51a5.82,5.82 0 0 1 1.42,-0.18a3,3 0 0 1 2.13,0.64a2.65,2.65 0 0 1 0.69,2l0,5.48l-0.9,0.07zm-2.75,-0.86a2.51,2.51 0 0 0 1.79,-0.62a2.33,2.33 0 0 0 0.64,-1.75l0,-0.7l-1.21,0a4.44,4.44 0 0 0 -2.09,0.45a1.36,1.36 0 0 0 -0.64,1.24a1.25,1.25 0 0 0 0.4,1a1.62,1.62 0 0 0 1.12,0.38l-0.01,0z" id="svg_413"/>
  <path class="cls-21" d="m412.72,104.07a4.21,4.21 0 0 0 0.62,-0.05a3,3 0 0 0 0.48,-0.1l0,0.93a2,2 0 0 1 -0.58,0.16a4.62,4.62 0 0 1 -0.7,0.06c-1.55,0 -2.33,-0.81 -2.33,-2.45l0,-4.77l-1.15,0l0,-0.59l1.15,-0.51l0.52,-1.71l0.7,0l0,1.86l2.33,0l0,0.95l-2.33,0l0,4.72a1.57,1.57 0 0 0 0.35,1.11a1.17,1.17 0 0 0 0.94,0.39z" id="svg_414"/>
  <path class="cls-21" d="m421,104.93l0,-5.2a2.08,2.08 0 0 0 -0.45,-1.46a1.81,1.81 0 0 0 -1.4,-0.48a2.33,2.33 0 0 0 -1.85,0.68a3.56,3.56 0 0 0 -0.58,2.26l0,4.2l-1.21,0l0,-11.4l1.21,0l0,3.47a7.22,7.22 0 0 1 -0.06,1l0.08,0a2.51,2.51 0 0 1 1,-0.91a3.35,3.35 0 0 1 1.51,-0.33a3.09,3.09 0 0 1 2.21,0.7a2.94,2.94 0 0 1 0.74,2.22l0,5.24l-1.2,0.01z" id="svg_415"/>
  <path class="cls-21" d="m431.15,104.07a4.23,4.23 0 0 0 0.63,-0.05a2.88,2.88 0 0 0 0.47,-0.1l0,0.93a1.87,1.87 0 0 1 -0.58,0.16a4.6,4.6 0 0 1 -0.69,0.06c-1.56,0 -2.33,-0.81 -2.33,-2.45l0,-4.77l-1.15,0l0,-0.59l1.15,-0.51l0.51,-1.71l0.7,0l0,1.86l2.33,0l0,0.95l-2.33,0l0,4.72a1.62,1.62 0 0 0 0.35,1.11a1.19,1.19 0 0 0 0.94,0.39z" id="svg_416"/>
  <path class="cls-21" d="m439.38,104.93l0,-5.2a2.12,2.12 0 0 0 -0.44,-1.46a1.84,1.84 0 0 0 -1.4,-0.48a2.32,2.32 0 0 0 -1.85,0.68a3.5,3.5 0 0 0 -0.58,2.26l0,4.2l-1.22,0l0,-11.4l1.22,0l0,3.47a7.22,7.22 0 0 1 -0.06,1l0.07,0a2.51,2.51 0 0 1 1,-0.91a3.35,3.35 0 0 1 1.51,-0.33a3.07,3.07 0 0 1 2.21,0.7a2.94,2.94 0 0 1 0.74,2.22l0,5.24l-1.2,0.01z" id="svg_417"/>
  <path class="cls-21" d="m446.43,105.07a3.71,3.71 0 0 1 -2.81,-1.08a4.23,4.23 0 0 1 -1,-3a4.63,4.63 0 0 1 1,-3.08a3.16,3.16 0 0 1 2.57,-1.15a3,3 0 0 1 2.38,1a3.77,3.77 0 0 1 0.88,2.61l0,0.77l-5.53,0a3.22,3.22 0 0 0 0.72,2.15a2.47,2.47 0 0 0 1.91,0.73a6.5,6.5 0 0 0 2.56,-0.54l0,1.08a6.18,6.18 0 0 1 -1.22,0.4a6.91,6.91 0 0 1 -1.46,0.11zm-0.33,-7.3a2,2 0 0 0 -1.54,0.63a2.93,2.93 0 0 0 -0.68,1.74l4.2,0a2.7,2.7 0 0 0 -0.51,-1.76a1.81,1.81 0 0 0 -1.47,-0.61z" id="svg_418"/>
  <path class="cls-21" d="m460.82,103.85l-0.07,0a2.84,2.84 0 0 1 -2.52,1.22a3,3 0 0 1 -2.45,-1.07a4.78,4.78 0 0 1 -0.87,-3.07a4.85,4.85 0 0 1 0.87,-3.08a3,3 0 0 1 2.45,-1.1a2.94,2.94 0 0 1 2.51,1.19l0.09,0l-0.05,-0.58l0,-0.56l0,-3.27l1.22,0l0,11.4l-1,0l-0.18,-1.08zm-2.44,0.21a2.23,2.23 0 0 0 1.81,-0.68a3.45,3.45 0 0 0 0.56,-2.19l0,-0.26a4,4 0 0 0 -0.57,-2.43a2.14,2.14 0 0 0 -1.81,-0.73a1.88,1.88 0 0 0 -1.64,0.83a4.15,4.15 0 0 0 -0.56,2.35a3.91,3.91 0 0 0 0.56,2.32a1.93,1.93 0 0 0 1.65,0.79z" id="svg_419"/>
  <path class="cls-21" d="m469.32,104.93l-0.24,-1.15l-0.08,0a3.34,3.34 0 0 1 -1.2,1a3.76,3.76 0 0 1 -1.49,0.26a2.68,2.68 0 0 1 -1.87,-0.61a2.25,2.25 0 0 1 -0.68,-1.75q0,-2.43 3.89,-2.55l1.37,-0.05l0,-0.49a2.05,2.05 0 0 0 -0.41,-1.4a1.68,1.68 0 0 0 -1.3,-0.45a5.29,5.29 0 0 0 -2.27,0.62l-0.37,-0.93a5.18,5.18 0 0 1 1.33,-0.43a5.68,5.68 0 0 1 1.41,-0.18a3,3 0 0 1 2.13,0.64a2.65,2.65 0 0 1 0.69,2l0,5.48l-0.91,-0.01zm-2.75,-0.86a2.5,2.5 0 0 0 1.79,-0.62a2.33,2.33 0 0 0 0.65,-1.75l0,-0.7l-1.22,0a4.44,4.44 0 0 0 -2.09,0.45a1.36,1.36 0 0 0 -0.64,1.24a1.25,1.25 0 0 0 0.4,1a1.64,1.64 0 0 0 1.11,0.38z" id="svg_420"/>
  <path class="cls-21" d="m475.3,104.07a4.1,4.1 0 0 0 0.62,-0.05a3,3 0 0 0 0.48,-0.1l0,0.93a2,2 0 0 1 -0.58,0.16a4.6,4.6 0 0 1 -0.69,0.06c-1.56,0 -2.33,-0.81 -2.33,-2.45l0,-4.77l-1.15,0l0,-0.59l1.15,-0.51l0.51,-1.71l0.7,0l0,1.86l2.33,0l0,0.95l-2.34,0l0,4.72a1.62,1.62 0 0 0 0.35,1.11a1.19,1.19 0 0 0 0.95,0.39z" id="svg_421"/>
  <path class="cls-21" d="m483.19,104.93l-0.25,-1.15l-0.05,0a3.43,3.43 0 0 1 -1.2,1a3.82,3.82 0 0 1 -1.49,0.26a2.67,2.67 0 0 1 -1.87,-0.61a2.21,2.21 0 0 1 -0.68,-1.75c0,-1.62 1.29,-2.47 3.89,-2.55l1.36,-0.05l0,-0.49a2.05,2.05 0 0 0 -0.41,-1.4a1.67,1.67 0 0 0 -1.3,-0.45a5.33,5.33 0 0 0 -2.27,0.62l-0.37,-0.93a5.34,5.34 0 0 1 1.3,-0.51a5.7,5.7 0 0 1 1.42,-0.18a3,3 0 0 1 2.12,0.64a2.61,2.61 0 0 1 0.7,2l0,5.48l-0.9,0.07zm-2.75,-0.86a2.47,2.47 0 0 0 1.78,-0.62a2.33,2.33 0 0 0 0.65,-1.75l0,-0.7l-1.21,0a4.49,4.49 0 0 0 -2.1,0.45a1.38,1.38 0 0 0 -0.64,1.24a1.29,1.29 0 0 0 0.4,1a1.67,1.67 0 0 0 1.12,0.38z" id="svg_422"/>
  <path class="cls-21" d="m497,104.93l-1.47,-4.71c-0.09,-0.29 -0.27,-0.94 -0.52,-2l-0.01,0c-0.19,0.85 -0.36,1.51 -0.51,2l-1.52,4.7l-1.4,0l-2.19,-8l1.27,0c0.52,2 0.91,3.55 1.18,4.61a19.11,19.11 0 0 1 0.47,2.13l0.06,0c0,-0.28 0.14,-0.64 0.26,-1.08s0.22,-0.79 0.31,-1.05l1.47,-4.61l1.32,0l1.44,4.61a16.28,16.28 0 0 1 0.55,2.11l0.06,0a7.33,7.33 0 0 1 0.16,-0.81q0.12,-0.56 1.52,-5.91l1.26,0l-2.21,8l-1.5,0.01z" id="svg_423"/>
  <path class="cls-21" d="m502.17,94.72a0.8,0.8 0 0 1 0.2,-0.61a0.72,0.72 0 0 1 0.51,-0.19a0.69,0.69 0 0 1 0.51,0.2a0.78,0.78 0 0 1 0.21,0.6a0.83,0.83 0 0 1 -0.21,0.62a0.75,0.75 0 0 1 -1,0a0.83,0.83 0 0 1 -0.22,-0.62zm1.31,10.21l-1.21,0l0,-8l1.21,0l0,8z" id="svg_424"/>
  <path class="cls-21" d="m507.15,104.93l-1.21,0l0,-11.4l1.21,0l0,11.4z" id="svg_425"/>
  <path class="cls-21" d="m510.81,104.93l-1.21,0l0,-11.4l1.21,0l0,11.4z" id="svg_426"/>
  <path class="cls-21" d="m519.88,104.07a4.1,4.1 0 0 0 0.62,-0.05a3,3 0 0 0 0.48,-0.1l0,0.93a2,2 0 0 1 -0.58,0.16a4.6,4.6 0 0 1 -0.69,0.06c-1.56,0 -2.33,-0.81 -2.33,-2.45l0,-4.77l-1.15,0l0,-0.59l1.15,-0.51l0.51,-1.71l0.7,0l0,1.86l2.33,0l0,0.95l-2.33,0l0,4.72a1.62,1.62 0 0 0 0.35,1.11a1.19,1.19 0 0 0 0.94,0.39z" id="svg_427"/>
  <path class="cls-21" d="m527.77,104.93l-0.24,-1.15l-0.06,0a3.34,3.34 0 0 1 -1.2,1a3.82,3.82 0 0 1 -1.49,0.26a2.67,2.67 0 0 1 -1.87,-0.61a2.25,2.25 0 0 1 -0.68,-1.75q0,-2.43 3.89,-2.55l1.36,-0.05l0,-0.49a2,2 0 0 0 -0.41,-1.4a1.67,1.67 0 0 0 -1.3,-0.45a5.36,5.36 0 0 0 -2.27,0.62l-0.37,-0.93a5.5,5.5 0 0 1 1.3,-0.51a5.7,5.7 0 0 1 1.42,-0.18a3.07,3.07 0 0 1 2.13,0.64a2.65,2.65 0 0 1 0.69,2l0,5.48l-0.9,0.07zm-2.75,-0.86a2.47,2.47 0 0 0 1.78,-0.62a2.29,2.29 0 0 0 0.65,-1.75l0,-0.7l-1.21,0a4.49,4.49 0 0 0 -2.1,0.45a1.38,1.38 0 0 0 -0.64,1.24a1.29,1.29 0 0 0 0.4,1a1.67,1.67 0 0 0 1.1,0.38l0.02,0z" id="svg_428"/>
  <path class="cls-21" d="m532.28,100.82a13.41,13.41 0 0 1 1,-1.17l2.59,-2.75l1.45,0l-3.32,3.42l3.48,4.61l-1.48,0l-2.83,-3.8l-0.92,0.79l0,3l-1.2,0l0,-11.4l1.2,0l0,6c0,0.27 0,0.69 -0.06,1.25l0.09,0.05z" id="svg_429"/>
  <path class="cls-21" d="m541.93,105.07a3.7,3.7 0 0 1 -2.81,-1.08a4.18,4.18 0 0 1 -1,-3a4.63,4.63 0 0 1 1,-3.08a3.14,3.14 0 0 1 2.56,-1.15a3,3 0 0 1 2.39,1a3.77,3.77 0 0 1 0.88,2.61l0,0.77l-5.53,0a3.17,3.17 0 0 0 0.71,2.15a2.48,2.48 0 0 0 1.87,0.71a6.52,6.52 0 0 0 2.57,-0.54l0,1.08a6.18,6.18 0 0 1 -1.22,0.4a7,7 0 0 1 -1.42,0.13zm-0.33,-7.3a2,2 0 0 0 -1.54,0.63a2.87,2.87 0 0 0 -0.68,1.74l4.2,0a2.64,2.64 0 0 0 -0.52,-1.76a1.79,1.79 0 0 0 -1.46,-0.61z" id="svg_430"/>
  <line class="cls-22" id="svg_468" x1="210.28" x2="222.2" y1="99.71" y2="99.71"/>
 </g>
</svg>