<?xml version="1.0"?>
<svg width="588" height="200" xmlns="http://www.w3.org/2000/svg" xmlns:svg="http://www.w3.org/2000/svg" xmlns:se="http://svg-edit.googlecode.com" data-name="Layer 1">
 <defs>
  <style>.cls-1,.cls-18,.cls-19{fill:#78b9db;}.cls-1,.cls-11,.cls-12,.cls-13,.cls-14,.cls-17,.cls-18,.cls-2,.cls-3,.cls-5,.cls-6,.cls-8,.cls-9{stroke:#fff;}.cls-1,.cls-22{stroke-linecap:round;stroke-linejoin:round;}.cls-2{fill:#77c3e2;}.cls-11,.cls-12,.cls-13,.cls-14,.cls-17,.cls-18,.cls-2,.cls-3,.cls-5,.cls-6,.cls-8,.cls-9{stroke-miterlimit:10;}.cls-3,.cls-4{fill:#8176b5;}.cls-5{fill:#7ac5d8;}.cls-6,.cls-7{fill:#7f81bb;}.cls-8{fill:#7cc6ce;}.cls-10,.cls-9{fill:#7d8fc3;}.cls-11{fill:#7fc6c5;}.cls-12,.cls-16{fill:#7b9fcc;}.cls-13{fill:#80c8bb;}.cls-14,.cls-15{fill:#79afd5;}.cls-17{fill:#82c9b1;}.cls-20{fill:#fff;}.cls-21{fill:#4d4d4f;}.cls-22{fill:none;stroke:#4c4c4c;stroke-width:2px;}</style>
 </defs>
 <title>lc-svg-version.1</title>
 <g class="layer">
  <title>Layer 1</title>
  <rect class="cls-2" height="43.26" id="svg_2" width="159.03" x="44.14" y="76.22"/>
  <rect class="cls-3" height="43.26" id="svg_3" width="159.03" x="6.53" y="86.14"/>
  <polygon class="cls-4" id="svg_4" points="6.529998779296875,86.1400146484375 44.13999938964844,76.22000122070312 203.1699981689453,76.22000122070312 165.55999755859375,86.1400146484375 6.529998779296875,86.1400146484375 "/>
  <polygon class="cls-3" id="svg_5" points="165.55999755859375,129.39999389648438 203.1699981689453,119.48001098632812 203.1699981689453,76.22000122070312 165.55999755859375,86.1400146484375 165.55999755859375,129.39999389648438 "/>
  <path class="cls-20" d="m186.53,108.79l-2,0l0,-8.39l0,-1.3c-0.33,0.44 -0.56,0.73 -0.68,0.87l-1.07,1.15l-1,-1.59l3,-3.19l1.61,0l0.14,12.45z" id="svg_34"/>
  <path class="cls-20" d="m46.43,106.12a2.56,2.56 0 0 1 -0.84,2.06a3.6,3.6 0 0 1 -2.38,0.71l-0.76,0l0,2.95l-1.76,0l0,-8.31l2.65,0a3.54,3.54 0 0 1 2.3,0.65a2.37,2.37 0 0 1 0.79,1.94zm-4,1.32l0.57,0a1.91,1.91 0 0 0 1.22,-0.32a1.1,1.1 0 0 0 0.4,-0.93a1.14,1.14 0 0 0 -0.34,-0.92a1.56,1.56 0 0 0 -1.06,-0.29l-0.8,0l0.01,2.46z" id="svg_119"/>
  <path class="cls-20" d="m54.8,111.84l-1.75,0l0,-3.59l-3.29,0l0,3.59l-1.76,0l0,-8.31l1.76,0l0,3.26l3.29,0l0,-3.26l1.75,0l0,8.31z" id="svg_120"/>
  <path class="cls-20" d="m59.49,107l1.73,-3.42l1.9,0l-2.76,5.08l0,3.23l-1.75,0l0,-3.18l-2.76,-5.13l1.91,0l1.73,3.42z" id="svg_121"/>
  <path class="cls-20" d="m69.06,109.53a2.17,2.17 0 0 1 -0.81,1.78a3.52,3.52 0 0 1 -2.25,0.69a5.2,5.2 0 0 1 -2.35,-0.5l0,-1.63a10.58,10.58 0 0 0 1.42,0.53a4.36,4.36 0 0 0 1.07,0.15a1.6,1.6 0 0 0 0.89,-0.22a0.78,0.78 0 0 0 0.31,-0.66a0.77,0.77 0 0 0 -0.14,-0.44a1.43,1.43 0 0 0 -0.4,-0.36a10.63,10.63 0 0 0 -1.08,-0.57a4.86,4.86 0 0 1 -1.14,-0.68a2.66,2.66 0 0 1 -0.61,-0.77a2.44,2.44 0 0 1 0.52,-2.76a3.12,3.12 0 0 1 2.07,-0.63a4.93,4.93 0 0 1 1.23,0.16a7.23,7.23 0 0 1 1.21,0.38l-0.56,1.37a8.61,8.61 0 0 0 -1.1,-0.38a3.69,3.69 0 0 0 -0.86,-0.11a1.18,1.18 0 0 0 -0.77,0.23a0.8,0.8 0 0 0 -0.26,0.61a0.7,0.7 0 0 0 0.11,0.41a1.19,1.19 0 0 0 0.34,0.33a10.5,10.5 0 0 0 1.1,0.54a4.64,4.64 0 0 1 1.59,1.12a2.16,2.16 0 0 1 0.47,1.41z" id="svg_122"/>
  <path class="cls-20" d="m70.57,111.84l0,-8.31l1.76,0l0,8.31l-1.76,0z" id="svg_123"/>
  <path class="cls-20" d="m78,104.88a1.79,1.79 0 0 0 -1.54,0.75a3.41,3.41 0 0 0 -0.55,2.08c0,1.85 0.7,2.78 2.09,2.78a6.67,6.67 0 0 0 2.12,-0.44l0,1.48a6,6 0 0 1 -2.29,0.42a3.47,3.47 0 0 1 -2.77,-1.1a4.64,4.64 0 0 1 -1,-3.15a5.2,5.2 0 0 1 0.47,-2.27a3.48,3.48 0 0 1 1.36,-1.5a4.08,4.08 0 0 1 2.07,-0.52a5.6,5.6 0 0 1 2.43,0.59l-0.57,1.43a9.2,9.2 0 0 0 -0.93,-0.39a2.84,2.84 0 0 0 -0.89,-0.16z" id="svg_124"/>
  <path class="cls-20" d="m86.92,111.84l-0.6,-2l-3,0l-0.6,2l-1.9,0l2.93,-8.34l2.15,0l2.95,8.34l-1.93,0zm-1,-3.45c-0.56,-1.8 -0.87,-2.81 -0.94,-3s-0.12,-0.42 -0.15,-0.56q-0.19,0.72 -1.08,3.6l2.17,-0.04z" id="svg_125"/>
  <path class="cls-20" d="m89.86,111.84l0,-8.31l1.76,0l0,6.86l3.38,0l0,1.45l-5.14,0z" id="svg_126"/>
  <path class="cls-20" d="m99.46,111.84l0,-8.31l1.76,0l0,6.86l3.37,0l0,1.45l-5.13,0z" id="svg_127"/>
  <path class="cls-20" d="m111.12,111.84l-0.61,-2l-3,0l-0.61,2l-1.9,0l2.93,-8.34l2.15,0l2.94,8.34l-1.9,0zm-1,-3.45c-0.55,-1.8 -0.87,-2.81 -0.94,-3s-0.12,-0.42 -0.15,-0.56c-0.12,0.48 -0.48,1.68 -1.07,3.6l2.16,-0.04z" id="svg_128"/>
  <path class="cls-20" d="m116.64,107l1.74,-3.42l1.89,0l-2.75,5.08l0,3.23l-1.75,0l0,-3.18l-2.77,-5.18l1.91,0l1.73,3.47z" id="svg_129"/>
  <path class="cls-20" d="m126.1,111.84l-4.78,0l0,-8.31l4.78,0l0,1.47l-3,0l0,1.82l2.81,0l0,1.44l-2.81,0l0,2.15l3,0l0,1.43z" id="svg_130"/>
  <path class="cls-20" d="m129.6,108.65l0,3.19l-1.77,0l0,-8.31l2.43,0a4.14,4.14 0 0 1 2.5,0.62a2.19,2.19 0 0 1 0.81,1.87a2.23,2.23 0 0 1 -0.4,1.31a2.71,2.71 0 0 1 -1.14,0.89c1.25,1.87 2.06,3.07 2.44,3.62l-1.95,0l-2,-3.19l-0.92,0zm0,-1.43l0.57,0a2.15,2.15 0 0 0 1.23,-0.28a1,1 0 0 0 0.39,-0.87a0.89,0.89 0 0 0 -0.4,-0.84a2.43,2.43 0 0 0 -1.26,-0.25l-0.53,0l0,2.24z" id="svg_131"/>
  <path class="cls-21" d="m231.69,107.42l-1.24,0l0,-9.6l-3.39,0l0,-1.11l8,0l0,1.11l-3.4,0l0.03,9.6z" id="svg_470"/>
  <path class="cls-21" d="m239,99.25a4.61,4.61 0 0 1 1,0.09l-0.16,1.12a4.48,4.48 0 0 0 -0.88,-0.11a2.17,2.17 0 0 0 -1.67,0.79a2.9,2.9 0 0 0 -0.69,2l0,4.31l-1.22,0l0,-8l1,0l0.13,1.49l0.06,0a3.65,3.65 0 0 1 1.08,-1.21a2.44,2.44 0 0 1 1.35,-0.48z" id="svg_471"/>
  <path class="cls-21" d="m246.29,107.42l-0.24,-1.14l-0.05,0a3.4,3.4 0 0 1 -1.2,1a3.61,3.61 0 0 1 -1.49,0.27a2.67,2.67 0 0 1 -1.87,-0.62a2.25,2.25 0 0 1 -0.68,-1.75q0,-2.43 3.89,-2.55l1.36,0l0,-0.5a2,2 0 0 0 -0.4,-1.39a1.68,1.68 0 0 0 -1.3,-0.46a5.29,5.29 0 0 0 -2.27,0.62l-0.38,-0.93a6.51,6.51 0 0 1 1.3,-0.51a5.76,5.76 0 0 1 1.42,-0.18a3,3 0 0 1 2.13,0.64a2.66,2.66 0 0 1 0.69,2l0,5.48l-0.91,0.02zm-2.75,-0.86a2.47,2.47 0 0 0 1.79,-0.62a2.29,2.29 0 0 0 0.64,-1.74l0,-0.73l-1.21,0a4.53,4.53 0 0 0 -2.09,0.45a1.37,1.37 0 0 0 -0.64,1.25a1.23,1.23 0 0 0 0.4,1a1.62,1.62 0 0 0 1.11,0.39z" id="svg_472"/>
  <path class="cls-21" d="m255.09,107.42l0,-5.19a2.1,2.1 0 0 0 -0.44,-1.47a1.84,1.84 0 0 0 -1.4,-0.48a2.33,2.33 0 0 0 -1.85,0.68a3.47,3.47 0 0 0 -0.58,2.25l0,4.21l-1.22,0l0,-8l1,0l0.2,1.1l0.06,0a2.52,2.52 0 0 1 1,-0.92a3.52,3.52 0 0 1 1.51,-0.32a3,3 0 0 1 2.18,0.7a3,3 0 0 1 0.73,2.23l0,5.24l-1.19,-0.03z" id="svg_473"/>
  <path class="cls-21" d="m263.86,105.23a2,2 0 0 1 -0.86,1.77a3.86,3.86 0 0 1 -2.34,0.61a5.08,5.08 0 0 1 -2.49,-0.51l0,-1.13a6.35,6.35 0 0 0 1.24,0.47a5.28,5.28 0 0 0 1.28,0.16a2.92,2.92 0 0 0 1.46,-0.3a1,1 0 0 0 0.52,-0.93a1,1 0 0 0 -0.41,-0.8a6.68,6.68 0 0 0 -1.59,-0.79a9,9 0 0 1 -1.59,-0.72a2.24,2.24 0 0 1 -0.7,-0.71a1.88,1.88 0 0 1 -0.23,-0.95a1.79,1.79 0 0 1 0.8,-1.55a3.77,3.77 0 0 1 2.19,-0.56a6.4,6.4 0 0 1 2.53,0.52l-0.43,1a5.9,5.9 0 0 0 -2.19,-0.5a2.55,2.55 0 0 0 -1.31,0.28a0.83,0.83 0 0 0 -0.43,0.74a0.9,0.9 0 0 0 0.16,0.55a1.6,1.6 0 0 0 0.53,0.43a10.65,10.65 0 0 0 1.41,0.6a5.24,5.24 0 0 1 1.93,1.05a1.85,1.85 0 0 1 0.52,1.27z" id="svg_474"/>
  <path class="cls-21" d="m276,107.42l0,-5.22a2.19,2.19 0 0 0 -0.41,-1.44a1.6,1.6 0 0 0 -1.28,-0.48a2.06,2.06 0 0 0 -1.67,0.65a3.07,3.07 0 0 0 -0.55,2l0,4.48l-1.21,0l0,-5.21a2.19,2.19 0 0 0 -0.41,-1.44a1.6,1.6 0 0 0 -1.28,-0.48a2,2 0 0 0 -1.68,0.69a3.71,3.71 0 0 0 -0.53,2.24l0,4.21l-1.21,0l0,-8l1,0l0.2,1.1l0.03,0a2.37,2.37 0 0 1 1,-0.91a3,3 0 0 1 1.4,-0.33a2.37,2.37 0 0 1 2.46,1.36l0.06,0a2.64,2.64 0 0 1 1,-1a3.32,3.32 0 0 1 1.56,-0.36a2.73,2.73 0 0 1 2,0.7a3.11,3.11 0 0 1 0.67,2.23l0,5.24l-1.15,-0.03z" id="svg_475"/>
  <path class="cls-21" d="m279.45,97.22a0.79,0.79 0 0 1 0.21,-0.61a0.69,0.69 0 0 1 0.51,-0.2a0.72,0.72 0 0 1 0.5,0.2a1,1 0 0 1 0,1.22a0.72,0.72 0 0 1 -0.5,0.2a0.69,0.69 0 0 1 -0.51,-0.2a0.81,0.81 0 0 1 -0.21,-0.61zm1.32,10.2l-1.22,0l0,-8l1.22,0l0,8z" id="svg_476"/>
  <path class="cls-21" d="m286,106.56a4.21,4.21 0 0 0 0.62,0l0.47,-0.1l0,0.93a2.67,2.67 0 0 1 -0.58,0.16a4.39,4.39 0 0 1 -0.69,0.06c-1.55,0 -2.33,-0.82 -2.33,-2.46l0,-4.77l-1.15,0l0,-0.59l1.15,-0.5l0.51,-1.72l0.71,0l0,1.86l2.33,0l0,0.95l-2.33,0l0,4.72a1.63,1.63 0 0 0 0.34,1.12a1.23,1.23 0 0 0 0.95,0.34z" id="svg_477"/>
  <path class="cls-21" d="m294.16,105.23a2,2 0 0 1 -0.83,1.73a3.9,3.9 0 0 1 -2.34,0.61a5,5 0 0 1 -2.49,-0.51l0,-1.13a5.9,5.9 0 0 0 1.24,0.47a5.2,5.2 0 0 0 1.27,0.16a2.93,2.93 0 0 0 1.47,-0.3a1,1 0 0 0 0.51,-0.93a1,1 0 0 0 -0.41,-0.8a6.56,6.56 0 0 0 -1.58,-0.79a8.35,8.35 0 0 1 -1.59,-0.72a2.28,2.28 0 0 1 -0.71,-0.71a1.88,1.88 0 0 1 -0.23,-0.95a1.82,1.82 0 0 1 0.8,-1.55a3.77,3.77 0 0 1 2.19,-0.56a6.45,6.45 0 0 1 2.54,0.52l-0.44,1a5.82,5.82 0 0 0 -2.19,-0.5a2.51,2.51 0 0 0 -1.3,0.28a0.84,0.84 0 0 0 -0.44,0.74a0.9,0.9 0 0 0 0.16,0.55a1.55,1.55 0 0 0 0.54,0.43a11,11 0 0 0 1.4,0.6a5.16,5.16 0 0 1 1.93,1.05a1.81,1.81 0 0 1 0.5,1.31z" id="svg_478"/>
  <path class="cls-21" d="m303.7,99.25a4.61,4.61 0 0 1 1,0.09l-0.17,1.12a4.31,4.31 0 0 0 -0.88,-0.11a2.15,2.15 0 0 0 -1.66,0.79a2.86,2.86 0 0 0 -0.7,2l0,4.31l-1.29,0l0,-8l1,0l0.14,1.49l0.06,0a3.65,3.65 0 0 1 1.08,-1.21a2.44,2.44 0 0 1 1.42,-0.48z" id="svg_479"/>
  <path class="cls-21" d="m311,107.42l-0.25,-1.14l-0.05,0a3.49,3.49 0 0 1 -1.2,1a3.64,3.64 0 0 1 -1.49,0.27a2.67,2.67 0 0 1 -1.87,-0.62a2.21,2.21 0 0 1 -0.68,-1.75c0,-1.62 1.29,-2.47 3.89,-2.55l1.36,0l0,-0.5a2,2 0 0 0 -0.41,-1.39a1.67,1.67 0 0 0 -1.3,-0.46a5.33,5.33 0 0 0 -2.27,0.62l-0.37,-0.93a6.28,6.28 0 0 1 1.3,-0.51a5.7,5.7 0 0 1 1.42,-0.18a3,3 0 0 1 2.12,0.64a2.63,2.63 0 0 1 0.7,2l0,5.48l-0.9,0.02zm-2.75,-0.86a2.44,2.44 0 0 0 1.78,-0.62a2.29,2.29 0 0 0 0.65,-1.74l0,-0.73l-1.22,0a4.6,4.6 0 0 0 -2.09,0.45a1.39,1.39 0 0 0 -0.64,1.25a1.27,1.27 0 0 0 0.4,1a1.67,1.67 0 0 0 1.12,0.39z" id="svg_480"/>
  <path class="cls-21" d="m320.88,107.42l-1.47,-4.71c-0.1,-0.29 -0.27,-0.94 -0.52,-2l-0.06,0q-0.3,1.28 -0.51,2l-1.52,4.69l-1.41,0l-2.19,-8l1.28,0c0.51,2 0.91,3.56 1.18,4.61a17.08,17.08 0 0 1 0.46,2.13l0.06,0c0.06,-0.28 0.14,-0.64 0.26,-1.08s0.23,-0.79 0.31,-1.05l1.48,-4.61l1.32,0l1.45,4.6a16.63,16.63 0 0 1 0.56,2.12l0.06,0c0,-0.18 0.07,-0.45 0.15,-0.82s0.6,-2.33 1.53,-5.91l1.26,0l-2.22,8l-1.46,0.03z" id="svg_481"/>
  <path class="cls-21" d="m333.62,99.26a3,3 0 0 1 2.46,1.08a5.75,5.75 0 0 1 0,6.13a3,3 0 0 1 -2.45,1.1a3.51,3.51 0 0 1 -1.43,-0.29a2.74,2.74 0 0 1 -1.09,-0.89l-0.11,0l-0.26,1l-0.87,0l0,-11.39l1.21,0l0,2.77c0,0.62 0,1.18 -0.06,1.67l0.06,0a2.9,2.9 0 0 1 2.54,-1.18zm-0.17,1a2.16,2.16 0 0 0 -1.8,0.71a4.09,4.09 0 0 0 -0.55,2.41a4,4 0 0 0 0.57,2.42a2.13,2.13 0 0 0 1.81,0.73a1.88,1.88 0 0 0 1.67,-0.82a4.21,4.21 0 0 0 0.55,-2.34a4.08,4.08 0 0 0 -0.55,-2.34a2,2 0 0 0 -1.7,-0.75l0,-0.02z" id="svg_482"/>
  <path class="cls-21" d="m338.91,97.22a0.83,0.83 0 0 1 0.2,-0.61a0.73,0.73 0 0 1 0.52,-0.2a0.72,0.72 0 0 1 0.5,0.2a1,1 0 0 1 0,1.22a0.72,0.72 0 0 1 -0.5,0.2a0.73,0.73 0 0 1 -0.52,-0.2a0.84,0.84 0 0 1 -0.2,-0.61zm1.32,10.2l-1.23,0l0,-8l1.22,0l0.01,8z" id="svg_483"/>
  <path class="cls-21" d="m345.46,106.56a4.26,4.26 0 0 0 0.63,0l0.47,-0.1l0,0.93a2.67,2.67 0 0 1 -0.58,0.16a4.6,4.6 0 0 1 -0.69,0.06c-1.55,0 -2.33,-0.82 -2.33,-2.46l0,-4.77l-1.15,0l0,-0.59l1.15,-0.5l0.51,-1.72l0.7,0l0,1.86l2.33,0l0,0.95l-2.33,0l0,4.72a1.63,1.63 0 0 0 0.35,1.12a1.21,1.21 0 0 0 0.94,0.34z" id="svg_484"/>
  <path class="cls-21" d="m357.24,105.23a2,2 0 0 1 -0.83,1.73a3.91,3.91 0 0 1 -2.35,0.61a5.08,5.08 0 0 1 -2.49,-0.51l0,-1.13a6.35,6.35 0 0 0 1.24,0.47a5.34,5.34 0 0 0 1.28,0.16a3,3 0 0 0 1.47,-0.3a1,1 0 0 0 0.1,-1.73a6.77,6.77 0 0 0 -1.58,-0.79a8.84,8.84 0 0 1 -1.6,-0.72a2.36,2.36 0 0 1 -0.7,-0.71a1.88,1.88 0 0 1 -0.23,-0.95a1.82,1.82 0 0 1 0.8,-1.55a3.77,3.77 0 0 1 2.19,-0.56a6.4,6.4 0 0 1 2.53,0.52l-0.43,1a5.86,5.86 0 0 0 -2.19,-0.5a2.51,2.51 0 0 0 -1.3,0.28a0.82,0.82 0 0 0 -0.44,0.74a0.9,0.9 0 0 0 0.16,0.55a1.6,1.6 0 0 0 0.53,0.43a12,12 0 0 0 1.41,0.6a5.16,5.16 0 0 1 1.93,1.05a1.85,1.85 0 0 1 0.5,1.31z" id="svg_485"/>
  <path class="cls-21" d="m362.1,106.56a4.21,4.21 0 0 0 0.62,0l0.48,-0.1l0,0.93a3,3 0 0 1 -0.59,0.16a4.39,4.39 0 0 1 -0.69,0.06c-1.55,0 -2.33,-0.82 -2.33,-2.46l0,-4.77l-1.15,0l0,-0.59l1.15,-0.5l0.52,-1.72l0.7,0l0,1.86l2.33,0l0,0.95l-2.33,0l0,4.72a1.63,1.63 0 0 0 0.34,1.12a1.23,1.23 0 0 0 0.95,0.34z" id="svg_486"/>
  <path class="cls-21" d="m368.5,99.25a4.75,4.75 0 0 1 1,0.09l-0.17,1.12a4.39,4.39 0 0 0 -0.88,-0.11a2.17,2.17 0 0 0 -1.67,0.79a2.9,2.9 0 0 0 -0.69,2l0,4.31l-1.22,0l0,-8l1,0l0.14,1.49l-0.01,0a3.52,3.52 0 0 1 1.07,-1.21a2.45,2.45 0 0 1 1.43,-0.48z" id="svg_487"/>
  <path class="cls-21" d="m374.2,107.57a3.67,3.67 0 0 1 -2.81,-1.09a4.21,4.21 0 0 1 -1,-3a4.63,4.63 0 0 1 1,-3.08a3.17,3.17 0 0 1 2.56,-1.14a3,3 0 0 1 2.39,1a3.78,3.78 0 0 1 0.88,2.62l0,0.77l-5.53,0a3.14,3.14 0 0 0 0.72,2.14a2.45,2.45 0 0 0 1.9,0.74a6.36,6.36 0 0 0 2.57,-0.55l0,1.09a5.82,5.82 0 0 1 -2.61,0.52l-0.07,-0.02zm-0.33,-7.31a2,2 0 0 0 -1.54,0.64a2.93,2.93 0 0 0 -0.68,1.74l4.2,0a2.61,2.61 0 0 0 -0.52,-1.76a1.8,1.8 0 0 0 -1.46,-0.62z" id="svg_488"/>
  <path class="cls-21" d="m384.05,107.42l-0.24,-1.14l-0.06,0a3.47,3.47 0 0 1 -1.19,1a3.64,3.64 0 0 1 -1.49,0.27a2.71,2.71 0 0 1 -1.88,-0.62a2.24,2.24 0 0 1 -0.67,-1.75c0,-1.62 1.29,-2.47 3.89,-2.55l1.36,0l0,-0.5a2,2 0 0 0 -0.41,-1.39a1.67,1.67 0 0 0 -1.3,-0.46a5.33,5.33 0 0 0 -2.27,0.62l-0.37,-0.93a6.28,6.28 0 0 1 1.3,-0.51a5.68,5.68 0 0 1 1.41,-0.18a3,3 0 0 1 2.13,0.64a2.66,2.66 0 0 1 0.7,2l0,5.48l-0.91,0.02zm-2.74,-0.86a2.44,2.44 0 0 0 1.78,-0.62a2.29,2.29 0 0 0 0.65,-1.74l0,-0.73l-1.22,0a4.6,4.6 0 0 0 -2.09,0.45a1.37,1.37 0 0 0 -0.64,1.25a1.23,1.23 0 0 0 0.4,1a1.67,1.67 0 0 0 1.12,0.39z" id="svg_489"/>
  <path class="cls-21" d="m397.6,107.42l0,-5.22a2.19,2.19 0 0 0 -0.41,-1.44a1.6,1.6 0 0 0 -1.28,-0.48a2.06,2.06 0 0 0 -1.67,0.65a3.07,3.07 0 0 0 -0.55,2l0,4.48l-1.21,0l0,-5.21a2.19,2.19 0 0 0 -0.41,-1.44a1.6,1.6 0 0 0 -1.28,-0.48a2,2 0 0 0 -1.68,0.69a3.71,3.71 0 0 0 -0.53,2.24l0,4.21l-1.21,0l0,-8l1,0l0.2,1.1l0.06,0a2.37,2.37 0 0 1 1,-0.91a3,3 0 0 1 1.4,-0.33a2.37,2.37 0 0 1 2.46,1.36l0.06,0a2.64,2.64 0 0 1 1,-1a3.29,3.29 0 0 1 1.56,-0.36a2.73,2.73 0 0 1 2,0.7a3.11,3.11 0 0 1 0.67,2.23l0,5.24l-1.18,-0.03z" id="svg_490"/>
  <path class="cls-21" d="m412.14,103.4a4.44,4.44 0 0 1 -1,3.07a3.48,3.48 0 0 1 -2.73,1.1a3.62,3.62 0 0 1 -1.91,-0.51a3.32,3.32 0 0 1 -1.29,-1.45a5.07,5.07 0 0 1 -0.45,-2.21a4.4,4.4 0 0 1 1,-3.06a3.45,3.45 0 0 1 2.72,-1.09a3.38,3.38 0 0 1 2.68,1.12a4.41,4.41 0 0 1 0.98,3.03zm-6.11,0a3.78,3.78 0 0 0 0.61,2.34a2.44,2.44 0 0 0 3.62,0a3.76,3.76 0 0 0 0.62,-2.35a3.7,3.7 0 0 0 -0.62,-2.33a2.19,2.19 0 0 0 -1.82,-0.79a2.13,2.13 0 0 0 -1.8,0.78a3.78,3.78 0 0 0 -0.64,2.35l0.03,0z" id="svg_491"/>
  <path class="cls-21" d="m415.94,107.42l-3.05,-8l1.31,0l1.73,4.76a20.2,20.2 0 0 1 0.68,2.17l0.06,0c0.06,-0.26 0.23,-0.79 0.51,-1.6s0.93,-2.59 1.92,-5.33l1.31,0l-3.05,8l-1.42,0z" id="svg_492"/>
  <path class="cls-21" d="m425,107.57a3.65,3.65 0 0 1 -2.81,-1.09a4.17,4.17 0 0 1 -1,-3a4.69,4.69 0 0 1 0.95,-3.08a3.19,3.19 0 0 1 2.57,-1.14a3,3 0 0 1 2.39,1a3.82,3.82 0 0 1 0.88,2.62l0,0.77l-5.53,0a3.14,3.14 0 0 0 0.71,2.14a2.47,2.47 0 0 0 1.91,0.74a6.31,6.31 0 0 0 2.56,-0.55l0,1.09a6.66,6.66 0 0 1 -1.22,0.4a6.81,6.81 0 0 1 -1.41,0.1zm-0.33,-7.31a2,2 0 0 0 -1.55,0.64a2.86,2.86 0 0 0 -0.67,1.74l4.19,0a2.66,2.66 0 0 0 -0.51,-1.76a1.8,1.8 0 0 0 -1.46,-0.62z" id="svg_493"/>
  <path class="cls-21" d="m433.62,99.25a4.58,4.58 0 0 1 0.95,0.09l-0.16,1.12a4.48,4.48 0 0 0 -0.88,-0.11a2.17,2.17 0 0 0 -1.67,0.79a2.9,2.9 0 0 0 -0.69,2l0,4.31l-1.17,0l0,-8l1,0l0.14,1.49l0,0a3.65,3.65 0 0 1 1.08,-1.21a2.45,2.45 0 0 1 1.4,-0.48z" id="svg_494"/>
  <path class="cls-21" d="m442.57,106.56a4.21,4.21 0 0 0 0.62,0l0.47,-0.1l0,0.93a2.67,2.67 0 0 1 -0.58,0.16a4.49,4.49 0 0 1 -0.69,0.06c-1.55,0 -2.33,-0.82 -2.33,-2.46l0,-4.77l-1.15,0l0,-0.59l1.15,-0.5l0.51,-1.72l0.71,0l0,1.86l2.33,0l0,0.95l-2.33,0l0,4.72a1.63,1.63 0 0 0 0.34,1.12a1.23,1.23 0 0 0 0.95,0.34z" id="svg_495"/>
  <path class="cls-21" d="m450.8,107.42l0,-5.19a2.1,2.1 0 0 0 -0.45,-1.47a1.84,1.84 0 0 0 -1.4,-0.48a2.3,2.3 0 0 0 -1.85,0.69a3.47,3.47 0 0 0 -0.58,2.25l0,4.2l-1.22,0l0,-11.42l1.22,0l0,3.45a7.47,7.47 0 0 1 -0.06,1l0.07,0a2.44,2.44 0 0 1 1,-0.91a3.27,3.27 0 0 1 1.52,-0.34a3.13,3.13 0 0 1 2.21,0.7a3,3 0 0 1 0.73,2.22l0,5.24l-1.19,0.06z" id="svg_496"/>
  <path class="cls-21" d="m457.84,107.57a3.68,3.68 0 0 1 -2.81,-1.09a4.21,4.21 0 0 1 -1,-3a4.63,4.63 0 0 1 1,-3.08a3.18,3.18 0 0 1 2.57,-1.14a3,3 0 0 1 2.39,1a3.82,3.82 0 0 1 0.87,2.62l0,0.77l-5.53,0a3.19,3.19 0 0 0 0.72,2.14a2.47,2.47 0 0 0 1.91,0.74a6.31,6.31 0 0 0 2.56,-0.55l0,1.09a6.92,6.92 0 0 1 -1.22,0.4a6.84,6.84 0 0 1 -1.46,0.1zm-0.33,-7.31a2,2 0 0 0 -1.54,0.64a2.93,2.93 0 0 0 -0.68,1.74l4.2,0a2.66,2.66 0 0 0 -0.51,-1.76a1.8,1.8 0 0 0 -1.47,-0.62z" id="svg_497"/>
  <path class="cls-21" d="m470.5,107.57a3.51,3.51 0 0 1 -1.43,-0.29a2.67,2.67 0 0 1 -1.09,-0.89l-0.09,0a10.49,10.49 0 0 1 0.09,1.33l0,3.28l-1.22,0l0,-11.61l1,0l0.17,1.1l0.07,0a2.87,2.87 0 0 1 1.09,-0.95a3.41,3.41 0 0 1 1.43,-0.29a2.94,2.94 0 0 1 2.46,1.09a5.81,5.81 0 0 1 0,6.13a3,3 0 0 1 -2.48,1.1zm-0.18,-7.29a2.17,2.17 0 0 0 -1.78,0.68a3.57,3.57 0 0 0 -0.56,2.17l0,0.27a4,4 0 0 0 0.56,2.42a2.14,2.14 0 0 0 1.81,0.73a1.87,1.87 0 0 0 1.63,-0.84a4,4 0 0 0 0.59,-2.32a3.83,3.83 0 0 0 -0.59,-2.31a1.94,1.94 0 0 0 -1.66,-0.8z" id="svg_498"/>
  <path class="cls-21" d="m481.39,107.42l0,-5.19a2.1,2.1 0 0 0 -0.45,-1.47a1.83,1.83 0 0 0 -1.4,-0.48a2.3,2.3 0 0 0 -1.85,0.69a3.47,3.47 0 0 0 -0.58,2.25l0,4.2l-1.22,0l0,-11.42l1.22,0l0,3.45a7.47,7.47 0 0 1 -0.06,1l0.07,0a2.41,2.41 0 0 1 1,-0.91a3.2,3.2 0 0 1 1.51,-0.34a3.13,3.13 0 0 1 2.21,0.7a3,3 0 0 1 0.73,2.22l0,5.24l-1.18,0.06z" id="svg_499"/>
  <path class="cls-21" d="m483.72,99.39l1.28,0l1.76,4.58a16.84,16.84 0 0 1 0.72,2.26l0.06,0c0.06,-0.24 0.19,-0.67 0.4,-1.27s0.86,-2.46 2,-5.57l1.3,0l-3.45,9.14a4.51,4.51 0 0 1 -1.2,1.93a2.51,2.51 0 0 1 -1.68,0.56a5.08,5.08 0 0 1 -1.1,-0.12l0,-1a4.94,4.94 0 0 0 0.9,0.08a1.85,1.85 0 0 0 1.79,-1.4l0.45,-1.14l-3.23,-8.05z" id="svg_500"/>
  <path class="cls-21" d="m497.92,105.23a2,2 0 0 1 -0.83,1.73a3.9,3.9 0 0 1 -2.34,0.61a5,5 0 0 1 -2.49,-0.51l0,-1.13a6.12,6.12 0 0 0 1.24,0.47a5.28,5.28 0 0 0 1.28,0.16a2.92,2.92 0 0 0 1.46,-0.3a1.05,1.05 0 0 0 0.11,-1.73a6.68,6.68 0 0 0 -1.59,-0.79a8.35,8.35 0 0 1 -1.59,-0.72a2.28,2.28 0 0 1 -0.71,-0.71a1.88,1.88 0 0 1 -0.23,-0.95a1.82,1.82 0 0 1 0.8,-1.55a3.77,3.77 0 0 1 2.19,-0.56a6.45,6.45 0 0 1 2.54,0.52l-0.43,1a5.9,5.9 0 0 0 -2.2,-0.5a2.51,2.51 0 0 0 -1.3,0.28a0.84,0.84 0 0 0 -0.44,0.74a0.9,0.9 0 0 0 0.17,0.55a1.5,1.5 0 0 0 0.53,0.43a11,11 0 0 0 1.4,0.6a5.07,5.07 0 0 1 1.93,1.05a1.81,1.81 0 0 1 0.5,1.31z" id="svg_501"/>
  <path class="cls-21" d="m499.66,97.22a0.79,0.79 0 0 1 0.21,-0.61a0.69,0.69 0 0 1 0.51,-0.2a0.72,0.72 0 0 1 0.5,0.2a1,1 0 0 1 0,1.22a0.72,0.72 0 0 1 -0.5,0.2a0.69,0.69 0 0 1 -0.51,-0.2a0.81,0.81 0 0 1 -0.21,-0.61zm1.32,10.2l-1.22,0l0,-8l1.24,0l-0.02,8z" id="svg_502"/>
  <path class="cls-21" d="m506.67,107.57a3.42,3.42 0 0 1 -2.7,-1.08a4.37,4.37 0 0 1 -1,-3a4.53,4.53 0 0 1 1,-3.11a3.44,3.44 0 0 1 2.76,-1.1a5.71,5.71 0 0 1 1.16,0.12a3.86,3.86 0 0 1 0.91,0.3l-0.38,1a5.34,5.34 0 0 0 -0.88,-0.27a4,4 0 0 0 -0.84,-0.11c-1.63,0 -2.45,1 -2.45,3.12a3.68,3.68 0 0 0 0.6,2.27a2.08,2.08 0 0 0 1.77,0.8a5.38,5.38 0 0 0 2.06,-0.44l0,1.08a4.36,4.36 0 0 1 -2.01,0.42z" id="svg_503"/>
  <path class="cls-21" d="m515.68,107.42l-0.24,-1.14l-0.06,0a3.4,3.4 0 0 1 -1.2,1a3.58,3.58 0 0 1 -1.49,0.27a2.69,2.69 0 0 1 -1.87,-0.62a2.25,2.25 0 0 1 -0.68,-1.75q0,-2.43 3.89,-2.55l1.37,0l0,-0.5a2,2 0 0 0 -0.41,-1.39a1.67,1.67 0 0 0 -1.3,-0.46a5.29,5.29 0 0 0 -2.27,0.62l-0.37,-0.93a6.07,6.07 0 0 1 1.3,-0.51a5.68,5.68 0 0 1 1.41,-0.18a3,3 0 0 1 2.13,0.64a2.66,2.66 0 0 1 0.69,2l0,5.48l-0.9,0.02zm-2.75,-0.86a2.45,2.45 0 0 0 1.79,-0.62a2.29,2.29 0 0 0 0.65,-1.74l0,-0.73l-1.22,0a4.57,4.57 0 0 0 -2.09,0.45a1.37,1.37 0 0 0 -0.64,1.25a1.23,1.23 0 0 0 0.4,1a1.64,1.64 0 0 0 1.11,0.39z" id="svg_504"/>
  <path class="cls-21" d="m520.21,107.42l-1.21,0l0,-11.42l1.22,0l-0.01,11.42z" id="svg_505"/>
  <path class="cls-21" d="m536.92,107.42l0,-5.22a2.13,2.13 0 0 0 -0.42,-1.44a1.57,1.57 0 0 0 -1.27,-0.48a2.07,2.07 0 0 0 -1.68,0.65a3.13,3.13 0 0 0 -0.54,2l0,4.48l-1.22,0l0,-5.21a2.13,2.13 0 0 0 -0.41,-1.44a1.59,1.59 0 0 0 -1.28,-0.48a2,2 0 0 0 -1.67,0.69a3.71,3.71 0 0 0 -0.53,2.24l0,4.21l-1.22,0l0,-8l1,0l0.2,1.1l0.06,0a2.37,2.37 0 0 1 1,-0.91a3,3 0 0 1 1.4,-0.33a2.37,2.37 0 0 1 2.46,1.36l0.06,0a2.64,2.64 0 0 1 1,-1a3.25,3.25 0 0 1 1.55,-0.36a2.7,2.7 0 0 1 2,0.7a3.11,3.11 0 0 1 0.68,2.23l0,5.24l-1.17,-0.03z" id="svg_506"/>
  <path class="cls-21" d="m544,107.57a3.65,3.65 0 0 1 -2.8,-1.09a4.17,4.17 0 0 1 -1,-3a4.69,4.69 0 0 1 1,-3.08a3.19,3.19 0 0 1 2.57,-1.14a3,3 0 0 1 2.39,1a3.82,3.82 0 0 1 0.88,2.62l0,0.77l-5.53,0a3.14,3.14 0 0 0 0.71,2.14a2.47,2.47 0 0 0 1.91,0.74a6.31,6.31 0 0 0 2.56,-0.55l0,1.09a6.66,6.66 0 0 1 -1.22,0.4a6.84,6.84 0 0 1 -1.47,0.1zm-0.32,-7.31a2,2 0 0 0 -1.55,0.64a2.86,2.86 0 0 0 -0.67,1.74l4.19,0a2.66,2.66 0 0 0 -0.51,-1.76a1.8,1.8 0 0 0 -1.5,-0.62l0.04,0z" id="svg_507"/>
  <path class="cls-21" d="m554.47,106.35l-0.07,0a2.86,2.86 0 0 1 -2.52,1.22a3,3 0 0 1 -2.45,-1.08a4.77,4.77 0 0 1 -0.87,-3.06a4.85,4.85 0 0 1 0.87,-3.08a3.27,3.27 0 0 1 5,0.08l0.09,0l-0.05,-0.58l0,-0.56l0,-3.29l1.22,0l0,11.4l-1,0l-0.22,-1.05zm-2.43,0.2a2.2,2.2 0 0 0 1.8,-0.68a3.43,3.43 0 0 0 0.56,-2.18l0,-0.26a4,4 0 0 0 -0.57,-2.44a2.16,2.16 0 0 0 -1.81,-0.73a1.87,1.87 0 0 0 -1.64,0.84a4.09,4.09 0 0 0 -0.56,2.34a4,4 0 0 0 0.56,2.33a1.92,1.92 0 0 0 1.62,0.78l0.04,0z" id="svg_508"/>
  <path class="cls-21" d="m558,97.22a0.79,0.79 0 0 1 0.21,-0.61a0.69,0.69 0 0 1 0.51,-0.2a0.76,0.76 0 0 1 0.51,0.2a1,1 0 0 1 0,1.22a0.76,0.76 0 0 1 -0.51,0.2a0.69,0.69 0 0 1 -0.51,-0.2a0.81,0.81 0 0 1 -0.21,-0.61zm1.32,10.2l-1.22,0l0,-8l1.22,0l0,8z" id="svg_509"/>
  <path class="cls-21" d="m562.89,99.39l0,5.21a2.1,2.1 0 0 0 0.45,1.47a1.81,1.81 0 0 0 1.4,0.48a2.28,2.28 0 0 0 1.84,-0.69a3.47,3.47 0 0 0 0.58,-2.25l0,-4.22l1.22,0l0,8l-1,0l-0.17,-1.07l-0.07,0a2.41,2.41 0 0 1 -1,0.9a3.46,3.46 0 0 1 -1.51,0.32a3,3 0 0 1 -2.19,-0.7a2.92,2.92 0 0 1 -0.73,-2.22l0,-5.26l1.18,0.03z" id="svg_510"/>
  <path class="cls-21" d="m581.06,107.42l0,-5.22a2.19,2.19 0 0 0 -0.41,-1.44a1.6,1.6 0 0 0 -1.28,-0.48a2.06,2.06 0 0 0 -1.67,0.65a3.07,3.07 0 0 0 -0.55,2l0,4.48l-1.21,0l0,-5.21a2.19,2.19 0 0 0 -0.41,-1.44a1.6,1.6 0 0 0 -1.28,-0.48a2,2 0 0 0 -1.68,0.69a3.71,3.71 0 0 0 -0.53,2.24l0,4.21l-1.21,0l0,-8l1,0l0.2,1.1l0.06,0a2.37,2.37 0 0 1 1,-0.91a3,3 0 0 1 1.4,-0.33a2.39,2.39 0 0 1 2.47,1.36l0.04,0a2.64,2.64 0 0 1 1,-1a3.32,3.32 0 0 1 1.56,-0.36a2.73,2.73 0 0 1 2,0.7a3.11,3.11 0 0 1 0.67,2.23l0,5.24l-1.17,-0.03z" id="svg_511"/>
  <line class="cls-22" id="svg_512" x1="209.28" x2="221.2" y1="102.21" y2="102.21"/>
 </g>
</svg>