<?xml version="1.0"?>
<svg width="588" height="200" xmlns="http://www.w3.org/2000/svg" xmlns:svg="http://www.w3.org/2000/svg" xmlns:se="http://svg-edit.googlecode.com" data-name="Layer 1">
 <defs>
  <style>.cls-1,.cls-18,.cls-19{fill:#78b9db;}.cls-1,.cls-11,.cls-12,.cls-13,.cls-14,.cls-17,.cls-18,.cls-2,.cls-3,.cls-5,.cls-6,.cls-8,.cls-9{stroke:#fff;}.cls-1,.cls-22{stroke-linecap:round;stroke-linejoin:round;}.cls-2{fill:#77c3e2;}.cls-11,.cls-12,.cls-13,.cls-14,.cls-17,.cls-18,.cls-2,.cls-3,.cls-5,.cls-6,.cls-8,.cls-9{stroke-miterlimit:10;}.cls-3,.cls-4{fill:#8176b5;}.cls-5{fill:#7ac5d8;}.cls-6,.cls-7{fill:#7f81bb;}.cls-8{fill:#7cc6ce;}.cls-10,.cls-9{fill:#7d8fc3;}.cls-11{fill:#7fc6c5;}.cls-12,.cls-16{fill:#7b9fcc;}.cls-13{fill:#80c8bb;}.cls-14,.cls-15{fill:#79afd5;}.cls-17{fill:#82c9b1;}.cls-20{fill:#fff;}.cls-21{fill:#4d4d4f;}.cls-22{fill:none;stroke:#4c4c4c;stroke-width:2px;}</style>
 </defs>
 <title>lc-svg-version.1</title>
 <g class="layer">
  <title>Layer 1</title>
  <rect class="cls-17" height="43.26" id="svg_22" width="159.03" x="45.14" y="73.01"/>
  <rect class="cls-18" height="43.26" id="svg_23" width="159.03" x="7.53" y="82.93"/>
  <polygon class="cls-19" id="svg_24" points="7.529999732971191,82.93000030517578 45.13999938964844,73.01000213623047 204.1699981689453,73.01000213623047 166.55999755859375,82.93000030517578 7.529999732971191,82.93000030517578 "/>
  <polygon class="cls-18" id="svg_25" points="166.55999755859375,126.19000244140625 204.1699981689453,116.2699966430664 204.1699981689453,73.01000213623047 166.55999755859375,82.93000030517578 166.55999755859375,126.19000244140625 "/>
  <path class="cls-20" d="m182.61,100.29a10.27,10.27 0 0 1 1.17,-5.5a3.86,3.86 0 0 1 3.49,-1.79a4.64,4.64 0 0 1 1.25,0.13l0,2.1a4,4 0 0 0 -1.12,-0.23a3,3 0 0 0 -1.65,0.41a2.44,2.44 0 0 0 -1,1.21a7,7 0 0 0 -0.37,2.28l0.08,0a2.1,2.1 0 0 1 2,-1.45a2.24,2.24 0 0 1 2,1.05a5.1,5.1 0 0 1 0.7,2.89a5.31,5.31 0 0 1 -0.84,3.16a2.88,2.88 0 0 1 -4.12,0.52a3.94,3.94 0 0 1 -1.2,-1.82a9.22,9.22 0 0 1 -0.39,-2.96zm3.39,3.36a1,1 0 0 0 1,-0.57a3.11,3.11 0 0 0 0.34,-1.61a2.8,2.8 0 0 0 -0.34,-1.47a1,1 0 0 0 -1,-0.52a1.29,1.29 0 0 0 -1,0.52a1.86,1.86 0 0 0 -0.42,1.21a3.38,3.38 0 0 0 0.42,1.79a1.15,1.15 0 0 0 1,0.65z" id="svg_29"/>
  <path class="cls-20" d="m31.32,103.22a2.55,2.55 0 0 1 -0.84,2a3.6,3.6 0 0 1 -2.38,0.78l-0.76,0l0,3l-1.76,0l0,-8.3l2.65,0a3.49,3.49 0 0 1 2.3,0.65a2.35,2.35 0 0 1 0.79,1.87zm-4,1.31l0.58,0a1.91,1.91 0 0 0 1.22,-0.32a1.1,1.1 0 0 0 0.4,-0.93a1.16,1.16 0 0 0 -0.34,-0.92a1.62,1.62 0 0 0 -1.06,-0.29l-0.8,0l0,2.46z" id="svg_51"/>
  <path class="cls-20" d="m34.65,105.74l0,3.19l-1.76,0l0,-8.3l2.42,0a4.13,4.13 0 0 1 2.5,0.61a2.19,2.19 0 0 1 0.82,1.87a2.22,2.22 0 0 1 -0.41,1.31a2.64,2.64 0 0 1 -1.14,0.89c1.25,1.87 2.07,3.08 2.44,3.62l-2,0l-2,-3.19l-0.87,0zm0,-1.43l0.57,0a2.13,2.13 0 0 0 1.23,-0.31a1,1 0 0 0 0.4,-0.87a0.92,0.92 0 0 0 -0.41,-0.84a2.43,2.43 0 0 0 -1.26,-0.25l-0.53,0l0,2.27z" id="svg_52"/>
  <path class="cls-20" d="m45.35,108.93l-4.78,0l0,-8.3l4.78,0l0,1.44l-3,0l0,1.82l2.81,0l0,1.45l-2.83,0l0,2.14l3,0l0.02,1.45z" id="svg_53"/>
  <path class="cls-20" d="m52,106.63a2.14,2.14 0 0 1 -0.81,1.77a3.52,3.52 0 0 1 -2.25,0.65a5.39,5.39 0 0 1 -2.36,-0.5l0,-1.64a9.42,9.42 0 0 0 1.43,0.53a4.28,4.28 0 0 0 1.06,0.15a1.48,1.48 0 0 0 0.89,-0.22a0.76,0.76 0 0 0 0.31,-0.66a0.65,0.65 0 0 0 -0.14,-0.43a1.45,1.45 0 0 0 -0.4,-0.37a8.13,8.13 0 0 0 -1.07,-0.56a5,5 0 0 1 -1.14,-0.69a2.5,2.5 0 0 1 -0.61,-0.77a2.19,2.19 0 0 1 -0.23,-1a2.14,2.14 0 0 1 0.75,-1.73a3.09,3.09 0 0 1 2.06,-0.63a5,5 0 0 1 1.24,0.15a9.08,9.08 0 0 1 1.23,0.43l-0.57,1.37a8.11,8.11 0 0 0 -1.1,-0.38a3.61,3.61 0 0 0 -0.85,-0.11a1.11,1.11 0 0 0 -0.77,0.24a0.74,0.74 0 0 0 -0.27,0.6a0.78,0.78 0 0 0 0.11,0.41a1.22,1.22 0 0 0 0.34,0.34c0.16,0.1 0.53,0.3 1.12,0.58a4.47,4.47 0 0 1 1.6,1.11a2.25,2.25 0 0 1 0.43,1.36z" id="svg_54"/>
  <path class="cls-20" d="m58.28,108.93l-4.79,0l0,-8.3l4.79,0l0,1.44l-3,0l0,1.82l2.82,0l0,1.45l-2.85,0l0,2.14l3,0l0.03,1.45z" id="svg_55"/>
  <path class="cls-20" d="m67.38,108.93l-2.24,0l-3.61,-6.28l-0.05,0c0.07,1.11 0.1,1.9 0.1,2.37l0,3.91l-1.58,0l0,-8.3l2.22,0l3.61,6.22l0,0c-0.06,-1.08 -0.09,-1.85 -0.09,-2.29l0,-3.93l1.59,0l0.05,8.3z" id="svg_56"/>
  <path class="cls-20" d="m72.67,108.93l-1.76,0l0,-6.84l-2.25,0l0,-1.46l6.27,0l0,1.46l-2.26,0l0,6.84z" id="svg_57"/>
  <path class="cls-20" d="m81.29,108.93l-0.6,-2l-3,0l-0.6,2l-1.9,0l2.93,-8.34l2.16,0l2.94,8.34l-1.93,0zm-1,-3.45c-0.56,-1.79 -0.87,-2.81 -0.94,-3s-0.12,-0.42 -0.15,-0.56c-0.13,0.49 -0.48,1.68 -1.07,3.6l2.16,-0.04z" id="svg_58"/>
  <path class="cls-20" d="m87.44,108.93l-1.76,0l0,-6.84l-2.26,0l0,-1.46l6.27,0l0,1.46l-2.25,0l0,6.84z" id="svg_59"/>
  <path class="cls-20" d="m91,108.93l0,-8.3l1.76,0l0,8.3l-1.76,0z" id="svg_60"/>
  <path class="cls-20" d="m102.36,104.77a4.52,4.52 0 0 1 -1,3.17a4.42,4.42 0 0 1 -5.86,0a4.53,4.53 0 0 1 -1,-3.18a4.47,4.47 0 0 1 1,-3.17a3.82,3.82 0 0 1 2.94,-1.09a3.77,3.77 0 0 1 2.93,1.1a4.49,4.49 0 0 1 0.99,3.17zm-6.06,0a3.46,3.46 0 0 0 0.53,2.09a1.85,1.85 0 0 0 1.58,0.71c1.4,0 2.11,-0.93 2.11,-2.8s-0.7,-2.77 -2.1,-2.77a1.85,1.85 0 0 0 -1.58,0.71a3.42,3.42 0 0 0 -0.54,2.06z" id="svg_61"/>
  <path class="cls-20" d="m111.45,108.93l-2.23,0l-3.62,-6.28l0,0c0.07,1.11 0.11,1.9 0.11,2.37l0,3.91l-1.58,0l0,-8.3l2.23,0l3.6,6.22l0,0c0,-1.08 -0.08,-1.85 -0.08,-2.29l0,-3.93l1.58,0l-0.01,8.3z" id="svg_62"/>
  <path class="cls-20" d="m116.57,108.93l0,-8.3l1.76,0l0,6.85l3.37,0l0,1.45l-5.13,0z" id="svg_63"/>
  <path class="cls-20" d="m128.22,108.93l-0.6,-2l-3,0l-0.6,2l-1.9,0l2.88,-8.34l2.15,0l2.94,8.34l-1.87,0zm-1,-3.45c-0.55,-1.79 -0.87,-2.81 -0.94,-3s-0.12,-0.42 -0.15,-0.56c-0.12,0.49 -0.48,1.68 -1.07,3.6l2.16,-0.04z" id="svg_64"/>
  <path class="cls-20" d="m133.75,104.05l1.74,-3.42l1.89,0l-2.75,5.07l0,3.23l-1.75,0l0,-3.17l-2.76,-5.13l1.88,0l1.75,3.42z" id="svg_65"/>
  <path class="cls-20" d="m143.21,108.93l-4.78,0l0,-8.3l4.78,0l0,1.44l-3,0l0,1.82l2.79,0l0,1.45l-2.81,0l0,2.14l3,0l0.02,1.45z" id="svg_66"/>
  <path class="cls-20" d="m146.71,105.74l0,3.19l-1.77,0l0,-8.3l2.43,0a4.15,4.15 0 0 1 2.5,0.61a2.47,2.47 0 0 1 0.41,3.18a2.64,2.64 0 0 1 -1.14,0.89q1.88,2.81 2.44,3.62l-2,0l-2,-3.19l-0.87,0zm0,-1.43l0.56,0a2.17,2.17 0 0 0 1.24,-0.28a1,1 0 0 0 0.39,-0.87a0.91,0.91 0 0 0 -0.4,-0.84a2.43,2.43 0 0 0 -1.26,-0.25l-0.53,0l0,2.24z" id="svg_67"/>
  <path class="cls-21" d="m235.37,96l-6,0l0,-10.66l6,0l0,1.1l-4.73,0l0,3.45l4.44,0l0,1.11l-4.44,0l0,3.94l4.73,0l0,1.06z" id="svg_207"/>
  <path class="cls-21" d="m242.83,96l0,-5.15a2.08,2.08 0 0 0 -0.45,-1.46a1.77,1.77 0 0 0 -1.38,-0.49a2.33,2.33 0 0 0 -1.85,0.68a3.47,3.47 0 0 0 -0.59,2.25l0,4.17l-1.21,0l0,-8l1,0l0.19,1.1l0.06,0a2.42,2.42 0 0 1 1,-0.92a3.37,3.37 0 0 1 1.5,-0.33a3,3 0 0 1 2.18,0.7a3,3 0 0 1 0.74,2.24l0,5.21l-1.19,0z" id="svg_208"/>
  <path class="cls-21" d="m251.6,93.85a2,2 0 0 1 -0.84,1.73a3.88,3.88 0 0 1 -2.34,0.61a5,5 0 0 1 -2.49,-0.51l0,-1.12a6.1,6.1 0 0 0 1.24,0.46a5.3,5.3 0 0 0 1.28,0.17a2.81,2.81 0 0 0 1.46,-0.31a1,1 0 0 0 0.51,-0.92a1,1 0 0 0 -0.4,-0.81a6.38,6.38 0 0 0 -1.59,-0.78a8.55,8.55 0 0 1 -1.59,-0.73a2.05,2.05 0 0 1 -0.7,-0.71a1.77,1.77 0 0 1 -0.23,-0.94a1.8,1.8 0 0 1 0.79,-1.55a3.74,3.74 0 0 1 2.19,-0.57a6.46,6.46 0 0 1 2.54,0.53l-0.43,1a5.9,5.9 0 0 0 -2.19,-0.5a2.54,2.54 0 0 0 -1.31,0.27a0.85,0.85 0 0 0 -0.44,0.75a0.92,0.92 0 0 0 0.17,0.55a1.62,1.62 0 0 0 0.53,0.43a13.27,13.27 0 0 0 1.4,0.59a5.21,5.21 0 0 1 1.93,1a1.82,1.82 0 0 1 0.51,1.36z" id="svg_209"/>
  <path class="cls-21" d="m254.6,88l0,5.2a2.09,2.09 0 0 0 0.45,1.47a1.81,1.81 0 0 0 1.4,0.48a2.28,2.28 0 0 0 1.84,-0.69a3.42,3.42 0 0 0 0.58,-2.24l0,-4.22l1.22,0l0,8l-1,0l-0.18,-1l-0.07,0a2.43,2.43 0 0 1 -1,0.91a3.45,3.45 0 0 1 -1.51,0.31a3.08,3.08 0 0 1 -2.19,-0.69a3,3 0 0 1 -0.73,-2.23l0,-5.3l1.19,0z" id="svg_210"/>
  <path class="cls-21" d="m266.2,87.87a4.61,4.61 0 0 1 1,0.09l-0.2,1.13a3.7,3.7 0 0 0 -0.88,-0.11a2.12,2.12 0 0 0 -1.66,0.79a2.83,2.83 0 0 0 -0.7,2l0,4.23l-1.21,0l0,-8l1,0l0.14,1.48l0.06,0a3.52,3.52 0 0 1 1.08,-1.2a2.37,2.37 0 0 1 1.37,-0.41z" id="svg_211"/>
  <path class="cls-21" d="m271.9,96.19a3.71,3.71 0 0 1 -2.81,-1.08a4.24,4.24 0 0 1 -1,-3a4.64,4.64 0 0 1 0.91,-3.11a3.18,3.18 0 0 1 2.57,-1.14a3,3 0 0 1 2.39,1a3.84,3.84 0 0 1 0.88,2.62l0,0.77l-5.53,0a3.19,3.19 0 0 0 0.69,2.15a2.47,2.47 0 0 0 1.91,0.73a6.47,6.47 0 0 0 2.56,-0.54l0,1.08a6.18,6.18 0 0 1 -1.22,0.4a6.84,6.84 0 0 1 -1.35,0.12zm-0.33,-7.3a2,2 0 0 0 -1.54,0.63a2.93,2.93 0 0 0 -0.68,1.74l4.2,0a2.7,2.7 0 0 0 -0.55,-1.76a1.8,1.8 0 0 0 -1.43,-0.61z" id="svg_212"/>
  <path class="cls-21" d="m282.11,93.85a2,2 0 0 1 -0.84,1.73a3.88,3.88 0 0 1 -2.34,0.61a5,5 0 0 1 -2.49,-0.51l0,-1.12a6.1,6.1 0 0 0 1.24,0.46a5.3,5.3 0 0 0 1.28,0.17a2.81,2.81 0 0 0 1.46,-0.31a1,1 0 0 0 0.51,-0.92a1,1 0 0 0 -0.4,-0.81a6.38,6.38 0 0 0 -1.59,-0.78a8.88,8.88 0 0 1 -1.59,-0.73a2.15,2.15 0 0 1 -0.7,-0.71a1.77,1.77 0 0 1 -0.23,-0.94a1.8,1.8 0 0 1 0.79,-1.55a3.74,3.74 0 0 1 2.19,-0.57a6.46,6.46 0 0 1 2.54,0.53l-0.43,1a5.9,5.9 0 0 0 -2.19,-0.5a2.56,2.56 0 0 0 -1.31,0.27a0.85,0.85 0 0 0 -0.44,0.75a0.92,0.92 0 0 0 0.17,0.55a1.62,1.62 0 0 0 0.53,0.43a13.27,13.27 0 0 0 1.4,0.59a5.37,5.37 0 0 1 1.94,1a1.85,1.85 0 0 1 0.5,1.36z" id="svg_213"/>
  <path class="cls-21" d="m290.57,95.19a4.23,4.23 0 0 0 0.63,0a2.66,2.66 0 0 0 0.47,-0.1l0,0.91a2.2,2.2 0 0 1 -0.58,0.16a4.6,4.6 0 0 1 -0.69,0.06c-1.55,0 -2.33,-0.82 -2.33,-2.45l0,-4.77l-1.15,0l0,-0.58l1.15,-0.51l0.51,-1.71l0.71,0l0,1.8l2.32,0l0,1l-2.32,0l0,4.73a1.62,1.62 0 0 0 0.34,1.11a1.19,1.19 0 0 0 0.94,0.35z" id="svg_214"/>
  <path class="cls-21" d="m298.8,96l0,-5.15a2.12,2.12 0 0 0 -0.44,-1.46a1.81,1.81 0 0 0 -1.4,-0.49a2.29,2.29 0 0 0 -1.85,0.69a3.48,3.48 0 0 0 -0.58,2.26l0,4.15l-1.22,0l0,-11.35l1.22,0l0,3.45a7.32,7.32 0 0 1 -0.06,1l0.07,0a2.44,2.44 0 0 1 1,-0.91a3.37,3.37 0 0 1 1.52,-0.33a3.1,3.1 0 0 1 2.2,0.69a3,3 0 0 1 0.74,2.23l0,5.22l-1.2,0z" id="svg_215"/>
  <path class="cls-21" d="m307.34,96l-0.24,-1.14l-0.1,0a3.3,3.3 0 0 1 -1.2,1a3.61,3.61 0 0 1 -1.49,0.27a2.68,2.68 0 0 1 -1.87,-0.61a2.26,2.26 0 0 1 -0.68,-1.75q0,-2.44 3.89,-2.55l1.36,0l0,-0.5a2,2 0 0 0 -0.4,-1.39a1.68,1.68 0 0 0 -1.3,-0.45a5.26,5.26 0 0 0 -2.27,0.61l-0.38,-0.93a5.94,5.94 0 0 1 1.3,-0.5a5.76,5.76 0 0 1 1.42,-0.18a3.08,3.08 0 0 1 2.13,0.63a2.68,2.68 0 0 1 0.69,2l0,5.49l-0.86,0zm-2.75,-0.85a2.47,2.47 0 0 0 1.79,-0.63a2.29,2.29 0 0 0 0.64,-1.74l0,-0.68l-1.21,0.05a4.32,4.32 0 0 0 -2.09,0.45a1.34,1.34 0 0 0 -0.64,1.24a1.23,1.23 0 0 0 0.4,1a1.62,1.62 0 0 0 1.11,0.35l0,-0.04z" id="svg_216"/>
  <path class="cls-21" d="m313.32,95.19a4.1,4.1 0 0 0 0.62,0a3,3 0 0 0 0.48,-0.1l0,0.91a2.32,2.32 0 0 1 -0.58,0.16a4.62,4.62 0 0 1 -0.7,0.06c-1.55,0 -2.32,-0.82 -2.32,-2.45l0,-4.77l-1.15,0l0,-0.58l1.15,-0.51l0.51,-1.71l0.7,0l0,1.8l2.33,0l0,1l-2.36,0l0,4.73a1.62,1.62 0 0 0 0.35,1.11a1.17,1.17 0 0 0 0.97,0.35z" id="svg_217"/>
  <path class="cls-21" d="m325.38,95l-0.06,0a2.88,2.88 0 0 1 -2.52,1.22a3,3 0 0 1 -2.45,-1.08a4.67,4.67 0 0 1 -0.88,-3.06a4.79,4.79 0 0 1 0.88,-3.08a3,3 0 0 1 2.45,-1.1a2.91,2.91 0 0 1 2.5,1.19l0.1,0l0,-0.58l0,-0.57l0,-3.29l1.21,0l0,11.35l-1,0l-0.23,-1zm-2.43,0.2a2.24,2.24 0 0 0 1.81,-0.67a3.49,3.49 0 0 0 0.56,-2.19l0,-0.26a4,4 0 0 0 -0.57,-2.43a2.14,2.14 0 0 0 -1.81,-0.73a1.87,1.87 0 0 0 -1.64,0.83a4.12,4.12 0 0 0 -0.57,2.35a3.93,3.93 0 0 0 0.57,2.32a1.89,1.89 0 0 0 1.7,0.75l-0.05,0.03z" id="svg_218"/>
  <path class="cls-21" d="m333.89,96l-0.24,-1.14l-0.06,0a3.3,3.3 0 0 1 -1.2,1a3.61,3.61 0 0 1 -1.49,0.27a2.67,2.67 0 0 1 -1.87,-0.61a2.26,2.26 0 0 1 -0.68,-1.75q0,-2.44 3.89,-2.55l1.36,0l0,-0.5a2,2 0 0 0 -0.4,-1.39a1.69,1.69 0 0 0 -1.3,-0.45a5.34,5.34 0 0 0 -2.28,0.61l-0.37,-0.93a5.94,5.94 0 0 1 1.3,-0.5a5.76,5.76 0 0 1 1.42,-0.18a3.1,3.1 0 0 1 2.13,0.63a2.68,2.68 0 0 1 0.69,2l0,5.49l-0.9,0zm-2.75,-0.85a2.43,2.43 0 0 0 1.78,-0.63a2.26,2.26 0 0 0 0.65,-1.74l0,-0.68l-1.21,0.05a4.29,4.29 0 0 0 -2.09,0.45a1.35,1.35 0 0 0 -0.65,1.24a1.27,1.27 0 0 0 0.4,1a1.67,1.67 0 0 0 1.12,0.35l0,-0.04z" id="svg_219"/>
  <path class="cls-21" d="m339.87,95.19a4.21,4.21 0 0 0 0.62,0a3,3 0 0 0 0.51,-0.19l0,1a2.42,2.42 0 0 1 -0.59,0.16a4.39,4.39 0 0 1 -0.69,0.06c-1.55,0 -2.33,-0.82 -2.33,-2.45l0,-4.77l-1.15,0l0,-0.58l1.15,-0.51l0.52,-1.71l0.7,0l0,1.8l2.33,0l0,1l-2.33,0l0,4.73a1.62,1.62 0 0 0 0.34,1.11a1.21,1.21 0 0 0 0.92,0.35z" id="svg_220"/>
  <path class="cls-21" d="m347.75,96l-0.24,-1.14l-0.06,0a3.3,3.3 0 0 1 -1.2,1a3.58,3.58 0 0 1 -1.49,0.27a2.68,2.68 0 0 1 -1.87,-0.61a2.25,2.25 0 0 1 -0.67,-1.75c0,-1.63 1.29,-2.48 3.89,-2.55l1.36,0l0,-0.5a2,2 0 0 0 -0.41,-1.39a1.67,1.67 0 0 0 -1.3,-0.45a5.26,5.26 0 0 0 -2.27,0.61l-0.37,-0.93a5.76,5.76 0 0 1 1.3,-0.5a5.68,5.68 0 0 1 1.41,-0.18a3.08,3.08 0 0 1 2.13,0.63a2.68,2.68 0 0 1 0.69,2l0,5.49l-0.9,0zm-2.75,-0.81a2.45,2.45 0 0 0 1.78,-0.63a2.29,2.29 0 0 0 0.65,-1.74l0,-0.72l-1.22,0.05a4.35,4.35 0 0 0 -2.09,0.45a1.34,1.34 0 0 0 -0.64,1.24a1.23,1.23 0 0 0 0.4,1a1.67,1.67 0 0 0 1.12,0.35z" id="svg_221"/>
  <path class="cls-21" d="m355,85.84a0.79,0.79 0 0 1 0.21,-0.61a0.69,0.69 0 0 1 0.51,-0.19a0.74,0.74 0 0 1 0.51,0.19a0.82,0.82 0 0 1 0.21,0.61a0.79,0.79 0 0 1 -0.21,0.61a0.7,0.7 0 0 1 -0.51,0.2a0.66,0.66 0 0 1 -0.51,-0.2a0.79,0.79 0 0 1 -0.21,-0.61zm1.27,10.16l-1.22,0l0,-8l1.22,0l0,8z" id="svg_222"/>
  <path class="cls-21" d="m363.88,93.85a2,2 0 0 1 -0.83,1.73a3.91,3.91 0 0 1 -2.35,0.61a5.08,5.08 0 0 1 -2.49,-0.51l0,-1.12a6.33,6.33 0 0 0 1.24,0.46a5.37,5.37 0 0 0 1.28,0.17a2.85,2.85 0 0 0 1.47,-0.31a1,1 0 0 0 0.51,-0.92a1,1 0 0 0 -0.41,-0.81a6.46,6.46 0 0 0 -1.58,-0.78a8.71,8.71 0 0 1 -1.6,-0.73a2.25,2.25 0 0 1 -0.7,-0.71a1.87,1.87 0 0 1 -0.23,-0.94a1.8,1.8 0 0 1 0.8,-1.55a3.7,3.7 0 0 1 2.19,-0.57a6.41,6.41 0 0 1 2.53,0.53l-0.43,1a5.86,5.86 0 0 0 -2.19,-0.5a2.5,2.5 0 0 0 -1.3,0.27a0.83,0.83 0 0 0 -0.44,0.75a0.92,0.92 0 0 0 0.16,0.55a1.73,1.73 0 0 0 0.53,0.43a14.83,14.83 0 0 0 1.41,0.59a5.39,5.39 0 0 1 1.93,1a1.85,1.85 0 0 1 0.5,1.36z" id="svg_223"/>
  <path class="cls-21" d="m369.65,85.84a0.79,0.79 0 0 1 0.21,-0.61a0.7,0.7 0 0 1 0.51,-0.19a0.74,0.74 0 0 1 0.51,0.19a0.82,0.82 0 0 1 0.21,0.61a0.79,0.79 0 0 1 -0.21,0.61a0.7,0.7 0 0 1 -0.51,0.2a0.67,0.67 0 0 1 -0.51,-0.2a0.79,0.79 0 0 1 -0.21,-0.61zm1.35,10.16l-1.22,0l0,-8l1.22,0l0,8z" id="svg_224"/>
  <path class="cls-21" d="m378.91,96l0,-5.15a2.08,2.08 0 0 0 -0.45,-1.46a1.77,1.77 0 0 0 -1.39,-0.49a2.33,2.33 0 0 0 -1.85,0.68a3.47,3.47 0 0 0 -0.59,2.25l0,4.17l-1.21,0l0,-8l1,0l0.19,1.1l0.06,0a2.42,2.42 0 0 1 1,-0.92a3.37,3.37 0 0 1 1.5,-0.33a3,3 0 0 1 2.18,0.7a3,3 0 0 1 0.74,2.24l0,5.21l-1.18,0z" id="svg_225"/>
  <path class="cls-21" d="m391.46,96l-0.24,-1.14l-0.06,0a3.3,3.3 0 0 1 -1.2,1a3.64,3.64 0 0 1 -1.49,0.27a2.67,2.67 0 0 1 -1.87,-0.61a2.26,2.26 0 0 1 -0.68,-1.75q0,-2.44 3.89,-2.55l1.36,0l0,-0.5a2,2 0 0 0 -0.41,-1.39a1.67,1.67 0 0 0 -1.3,-0.45a5.33,5.33 0 0 0 -2.27,0.61l-0.37,-0.93a5.94,5.94 0 0 1 1.3,-0.5a5.7,5.7 0 0 1 1.42,-0.18a3.1,3.1 0 0 1 2.13,0.63a2.68,2.68 0 0 1 0.69,2l0,5.49l-0.9,0zm-2.75,-0.85a2.43,2.43 0 0 0 1.78,-0.63a2.26,2.26 0 0 0 0.65,-1.74l0,-0.68l-1.21,0.05a4.37,4.37 0 0 0 -2.1,0.45a1.36,1.36 0 0 0 -0.64,1.24a1.27,1.27 0 0 0 0.4,1a1.67,1.67 0 0 0 1.12,0.35l0,-0.04z" id="svg_226"/>
  <path class="cls-21" d="m399.9,88l0,5.2a2.09,2.09 0 0 0 0.45,1.47a1.83,1.83 0 0 0 1.4,0.48a2.28,2.28 0 0 0 1.84,-0.69a3.42,3.42 0 0 0 0.58,-2.24l0,-4.22l1.22,0l0,8l-1,0l-0.18,-1l-0.07,0a2.46,2.46 0 0 1 -1,0.91a3.53,3.53 0 0 1 -1.52,0.31a3.09,3.09 0 0 1 -2.19,-0.69a3,3 0 0 1 -0.73,-2.23l0,-5.3l1.2,0z" id="svg_227"/>
  <path class="cls-21" d="m413.05,93.85a2,2 0 0 1 -0.83,1.73a3.9,3.9 0 0 1 -2.34,0.61a5,5 0 0 1 -2.49,-0.51l0,-1.12a5.88,5.88 0 0 0 1.24,0.46a5.3,5.3 0 0 0 1.28,0.17a2.81,2.81 0 0 0 1.46,-0.31a1,1 0 0 0 0.51,-0.92a1,1 0 0 0 -0.4,-0.81a6.38,6.38 0 0 0 -1.59,-0.78a8.24,8.24 0 0 1 -1.59,-0.73a2.18,2.18 0 0 1 -0.71,-0.71a1.87,1.87 0 0 1 -0.23,-0.94a1.8,1.8 0 0 1 0.8,-1.55a3.7,3.7 0 0 1 2.19,-0.57a6.46,6.46 0 0 1 2.54,0.53l-0.44,1a5.82,5.82 0 0 0 -2.19,-0.5a2.52,2.52 0 0 0 -1.3,0.27a0.85,0.85 0 0 0 -0.44,0.75a0.92,0.92 0 0 0 0.17,0.55a1.52,1.52 0 0 0 0.53,0.43a13.27,13.27 0 0 0 1.4,0.59a5.21,5.21 0 0 1 1.93,1a1.81,1.81 0 0 1 0.5,1.36z" id="svg_228"/>
  <path class="cls-21" d="m420.12,96l-0.24,-1.14l-0.06,0a3.3,3.3 0 0 1 -1.2,1a3.64,3.64 0 0 1 -1.49,0.27a2.67,2.67 0 0 1 -1.87,-0.61a2.26,2.26 0 0 1 -0.68,-1.75q0,-2.44 3.89,-2.55l1.36,0l0,-0.5a2,2 0 0 0 -0.41,-1.39a1.67,1.67 0 0 0 -1.3,-0.45a5.33,5.33 0 0 0 -2.27,0.61l-0.37,-0.93a5.94,5.94 0 0 1 1.3,-0.5a5.7,5.7 0 0 1 1.42,-0.18a3.1,3.1 0 0 1 2.13,0.63a2.68,2.68 0 0 1 0.69,2l0,5.49l-0.9,0zm-2.75,-0.85a2.43,2.43 0 0 0 1.78,-0.63a2.26,2.26 0 0 0 0.65,-1.74l0,-0.68l-1.21,0.05a4.29,4.29 0 0 0 -2.09,0.45a1.35,1.35 0 0 0 -0.65,1.24a1.27,1.27 0 0 0 0.4,1a1.67,1.67 0 0 0 1.12,0.35l0,-0.04z" id="svg_229"/>
  <path class="cls-21" d="m427.17,87.89a3,3 0 0 1 2.45,1.11a4.68,4.68 0 0 1 0.88,3a4.85,4.85 0 0 1 -0.88,3.08a3,3 0 0 1 -2.45,1.09a3.56,3.56 0 0 1 -1.44,-0.29a2.65,2.65 0 0 1 -1.08,-0.89l-0.09,0l-0.26,1l-0.87,0l0,-11.34l1.22,0l0,2.77c0,0.62 0,1.17 -0.06,1.67l0.06,0a2.87,2.87 0 0 1 2.52,-1.2zm-0.18,1a2.1,2.1 0 0 0 -1.79,0.72a5.51,5.51 0 0 0 0,4.82a2.13,2.13 0 0 0 1.81,0.73a1.88,1.88 0 0 0 1.67,-0.81a4.27,4.27 0 0 0 0.55,-2.35a4.08,4.08 0 0 0 -0.55,-2.34a2,2 0 0 0 -1.68,-0.76l-0.01,-0.01z" id="svg_230"/>
  <path class="cls-21" d="m433.79,96l-1.22,0l0,-11.35l1.22,0l0,11.35z" id="svg_231"/>
  <path class="cls-21" d="m439.69,96.19a3.7,3.7 0 0 1 -2.81,-1.08a4.24,4.24 0 0 1 -1,-3a4.64,4.64 0 0 1 1,-3.09a3.18,3.18 0 0 1 2.57,-1.14a3,3 0 0 1 2.38,1a3.79,3.79 0 0 1 0.88,2.62l0,0.77l-5.53,0a3.19,3.19 0 0 0 0.72,2.15a2.44,2.44 0 0 0 1.9,0.73a6.52,6.52 0 0 0 2.57,-0.54l0,1.08a6.18,6.18 0 0 1 -1.22,0.4a7,7 0 0 1 -1.46,0.1zm-0.33,-7.3a2,2 0 0 0 -1.54,0.63a2.93,2.93 0 0 0 -0.68,1.74l4.2,0a2.7,2.7 0 0 0 -0.51,-1.76a1.81,1.81 0 0 0 -1.47,-0.61z" id="svg_232"/>
  <path class="cls-21" d="m452.23,89l-2.05,0l0,7l-1.18,0l0,-7l-1.44,0l0,-0.55l1.44,-0.45l0,-0.44c0,-2 0.86,-3 2.58,-3a5.32,5.32 0 0 1 1.5,0.25l-0.32,1a4.09,4.09 0 0 0 -1.2,-0.23a1.16,1.16 0 0 0 -1,0.46a2.53,2.53 0 0 0 -0.33,1.47l0,0.49l2.05,0l-0.05,1z" id="svg_233"/>
  <path class="cls-21" d="m460.53,92a4.44,4.44 0 0 1 -1,3.07a3.5,3.5 0 0 1 -2.73,1.1a3.59,3.59 0 0 1 -1.91,-0.51a3.29,3.29 0 0 1 -1.29,-1.44a5.15,5.15 0 0 1 -0.45,-2.22a4.39,4.39 0 0 1 1,-3a3.46,3.46 0 0 1 2.72,-1.1a3.39,3.39 0 0 1 2.67,1.1a4.42,4.42 0 0 1 0.99,3zm-6.11,0a3.83,3.83 0 0 0 0.61,2.35a2.15,2.15 0 0 0 1.81,0.8a2.12,2.12 0 0 0 1.81,-0.8a3.74,3.74 0 0 0 0.62,-2.35a3.67,3.67 0 0 0 -0.62,-2.32a2.17,2.17 0 0 0 -1.82,-0.8a2.14,2.14 0 0 0 -1.81,0.79a3.79,3.79 0 0 0 -0.6,2.33z" id="svg_234"/>
  <path class="cls-21" d="m466.25,87.87a4.61,4.61 0 0 1 1,0.09l-0.25,1.13a3.7,3.7 0 0 0 -0.88,-0.11a2.12,2.12 0 0 0 -1.66,0.79a2.83,2.83 0 0 0 -0.7,2l0,4.23l-1.21,0l0,-8l1,0l0.14,1.48l0.06,0a3.52,3.52 0 0 1 1.08,-1.2a2.37,2.37 0 0 1 1.42,-0.41z" id="svg_235"/>
  <path class="cls-21" d="m479,96l0,-5.18a2.19,2.19 0 0 0 -0.41,-1.44a1.59,1.59 0 0 0 -1.28,-0.48a2,2 0 0 0 -1.67,0.66a3.08,3.08 0 0 0 -0.54,2l0,4.44l-1.22,0l0,-5.18a2.19,2.19 0 0 0 -0.41,-1.44a1.59,1.59 0 0 0 -1.28,-0.48a2,2 0 0 0 -1.68,0.69a3.71,3.71 0 0 0 -0.53,2.24l0,4.17l-1.18,0l0,-8l1,0l0.19,1.1l0.01,0a2.39,2.39 0 0 1 1,-0.92a3,3 0 0 1 1.41,-0.33a2.39,2.39 0 0 1 2.46,1.36l0.06,0a2.43,2.43 0 0 1 1,-1a3.14,3.14 0 0 1 1.55,-0.37a2.7,2.7 0 0 1 2,0.7a3.14,3.14 0 0 1 0.68,2.24l0,5.22l-1.16,0z" id="svg_236"/>
  <path class="cls-21" d="m487.57,96l-0.24,-1.14l-0.06,0a3.3,3.3 0 0 1 -1.2,1a3.58,3.58 0 0 1 -1.49,0.27a2.68,2.68 0 0 1 -1.87,-0.61a2.26,2.26 0 0 1 -0.68,-1.75q0,-2.44 3.89,-2.55l1.37,0l0,-0.5a2,2 0 0 0 -0.41,-1.39a1.68,1.68 0 0 0 -1.3,-0.45a5.26,5.26 0 0 0 -2.27,0.61l-0.37,-0.93a5.58,5.58 0 0 1 1.3,-0.5a5.68,5.68 0 0 1 1.41,-0.18a3.08,3.08 0 0 1 2.13,0.63a2.68,2.68 0 0 1 0.69,2l0,5.49l-0.9,0zm-2.75,-0.85a2.46,2.46 0 0 0 1.79,-0.63a2.29,2.29 0 0 0 0.65,-1.74l0,-0.68l-1.22,0.05a4.32,4.32 0 0 0 -2.09,0.45a1.34,1.34 0 0 0 -0.64,1.24a1.23,1.23 0 0 0 0.4,1a1.64,1.64 0 0 0 1.11,0.35l0,-0.04z" id="svg_237"/>
  <path class="cls-21" d="m493.55,95.19a4.1,4.1 0 0 0 0.62,0a3,3 0 0 0 0.48,-0.1l0,0.91a2.32,2.32 0 0 1 -0.58,0.16a4.6,4.6 0 0 1 -0.69,0.06c-1.56,0 -2.33,-0.82 -2.33,-2.45l0,-4.77l-1.15,0l0,-0.58l1.15,-0.51l0.51,-1.71l0.7,0l0,1.8l2.33,0l0,1l-2.33,0l0,4.73a1.62,1.62 0 0 0 0.35,1.11a1.17,1.17 0 0 0 0.94,0.35z" id="svg_238"/>
  <path class="cls-21" d="m505.09,96l-0.25,-1.14l0,0a3.38,3.38 0 0 1 -1.2,1a3.64,3.64 0 0 1 -1.49,0.27a2.67,2.67 0 0 1 -1.87,-0.61a2.23,2.23 0 0 1 -0.68,-1.75c0,-1.63 1.29,-2.48 3.89,-2.55l1.36,0l0,-0.5a2,2 0 0 0 -0.41,-1.39a1.67,1.67 0 0 0 -1.3,-0.45a5.3,5.3 0 0 0 -2.27,0.61l-0.37,-0.93a5.87,5.87 0 0 1 2.72,-0.68a3.07,3.07 0 0 1 2.12,0.63a2.65,2.65 0 0 1 0.7,2l0,5.49l-0.95,0zm-2.75,-0.85a2.43,2.43 0 0 0 1.78,-0.63a2.29,2.29 0 0 0 0.65,-1.74l0,-0.68l-1.21,0.05a4.37,4.37 0 0 0 -2.1,0.45a1.36,1.36 0 0 0 -0.64,1.24a1.27,1.27 0 0 0 0.4,1a1.67,1.67 0 0 0 1.12,0.35l0,-0.04z" id="svg_239"/>
  <path class="cls-21" d="m513.89,96l0,-5.15a2.12,2.12 0 0 0 -0.44,-1.46a1.81,1.81 0 0 0 -1.4,-0.49a2.33,2.33 0 0 0 -1.85,0.68a3.47,3.47 0 0 0 -0.59,2.25l0,4.17l-1.21,0l0,-8l1,0l0.19,1.1l0.06,0a2.42,2.42 0 0 1 1.05,-0.92a3.37,3.37 0 0 1 1.5,-0.33a3,3 0 0 1 2.19,0.7a3,3 0 0 1 0.73,2.24l0,5.21l-1.23,0z" id="svg_240"/>
  <path class="cls-21" d="m523,95l0,0a2.86,2.86 0 0 1 -2.52,1.22a3,3 0 0 1 -2.48,-1.11a4.73,4.73 0 0 1 -0.88,-3.06a4.85,4.85 0 0 1 0.88,-3.05a3,3 0 0 1 2.45,-1.1a2.94,2.94 0 0 1 2.55,1.16l0.09,0l0,-0.58l0,-0.57l0,-3.26l1.22,0l0,11.35l-1,0l-0.31,-1zm-2.44,0.2a2.22,2.22 0 0 0 1.81,-0.67a3.49,3.49 0 0 0 0.56,-2.19l0,-0.26a4,4 0 0 0 -0.57,-2.43a2.14,2.14 0 0 0 -1.81,-0.73a1.88,1.88 0 0 0 -1.64,0.83a4.12,4.12 0 0 0 -0.57,2.35a3.93,3.93 0 0 0 0.57,2.32a1.92,1.92 0 0 0 1.69,0.75l-0.04,0.03z" id="svg_241"/>
  <path class="cls-21" d="m530.56,85.84a0.83,0.83 0 0 1 0.2,-0.61a0.73,0.73 0 0 1 0.52,-0.19a0.71,0.71 0 0 1 0.5,0.19a0.82,0.82 0 0 1 0.21,0.61a0.79,0.79 0 0 1 -0.21,0.61a0.68,0.68 0 0 1 -0.5,0.2a0.69,0.69 0 0 1 -0.52,-0.2a0.83,0.83 0 0 1 -0.2,-0.61zm1.32,10.16l-1.22,0l0,-8l1.22,0l0,8z" id="svg_242"/>
  <path class="cls-21" d="m539.49,93.85a2,2 0 0 1 -0.84,1.73a3.88,3.88 0 0 1 -2.34,0.61a5,5 0 0 1 -2.49,-0.51l0,-1.12a6.1,6.1 0 0 0 1.24,0.46a5.3,5.3 0 0 0 1.28,0.17a2.81,2.81 0 0 0 1.46,-0.31a1,1 0 0 0 0.51,-0.92a1,1 0 0 0 -0.4,-0.81a6.38,6.38 0 0 0 -1.59,-0.78a8.55,8.55 0 0 1 -1.59,-0.73a2.15,2.15 0 0 1 -0.7,-0.71a1.77,1.77 0 0 1 -0.23,-0.94a1.8,1.8 0 0 1 0.79,-1.55a3.74,3.74 0 0 1 2.19,-0.57a6.46,6.46 0 0 1 2.54,0.53l-0.43,1a5.9,5.9 0 0 0 -2.19,-0.5a2.56,2.56 0 0 0 -1.31,0.27a0.85,0.85 0 0 0 -0.44,0.75a0.92,0.92 0 0 0 0.17,0.55a1.62,1.62 0 0 0 0.53,0.43a13.27,13.27 0 0 0 1.4,0.59a5.37,5.37 0 0 1 1.94,1a1.85,1.85 0 0 1 0.5,1.36z" id="svg_243"/>
  <path class="cls-21" d="m235.77,114l-1.47,-4.7c-0.09,-0.29 -0.27,-1 -0.52,-2l-0.06,0q-0.3,1.29 -0.51,2l-1.52,4.7l-1.4,0l-2.2,-8l1.28,0c0.52,2 0.91,3.55 1.18,4.6a19.62,19.62 0 0 1 0.47,2.14l0.06,0c0,-0.28 0.14,-0.64 0.26,-1.08s0.22,-0.8 0.31,-1.06l1.47,-4.6l1.32,0l1.43,4.6a15.1,15.1 0 0 1 0.56,2.12l0.06,0a6.53,6.53 0 0 1 0.16,-0.81q0.12,-0.56 1.52,-5.91l1.26,0l-2.22,8l-1.44,0z" id="svg_244"/>
  <path class="cls-21" d="m246.49,114l0,-5.15a2.08,2.08 0 0 0 -0.45,-1.46a1.79,1.79 0 0 0 -1.4,-0.49a2.3,2.3 0 0 0 -1.85,0.69a3.54,3.54 0 0 0 -0.58,2.26l0,4.15l-1.21,0l0,-11.35l1.21,0l0,3.45a7.32,7.32 0 0 1 -0.06,1l0.08,0a2.38,2.38 0 0 1 1,-0.91a3.32,3.32 0 0 1 1.51,-0.33a3.13,3.13 0 0 1 2.21,0.69a3,3 0 0 1 0.73,2.23l0,5.22l-1.19,0z" id="svg_245"/>
  <path class="cls-21" d="m253.54,114.19a3.68,3.68 0 0 1 -2.81,-1.08a4.2,4.2 0 0 1 -1,-3a4.7,4.7 0 0 1 1,-3.09a3.19,3.19 0 0 1 2.57,-1.14a3,3 0 0 1 2.39,1a3.79,3.79 0 0 1 0.88,2.62l0,0.77l-5.57,0a3.19,3.19 0 0 0 0.71,2.15a2.47,2.47 0 0 0 1.91,0.73a6.47,6.47 0 0 0 2.56,-0.54l0,1.08a6,6 0 0 1 -1.22,0.4a6.81,6.81 0 0 1 -1.42,0.1zm-0.33,-7.3a2,2 0 0 0 -1.54,0.63a2.87,2.87 0 0 0 -0.68,1.74l4.19,0a2.7,2.7 0 0 0 -0.51,-1.76a1.79,1.79 0 0 0 -1.46,-0.61z" id="svg_246"/>
  <path class="cls-21" d="m262.16,105.87a4.75,4.75 0 0 1 1,0.09l-0.16,1.13a3.77,3.77 0 0 0 -0.88,-0.11a2.13,2.13 0 0 0 -1.67,0.79a2.87,2.87 0 0 0 -0.69,2l0,4.23l-1.26,0l0,-8l1,0l0.14,1.48l0.06,0a3.4,3.4 0 0 1 1.07,-1.2a2.38,2.38 0 0 1 1.39,-0.41z" id="svg_247"/>
  <path class="cls-21" d="m267.86,114.19a3.7,3.7 0 0 1 -2.81,-1.08a4.24,4.24 0 0 1 -1,-3a4.64,4.64 0 0 1 0.95,-3.11a3.18,3.18 0 0 1 2.57,-1.14a3,3 0 0 1 2.38,1a3.79,3.79 0 0 1 0.88,2.62l0,0.77l-5.53,0a3.19,3.19 0 0 0 0.7,2.15a2.45,2.45 0 0 0 1.91,0.73a6.5,6.5 0 0 0 2.56,-0.54l0,1.08a6.18,6.18 0 0 1 -1.22,0.4a6.91,6.91 0 0 1 -1.39,0.12zm-0.33,-7.3a2,2 0 0 0 -1.54,0.63a2.93,2.93 0 0 0 -0.68,1.74l4.2,0a2.7,2.7 0 0 0 -0.51,-1.76a1.81,1.81 0 0 0 -1.47,-0.61z" id="svg_248"/>
  <path class="cls-21" d="m282.25,113l-0.07,0a2.86,2.86 0 0 1 -2.52,1.22a3,3 0 0 1 -2.45,-1.08a4.73,4.73 0 0 1 -0.88,-3.06a4.85,4.85 0 0 1 0.88,-3.08a3,3 0 0 1 2.45,-1.1a2.94,2.94 0 0 1 2.51,1.19l0.09,0l-0.05,-0.58l0,-0.57l0,-3.29l1.22,0l0,11.35l-1,0l-0.18,-1zm-2.44,0.2a2.22,2.22 0 0 0 1.81,-0.67a3.49,3.49 0 0 0 0.56,-2.19l0,-0.26a4,4 0 0 0 -0.57,-2.43a2.14,2.14 0 0 0 -1.81,-0.73a1.88,1.88 0 0 0 -1.64,0.83a4.12,4.12 0 0 0 -0.57,2.35a3.93,3.93 0 0 0 0.57,2.32a1.92,1.92 0 0 0 1.65,0.75l0,0.03z" id="svg_249"/>
  <path class="cls-21" d="m290.75,114l-0.24,-1.14l-0.06,0a3.3,3.3 0 0 1 -1.2,1a3.58,3.58 0 0 1 -1.49,0.27a2.68,2.68 0 0 1 -1.87,-0.61a2.26,2.26 0 0 1 -0.68,-1.75q0,-2.44 3.89,-2.55l1.36,0l0,-0.5a2,2 0 0 0 -0.4,-1.39a1.68,1.68 0 0 0 -1.3,-0.45a5.26,5.26 0 0 0 -2.27,0.61l-0.37,-0.93a5.58,5.58 0 0 1 1.3,-0.5a5.68,5.68 0 0 1 1.41,-0.18a3.08,3.08 0 0 1 2.13,0.63a2.68,2.68 0 0 1 0.69,2l0,5.49l-0.9,0zm-2.75,-0.81a2.46,2.46 0 0 0 1.79,-0.63a2.29,2.29 0 0 0 0.65,-1.74l0,-0.72l-1.22,0.05a4.32,4.32 0 0 0 -2.09,0.45a1.34,1.34 0 0 0 -0.64,1.24a1.23,1.23 0 0 0 0.4,1a1.64,1.64 0 0 0 1.11,0.35z" id="svg_250"/>
  <path class="cls-21" d="m296.73,113.19a4.1,4.1 0 0 0 0.62,0a3,3 0 0 0 0.48,-0.1l0,0.91a2.32,2.32 0 0 1 -0.58,0.16a4.6,4.6 0 0 1 -0.69,0.06c-1.56,0 -2.33,-0.82 -2.33,-2.45l0,-4.77l-1.15,0l0,-0.58l1.15,-0.51l0.51,-1.71l0.7,0l0,1.8l2.33,0l0,1l-2.33,0l0,4.73a1.62,1.62 0 0 0 0.35,1.11a1.19,1.19 0 0 0 0.94,0.35z" id="svg_251"/>
  <path class="cls-21" d="m304.62,114l-0.24,-1.14l-0.06,0a3.3,3.3 0 0 1 -1.2,1a3.64,3.64 0 0 1 -1.49,0.27a2.67,2.67 0 0 1 -1.87,-0.61a2.23,2.23 0 0 1 -0.68,-1.75q0,-2.44 3.89,-2.55l1.36,0l0,-0.5a2,2 0 0 0 -0.41,-1.39a1.67,1.67 0 0 0 -1.3,-0.45a5.33,5.33 0 0 0 -2.27,0.61l-0.37,-0.93a5.94,5.94 0 0 1 1.3,-0.5a5.7,5.7 0 0 1 1.42,-0.18a3.11,3.11 0 0 1 2.13,0.63a2.68,2.68 0 0 1 0.69,2l0,5.49l-0.9,0zm-2.75,-0.85a2.43,2.43 0 0 0 1.78,-0.63a2.29,2.29 0 0 0 0.65,-1.74l0,-0.68l-1.21,0.05a4.37,4.37 0 0 0 -2.1,0.45a1.36,1.36 0 0 0 -0.64,1.24a1.27,1.27 0 0 0 0.4,1a1.67,1.67 0 0 0 1.12,0.35l0,-0.04z" id="svg_252"/>
  <path class="cls-21" d="m315.31,114.19a3.7,3.7 0 0 1 -2.81,-1.08a4.2,4.2 0 0 1 -1,-3a4.64,4.64 0 0 1 1,-3.09a3.16,3.16 0 0 1 2.5,-1.15a3,3 0 0 1 2.39,1a3.79,3.79 0 0 1 0.88,2.62l0,0.77l-5.53,0a3.14,3.14 0 0 0 0.72,2.15a2.44,2.44 0 0 0 1.9,0.73a6.52,6.52 0 0 0 2.57,-0.54l0,1.08a6.18,6.18 0 0 1 -1.22,0.4a7,7 0 0 1 -1.4,0.11zm-0.33,-7.3a2,2 0 0 0 -1.54,0.63a2.87,2.87 0 0 0 -0.68,1.74l4.24,0a2.64,2.64 0 0 0 -0.52,-1.76a1.79,1.79 0 0 0 -1.48,-0.61l-0.02,0z" id="svg_253"/>
  <path class="cls-21" d="m325.76,114l0,-5.15a2.08,2.08 0 0 0 -0.45,-1.46a1.77,1.77 0 0 0 -1.39,-0.49a2.33,2.33 0 0 0 -1.85,0.68a3.47,3.47 0 0 0 -0.59,2.25l0,4.17l-1.21,0l0,-8l1,0l0.19,1.1l0.06,0a2.42,2.42 0 0 1 1.05,-0.92a3.37,3.37 0 0 1 1.5,-0.33a3,3 0 0 1 2.18,0.7a3,3 0 0 1 0.74,2.24l0,5.21l-1.23,0z" id="svg_254"/>
  <path class="cls-21" d="m332.63,114.19a3.42,3.42 0 0 1 -2.7,-1.07a4.42,4.42 0 0 1 -1,-3a4.53,4.53 0 0 1 1,-3.11a3.51,3.51 0 0 1 2.77,-1.1a5,5 0 0 1 1.15,0.13a3.75,3.75 0 0 1 0.91,0.29l-0.37,1a5.34,5.34 0 0 0 -0.88,-0.27a4,4 0 0 0 -0.84,-0.1c-1.63,0 -2.45,1 -2.45,3.12a3.72,3.72 0 0 0 0.6,2.27a2.1,2.1 0 0 0 1.77,0.79a5.5,5.5 0 0 0 2,-0.43l0,1.07a4.32,4.32 0 0 1 -1.96,0.41z" id="svg_255"/>
  <path class="cls-21" d="m340.16,105.87a4.75,4.75 0 0 1 1,0.09l-0.16,1.13a3.77,3.77 0 0 0 -0.88,-0.11a2.13,2.13 0 0 0 -1.67,0.79a2.87,2.87 0 0 0 -0.69,2l0,4.23l-1.26,0l0,-8l1,0l0.14,1.48l0.06,0a3.4,3.4 0 0 1 1.07,-1.2a2.38,2.38 0 0 1 1.39,-0.41z" id="svg_256"/>
  <path class="cls-21" d="m342.07,106l1.31,0l1.75,4.58a16,16 0 0 1 0.72,2.26l0.06,0c0.06,-0.25 0.2,-0.68 0.4,-1.28s0.86,-2.46 2,-5.56l1.3,0l-3.45,9.14a4.53,4.53 0 0 1 -1.2,1.92a2.51,2.51 0 0 1 -1.68,0.57a4.59,4.59 0 0 1 -1.1,-0.13l0,-1a4.16,4.16 0 0 0 0.9,0.09a1.86,1.86 0 0 0 1.79,-1.41l0.45,-1.14l-3.25,-8.04z" id="svg_257"/>
  <path class="cls-21" d="m354.82,114.19a3.51,3.51 0 0 1 -1.43,-0.29a2.61,2.61 0 0 1 -1.09,-0.9l-0.09,0a10.64,10.64 0 0 1 0.09,1.34l0,3.3l-1.22,0l0,-11.64l1,0l0.17,1.1l0.06,0a2.82,2.82 0 0 1 1.09,-1a3.38,3.38 0 0 1 1.43,-0.29a3,3 0 0 1 2.45,1.19a5.82,5.82 0 0 1 0,6.14a3,3 0 0 1 -2.46,1.05zm-0.18,-7.29a2.17,2.17 0 0 0 -1.78,0.68a3.57,3.57 0 0 0 -0.56,2.17l0,0.25a4,4 0 0 0 0.56,2.42a2.14,2.14 0 0 0 1.81,0.73a1.87,1.87 0 0 0 1.63,-0.84a4,4 0 0 0 0.59,-2.32a3.85,3.85 0 0 0 -0.59,-2.3a1.92,1.92 0 0 0 -1.66,-0.79z" id="svg_258"/>
  <path class="cls-21" d="m362.8,113.19a4.21,4.21 0 0 0 0.62,0a3,3 0 0 0 0.48,-0.1l0,0.91a2.32,2.32 0 0 1 -0.58,0.16a4.62,4.62 0 0 1 -0.7,0.06c-1.55,0 -2.33,-0.82 -2.33,-2.45l0,-4.77l-1.15,0l0,-0.58l1.15,-0.51l0.52,-1.71l0.7,0l0,1.8l2.33,0l0,1l-2.33,0l0,4.73a1.57,1.57 0 0 0 0.35,1.11a1.17,1.17 0 0 0 0.94,0.35z" id="svg_259"/>
  <path class="cls-21" d="m365.44,103.84a0.79,0.79 0 0 1 0.2,-0.61a0.78,0.78 0 0 1 1,0a0.82,0.82 0 0 1 0.21,0.61a0.79,0.79 0 0 1 -0.21,0.61a0.75,0.75 0 0 1 -1,0a0.79,0.79 0 0 1 -0.2,-0.61zm1.31,10.16l-1.21,0l0,-8l1.21,0l0,8z" id="svg_260"/>
  <path class="cls-21" d="m376.14,110a4.44,4.44 0 0 1 -1,3.07a3.5,3.5 0 0 1 -2.73,1.1a3.57,3.57 0 0 1 -1.91,-0.51a3.29,3.29 0 0 1 -1.29,-1.44a5,5 0 0 1 -0.46,-2.22a4.44,4.44 0 0 1 1,-3a3.5,3.5 0 0 1 2.73,-1.1a3.41,3.41 0 0 1 2.67,1.1a4.42,4.42 0 0 1 0.99,3zm-6.14,0a3.83,3.83 0 0 0 0.62,2.35a2.45,2.45 0 0 0 3.62,0a3.81,3.81 0 0 0 0.62,-2.35a3.73,3.73 0 0 0 -0.62,-2.32a2.17,2.17 0 0 0 -1.83,-0.8a2.13,2.13 0 0 0 -1.8,0.79a3.72,3.72 0 0 0 -0.61,2.33z" id="svg_261"/>
  <path class="cls-21" d="m383.69,114l0,-5.15a2.08,2.08 0 0 0 -0.45,-1.46a1.79,1.79 0 0 0 -1.4,-0.49a2.31,2.31 0 0 0 -1.84,0.68a3.47,3.47 0 0 0 -0.59,2.25l0,4.17l-1.21,0l0,-8l1,0l0.2,1.1l0.06,0a2.42,2.42 0 0 1 1.05,-0.92a3.37,3.37 0 0 1 1.5,-0.33a3,3 0 0 1 2.18,0.7a3,3 0 0 1 0.73,2.24l0,5.21l-1.23,0z" id="svg_262"/>
  <path class="cls-21" d="m398.23,110a4.44,4.44 0 0 1 -1,3.07a3.5,3.5 0 0 1 -2.73,1.1a3.57,3.57 0 0 1 -1.91,-0.51a3.29,3.29 0 0 1 -1.29,-1.44a5,5 0 0 1 -0.46,-2.22a4.44,4.44 0 0 1 1,-3a3.5,3.5 0 0 1 2.73,-1.1a3.41,3.41 0 0 1 2.67,1.1a4.42,4.42 0 0 1 0.99,3zm-6.12,0a3.83,3.83 0 0 0 0.62,2.35a2.45,2.45 0 0 0 3.62,0a3.81,3.81 0 0 0 0.65,-2.35a3.73,3.73 0 0 0 -0.62,-2.32a2.17,2.17 0 0 0 -1.83,-0.8a2.12,2.12 0 0 0 -1.8,0.79a3.72,3.72 0 0 0 -0.64,2.33z" id="svg_263"/>
  <path class="cls-21" d="m403.55,114.19a3.45,3.45 0 0 1 -2.7,-1.07a4.42,4.42 0 0 1 -1,-3a4.58,4.58 0 0 1 1,-3.11a3.51,3.51 0 0 1 2.77,-1.1a5.16,5.16 0 0 1 1.16,0.13a3.65,3.65 0 0 1 0.9,0.29l-0.37,1a5.34,5.34 0 0 0 -0.88,-0.27a4,4 0 0 0 -0.84,-0.1c-1.63,0 -2.45,1 -2.45,3.12a3.72,3.72 0 0 0 0.6,2.27a2.1,2.1 0 0 0 1.77,0.79a5.59,5.59 0 0 0 2.06,-0.43l0,1.07a4.39,4.39 0 0 1 -2.02,0.41z" id="svg_264"/>
  <path class="cls-21" d="m410.52,114.19a3.45,3.45 0 0 1 -2.7,-1.07a4.46,4.46 0 0 1 -0.95,-3a4.53,4.53 0 0 1 1,-3.11a3.49,3.49 0 0 1 2.76,-1.1a5.09,5.09 0 0 1 1.16,0.13a3.91,3.91 0 0 1 0.91,0.29l-0.38,1a5.22,5.22 0 0 0 -0.87,-0.27a4,4 0 0 0 -0.85,-0.1c-1.63,0 -2.44,1 -2.44,3.12a3.79,3.79 0 0 0 0.59,2.27a2.1,2.1 0 0 0 1.77,0.79a5.55,5.55 0 0 0 2.06,-0.43l0,1.07a4.36,4.36 0 0 1 -2.06,0.41z" id="svg_265"/>
  <path class="cls-21" d="m415.57,106l0,5.2a2.09,2.09 0 0 0 0.45,1.47a1.83,1.83 0 0 0 1.4,0.48a2.28,2.28 0 0 0 1.84,-0.69a3.42,3.42 0 0 0 0.58,-2.24l0,-4.22l1.22,0l0,8l-1,0l-0.18,-1l-0.07,0a2.46,2.46 0 0 1 -1,0.91a3.53,3.53 0 0 1 -1.52,0.31a3.09,3.09 0 0 1 -2.19,-0.69a3,3 0 0 1 -0.73,-2.23l0,-5.3l1.2,0z" id="svg_266"/>
  <path class="cls-21" d="m427.17,105.87a4.61,4.61 0 0 1 1,0.09l-0.17,1.13a3.7,3.7 0 0 0 -0.88,-0.11a2.12,2.12 0 0 0 -1.66,0.79a2.88,2.88 0 0 0 -0.7,2l0,4.23l-1.21,0l0,-8l1,0l0.14,1.48l0.06,0a3.52,3.52 0 0 1 1.08,-1.2a2.37,2.37 0 0 1 1.34,-0.41z" id="svg_267"/>
  <path class="cls-21" d="m435,111.85a2,2 0 0 1 -0.84,1.73a3.86,3.86 0 0 1 -2.34,0.61a5.08,5.08 0 0 1 -2.49,-0.51l0,-1.12a6.33,6.33 0 0 0 1.24,0.46a5.3,5.3 0 0 0 1.28,0.17a2.87,2.87 0 0 0 1.47,-0.31a1,1 0 0 0 0.51,-0.92a1,1 0 0 0 -0.41,-0.81a6.38,6.38 0 0 0 -1.59,-0.78a8.88,8.88 0 0 1 -1.59,-0.73a2.15,2.15 0 0 1 -0.7,-0.71a1.87,1.87 0 0 1 -0.23,-0.94a1.78,1.78 0 0 1 0.8,-1.55a3.7,3.7 0 0 1 2.19,-0.57a6.41,6.41 0 0 1 2.53,0.53l-0.43,1a5.9,5.9 0 0 0 -2.19,-0.5a2.5,2.5 0 0 0 -1.3,0.27a0.83,0.83 0 0 0 -0.44,0.75a0.92,0.92 0 0 0 0.16,0.55a1.73,1.73 0 0 0 0.53,0.43a13.74,13.74 0 0 0 1.41,0.59a5.39,5.39 0 0 1 1.93,1a1.85,1.85 0 0 1 0.5,1.36z" id="svg_268"/>
  <line class="cls-22" id="svg_465" x1="210.28" x2="222.2" y1="99.81" y2="99.81"/>
 </g>
</svg>