<?xml version="1.0"?>
<svg width="588" height="200" xmlns="http://www.w3.org/2000/svg" xmlns:svg="http://www.w3.org/2000/svg" xmlns:se="http://svg-edit.googlecode.com" data-name="Layer 1">
 <defs>
  <style>.cls-1,.cls-18,.cls-19{fill:#78b9db;}.cls-1,.cls-11,.cls-12,.cls-13,.cls-14,.cls-17,.cls-18,.cls-2,.cls-3,.cls-5,.cls-6,.cls-8,.cls-9{stroke:#fff;}.cls-1,.cls-22{stroke-linecap:round;stroke-linejoin:round;}.cls-2{fill:#77c3e2;}.cls-11,.cls-12,.cls-13,.cls-14,.cls-17,.cls-18,.cls-2,.cls-3,.cls-5,.cls-6,.cls-8,.cls-9{stroke-miterlimit:10;}.cls-3,.cls-4{fill:#8176b5;}.cls-5{fill:#7ac5d8;}.cls-6,.cls-7{fill:#7f81bb;}.cls-8{fill:#7cc6ce;}.cls-10,.cls-9{fill:#7d8fc3;}.cls-11{fill:#7fc6c5;}.cls-12,.cls-16{fill:#7b9fcc;}.cls-13{fill:#80c8bb;}.cls-14,.cls-15{fill:#79afd5;}.cls-17{fill:#82c9b1;}.cls-20{fill:#fff;}.cls-21{fill:#4d4d4f;}.cls-22{fill:none;stroke:#4c4c4c;stroke-width:2px;}</style>
 </defs>
 <title>lc-svg-version.1</title>
 <g class="layer">
  <title>Layer 1</title>
  <rect class="cls-13" height="43.26" id="svg_17" width="159.03" x="45.14" y="73.26"/>
  <rect class="cls-14" height="43.26" id="svg_18" width="159.03" x="7.53" y="83.18"/>
  <polygon class="cls-15" id="svg_19" points="7.529999732971191,83.18000030517578 45.13999938964844,73.25 204.1699981689453,73.25 166.55999755859375,83.18000030517578 7.529999732971191,83.18000030517578 "/>
  <polygon class="cls-14" id="svg_21" points="166.55999755859375,126.44000244140625 204.1699981689453,116.52000427246094 204.1699981689453,73.25 166.55999755859375,83.18000030517578 166.55999755859375,126.44000244140625 "/>
  <path class="cls-20" d="m186.06,97.87a2.6,2.6 0 0 1 2.14,1a4.42,4.42 0 0 1 0.8,2.78a4.84,4.84 0 0 1 -1,3.22a3.42,3.42 0 0 1 -2.75,1.12a4.23,4.23 0 0 1 -2.5,-0.67l0,-2.28a4.58,4.58 0 0 0 1.17,0.59a3.89,3.89 0 0 0 1.26,0.22q1.8,0 1.8,-2a1.65,1.65 0 0 0 -1.86,-1.88a3.39,3.39 0 0 0 -0.74,0.09a4,4 0 0 0 -0.67,0.19l-0.78,-0.56l0.35,-6.35l5,0l0,2.23l-3.28,0l-0.17,2.45l0.23,-0.06a3.21,3.21 0 0 1 1,-0.09z" id="svg_30"/>
  <path class="cls-20" d="m50.31,107a2.14,2.14 0 0 1 -0.81,1.77a3.47,3.47 0 0 1 -2.25,0.65a5.18,5.18 0 0 1 -2.35,-0.5l0,-1.63a9.17,9.17 0 0 0 1.42,0.52a3.9,3.9 0 0 0 1.06,0.16a1.56,1.56 0 0 0 0.89,-0.22a0.84,0.84 0 0 0 0.18,-1.1a1.59,1.59 0 0 0 -0.4,-0.36a10.63,10.63 0 0 0 -1.08,-0.57a4.66,4.66 0 0 1 -1.14,-0.68a2.5,2.5 0 0 1 -0.61,-0.77a2.19,2.19 0 0 1 -0.23,-1a2.15,2.15 0 0 1 0.75,-1.74a3.11,3.11 0 0 1 2.06,-0.63a4.53,4.53 0 0 1 1.24,0.16a7.89,7.89 0 0 1 1.23,0.43l-0.57,1.37a8.11,8.11 0 0 0 -1.1,-0.38a3.61,3.61 0 0 0 -0.85,-0.11a1.16,1.16 0 0 0 -0.77,0.23a0.78,0.78 0 0 0 -0.27,0.61a0.78,0.78 0 0 0 0.11,0.41a1.25,1.25 0 0 0 0.35,0.33a9.08,9.08 0 0 0 1.11,0.58a4.6,4.6 0 0 1 1.6,1.12a2.16,2.16 0 0 1 0.43,1.35z" id="svg_68"/>
  <path class="cls-20" d="m56.6,109.31l-4.79,0l0,-8.31l4.79,0l0,1.5l-3,0l0,1.82l2.81,0l0,1.44l-2.83,0l0,2.14l3,0l0.02,1.41z" id="svg_69"/>
  <path class="cls-20" d="m63.23,107a2.14,2.14 0 0 1 -0.81,1.77a3.47,3.47 0 0 1 -2.25,0.65a5.2,5.2 0 0 1 -2.35,-0.5l0,-1.63a9.55,9.55 0 0 0 1.42,0.52a4,4 0 0 0 1.07,0.16a1.58,1.58 0 0 0 0.89,-0.22a0.78,0.78 0 0 0 0.31,-0.66a0.77,0.77 0 0 0 -0.14,-0.44a1.43,1.43 0 0 0 -0.4,-0.36a9.59,9.59 0 0 0 -1.08,-0.57a5.08,5.08 0 0 1 -1.14,-0.68a2.84,2.84 0 0 1 -0.61,-0.77a2.44,2.44 0 0 1 0.52,-2.76a3.12,3.12 0 0 1 2.07,-0.63a4.51,4.51 0 0 1 1.23,0.16a7.23,7.23 0 0 1 1.23,0.43l-0.56,1.37a8.61,8.61 0 0 0 -1.1,-0.38a3.69,3.69 0 0 0 -0.86,-0.11a1.13,1.13 0 0 0 -0.76,0.23a0.78,0.78 0 0 0 -0.27,0.61a0.7,0.7 0 0 0 0.11,0.41a1.19,1.19 0 0 0 0.34,0.33a10.5,10.5 0 0 0 1.12,0.58a4.64,4.64 0 0 1 1.59,1.12a2.16,2.16 0 0 1 0.43,1.37z" id="svg_70"/>
  <path class="cls-20" d="m69.64,107a2.14,2.14 0 0 1 -0.81,1.77a3.47,3.47 0 0 1 -2.25,0.65a5.18,5.18 0 0 1 -2.35,-0.5l0,-1.63a9.17,9.17 0 0 0 1.42,0.52a3.91,3.91 0 0 0 1.07,0.16a1.6,1.6 0 0 0 0.89,-0.22a0.78,0.78 0 0 0 0.31,-0.66a0.77,0.77 0 0 0 -0.14,-0.44a1.59,1.59 0 0 0 -0.4,-0.36a10.63,10.63 0 0 0 -1.08,-0.57a4.66,4.66 0 0 1 -1.14,-0.68a2.66,2.66 0 0 1 -0.61,-0.77a2.19,2.19 0 0 1 -0.22,-1a2.14,2.14 0 0 1 0.74,-1.74a3.12,3.12 0 0 1 2.07,-0.63a4.51,4.51 0 0 1 1.23,0.16a7.89,7.89 0 0 1 1.23,0.43l-0.6,1.35a8.61,8.61 0 0 0 -1.1,-0.38a3.69,3.69 0 0 0 -0.86,-0.11a1.18,1.18 0 0 0 -0.77,0.23a0.8,0.8 0 0 0 -0.26,0.61a0.78,0.78 0 0 0 0.1,0.41a1.4,1.4 0 0 0 0.35,0.33a11.07,11.07 0 0 0 1.11,0.58a4.6,4.6 0 0 1 1.6,1.12a2.16,2.16 0 0 1 0.47,1.37z" id="svg_71"/>
  <path class="cls-20" d="m71.15,109.31l0,-8.31l1.76,0l0,8.31l-1.76,0z" id="svg_72"/>
  <path class="cls-20" d="m82.54,105.14a4.49,4.49 0 0 1 -1,3.17a4.44,4.44 0 0 1 -5.87,0a4.5,4.5 0 0 1 -1,-3.18a4.41,4.41 0 0 1 1,-3.16a3.82,3.82 0 0 1 2.94,-1.1a3.78,3.78 0 0 1 2.92,1.1a4.52,4.52 0 0 1 1.01,3.17zm-6.06,0a3.5,3.5 0 0 0 0.52,2.1a1.86,1.86 0 0 0 1.58,0.71c1.41,0 2.11,-0.94 2.11,-2.81s-0.7,-2.8 -2.09,-2.8a1.84,1.84 0 0 0 -1.59,0.71a3.41,3.41 0 0 0 -0.53,2.09z" id="svg_73"/>
  <path class="cls-20" d="m91.63,109.31l-2.24,0l-3.61,-6.28l0,0c0.07,1.11 0.1,1.9 0.1,2.37l0,3.91l-1.62,0l0,-8.31l2.22,0l3.61,6.22l0,0c-0.06,-1.08 -0.09,-1.84 -0.09,-2.29l0,-3.93l1.59,0l0.04,8.31z" id="svg_74"/>
  <path class="cls-20" d="m96.74,109.31l0,-8.31l1.76,0l0,6.85l3.37,0l0,1.46l-5.13,0z" id="svg_75"/>
  <path class="cls-20" d="m108.4,109.31l-0.6,-2l-3,0l-0.6,2l-1.9,0l2.93,-8.34l2.15,0l3,8.34l-1.98,0zm-1,-3.46c-0.56,-1.79 -0.87,-2.8 -0.94,-3s-0.12,-0.42 -0.15,-0.55c-0.13,0.48 -0.49,1.68 -1.08,3.59l2.17,-0.04z" id="svg_76"/>
  <path class="cls-20" d="m113.93,104.42l1.73,-3.42l1.9,0l-2.76,5.08l0,3.23l-1.75,0l0,-3.18l-2.75,-5.13l1.91,0l1.72,3.42z" id="svg_77"/>
  <path class="cls-20" d="m123.39,109.31l-4.79,0l0,-8.31l4.79,0l0,1.5l-3,0l0,1.82l2.82,0l0,1.44l-2.82,0l0,2.14l3,0l0,1.41z" id="svg_78"/>
  <path class="cls-20" d="m126.88,106.12l0,3.19l-1.76,0l0,-8.31l2.42,0a4.12,4.12 0 0 1 2.5,0.62a2.17,2.17 0 0 1 0.82,1.87a2.24,2.24 0 0 1 -0.41,1.31a2.65,2.65 0 0 1 -1.14,0.89c1.25,1.87 2.07,3.07 2.45,3.62l-2,0l-2,-3.19l-0.88,0zm0,-1.43l0.57,0a2.11,2.11 0 0 0 1.23,-0.28a1,1 0 0 0 0.4,-0.87a0.9,0.9 0 0 0 -0.41,-0.84a2.41,2.41 0 0 0 -1.25,-0.25l-0.54,0l0,2.24z" id="svg_79"/>
  <path class="cls-21" d="m234.14,95.5l-3.64,-9.5l-0.05,0c0.06,0.76 0.1,1.65 0.1,2.68l0,6.82l-1.15,0l0,-10.75l1.87,0l3.4,8.83l0.05,0l3.42,-8.83l1.86,0l0,10.75l-1.24,0l0,-6.9c0,-0.79 0,-1.65 0.1,-2.58l-0.06,0l-3.66,9.48l-1,0z" id="svg_269"/>
  <path class="cls-21" d="m247.56,95.5l-0.24,-1.15l-0.06,0a3.34,3.34 0 0 1 -1.2,1a3.82,3.82 0 0 1 -1.49,0.26a2.67,2.67 0 0 1 -1.87,-0.61a2.26,2.26 0 0 1 -0.68,-1.75q0,-2.43 3.89,-2.55l1.36,-0.05l0,-0.49a2,2 0 0 0 -0.41,-1.4a1.67,1.67 0 0 0 -1.3,-0.45a5.36,5.36 0 0 0 -2.27,0.62l-0.37,-0.93a5.5,5.5 0 0 1 1.3,-0.51a5.7,5.7 0 0 1 1.42,-0.18a3.11,3.11 0 0 1 2.13,0.63a2.68,2.68 0 0 1 0.69,2l0,5.56l-0.9,0zm-2.75,-0.86a2.47,2.47 0 0 0 1.78,-0.62a2.29,2.29 0 0 0 0.65,-1.75l0,-0.77l-1.21,0.05a4.37,4.37 0 0 0 -2.1,0.45a1.38,1.38 0 0 0 -0.64,1.24a1.29,1.29 0 0 0 0.4,1a1.72,1.72 0 0 0 1.12,0.36l0,0.04z" id="svg_270"/>
  <path class="cls-21" d="m250.76,85.25a0.84,0.84 0 0 1 0.2,-0.61a0.73,0.73 0 0 1 0.52,-0.19a0.68,0.68 0 0 1 0.5,0.2a0.78,0.78 0 0 1 0.21,0.6a0.83,0.83 0 0 1 -0.21,0.62a0.72,0.72 0 0 1 -0.5,0.2a0.73,0.73 0 0 1 -0.52,-0.2a0.87,0.87 0 0 1 -0.2,-0.62zm1.32,10.25l-1.22,0l0,-8l1.22,0l0,8z" id="svg_271"/>
  <path class="cls-21" d="m260,95.5l0,-5.2a2.08,2.08 0 0 0 -0.45,-1.46a1.83,1.83 0 0 0 -1.4,-0.48a2.27,2.27 0 0 0 -1.84,0.68a3.43,3.43 0 0 0 -0.59,2.25l0,4.21l-1.22,0l0,-8l1,0l0.2,1.1l0.06,0a2.48,2.48 0 0 1 1,-0.92a3.37,3.37 0 0 1 1.5,-0.33a3.07,3.07 0 0 1 2.18,0.7a3,3 0 0 1 0.73,2.24l0,5.21l-1.17,0z" id="svg_272"/>
  <path class="cls-21" d="m266.28,94.6a4.21,4.21 0 0 0 0.62,0a3,3 0 0 0 0.48,-0.1l0,0.93a2,2 0 0 1 -0.59,0.16a4.39,4.39 0 0 1 -0.69,0.06c-1.55,0 -2.33,-0.81 -2.33,-2.45l0,-4.78l-1.15,0l0,-0.58l1.15,-0.51l0.52,-1.71l0.7,0l0,1.86l2.33,0l0,0.94l-2.32,0l0,4.73a1.62,1.62 0 0 0 0.34,1.11a1.21,1.21 0 0 0 0.94,0.34z" id="svg_273"/>
  <path class="cls-21" d="m274.16,95.5l-0.24,-1.15l-0.06,0a3.34,3.34 0 0 1 -1.2,1a3.76,3.76 0 0 1 -1.49,0.26a2.68,2.68 0 0 1 -1.87,-0.61a2.26,2.26 0 0 1 -0.68,-1.75q0,-2.43 3.89,-2.55l1.37,-0.05l0,-0.49a2.05,2.05 0 0 0 -0.41,-1.4a1.68,1.68 0 0 0 -1.3,-0.45a5.29,5.29 0 0 0 -2.27,0.62l-0.37,-0.93a5.18,5.18 0 0 1 1.3,-0.51a5.68,5.68 0 0 1 1.41,-0.18a3.08,3.08 0 0 1 2.13,0.63a2.68,2.68 0 0 1 0.69,2l0,5.56l-0.9,0zm-2.75,-0.86a2.5,2.5 0 0 0 1.79,-0.62a2.33,2.33 0 0 0 0.65,-1.75l0,-0.77l-1.22,0.05a4.32,4.32 0 0 0 -2.09,0.45a1.36,1.36 0 0 0 -0.64,1.24a1.25,1.25 0 0 0 0.4,1a1.69,1.69 0 0 0 1.11,0.36l0,0.04z" id="svg_274"/>
  <path class="cls-21" d="m277.36,85.25a0.81,0.81 0 0 1 0.21,-0.61a0.72,0.72 0 0 1 0.51,-0.19a0.69,0.69 0 0 1 0.51,0.2a0.78,0.78 0 0 1 0.21,0.6a0.83,0.83 0 0 1 -0.21,0.62a0.75,0.75 0 0 1 -1,0a0.83,0.83 0 0 1 -0.23,-0.62zm1.32,10.25l-1.21,0l0,-8l1.21,0l0,8z" id="svg_275"/>
  <path class="cls-21" d="m286.62,95.5l0,-5.2a2.12,2.12 0 0 0 -0.44,-1.46a1.84,1.84 0 0 0 -1.4,-0.48a2.3,2.3 0 0 0 -1.85,0.68a3.43,3.43 0 0 0 -0.58,2.25l0,4.21l-1.22,0l0,-8l1,0l0.2,1.1l0.06,0a2.4,2.4 0 0 1 1,-0.92a3.37,3.37 0 0 1 1.5,-0.33a3.1,3.1 0 0 1 2.19,0.7a3,3 0 0 1 0.73,2.24l0,5.21l-1.19,0z" id="svg_276"/>
  <path class="cls-21" d="m295.38,93.27a2,2 0 0 1 -0.83,1.73a4,4 0 0 1 -2.34,0.6a5.22,5.22 0 0 1 -2.5,-0.5l0,-1.13a5.64,5.64 0 0 0 1.25,0.46a5.23,5.23 0 0 0 1.27,0.17a2.93,2.93 0 0 0 1.47,-0.3a1,1 0 0 0 0.51,-0.93a1,1 0 0 0 -0.41,-0.8a6.39,6.39 0 0 0 -1.58,-0.79a8.24,8.24 0 0 1 -1.59,-0.73a2.18,2.18 0 0 1 -0.71,-0.71a1.87,1.87 0 0 1 -0.23,-0.94a1.82,1.82 0 0 1 0.8,-1.55a3.7,3.7 0 0 1 2.19,-0.57a6.41,6.41 0 0 1 2.53,0.53l-0.43,1a5.82,5.82 0 0 0 -2.19,-0.5a2.52,2.52 0 0 0 -1.3,0.27a0.85,0.85 0 0 0 -0.44,0.75a0.92,0.92 0 0 0 0.16,0.55a1.73,1.73 0 0 0 0.53,0.43a10.85,10.85 0 0 0 1.41,0.59a5.3,5.3 0 0 1 1.93,1.05a1.82,1.82 0 0 1 0.5,1.32z" id="svg_277"/>
  <path class="cls-21" d="m304.47,95.6a3.39,3.39 0 0 1 -2.7,-1.07a4.42,4.42 0 0 1 -1,-3a4.53,4.53 0 0 1 1,-3.11a3.51,3.51 0 0 1 2.77,-1.1a5,5 0 0 1 1.15,0.13a3.75,3.75 0 0 1 0.91,0.29l-0.37,1a6.54,6.54 0 0 0 -0.88,-0.26a3.46,3.46 0 0 0 -0.84,-0.11c-1.63,0 -2.45,1 -2.45,3.12a3.7,3.7 0 0 0 0.6,2.27a2.08,2.08 0 0 0 1.77,0.79a5.31,5.31 0 0 0 2.05,-0.43l0,1.07a4.32,4.32 0 0 1 -2.01,0.41z" id="svg_278"/>
  <path class="cls-21" d="m315.12,91.43a4.43,4.43 0 0 1 -1,3.07a3.46,3.46 0 0 1 -2.73,1.1a3.68,3.68 0 0 1 -1.91,-0.5a3.32,3.32 0 0 1 -1.29,-1.45a5.11,5.11 0 0 1 -0.45,-2.22a4.39,4.39 0 0 1 1,-3.05a3.46,3.46 0 0 1 2.72,-1.1a3.41,3.41 0 0 1 2.68,1.12a4.42,4.42 0 0 1 0.98,3.03zm-6.11,0a3.83,3.83 0 0 0 0.61,2.35a2.43,2.43 0 0 0 3.62,0a3.72,3.72 0 0 0 0.62,-2.35a3.69,3.69 0 0 0 -0.62,-2.32a2.49,2.49 0 0 0 -3.63,0a3.79,3.79 0 0 0 -0.61,2.32l0.01,0z" id="svg_279"/>
  <path class="cls-21" d="m322.67,95.5l0,-5.2a2.12,2.12 0 0 0 -0.44,-1.46a1.84,1.84 0 0 0 -1.4,-0.48a2.3,2.3 0 0 0 -1.85,0.68a3.43,3.43 0 0 0 -0.58,2.25l0,4.21l-1.22,0l0,-8l1,0l0.2,1.1l0.06,0a2.4,2.4 0 0 1 1,-0.92a3.37,3.37 0 0 1 1.5,-0.33a3.1,3.1 0 0 1 2.19,0.7a3,3 0 0 1 0.73,2.24l0,5.21l-1.19,0z" id="svg_280"/>
  <path class="cls-21" d="m331.79,95.5l0,-5.2a2.08,2.08 0 0 0 -0.45,-1.46a1.83,1.83 0 0 0 -1.4,-0.48a2.31,2.31 0 0 0 -1.85,0.68a3.43,3.43 0 0 0 -0.58,2.25l0,4.21l-1.22,0l0,-8l1,0l0.2,1.1l0.06,0a2.48,2.48 0 0 1 1,-0.92a3.34,3.34 0 0 1 1.5,-0.33a3.09,3.09 0 0 1 2.18,0.7a3,3 0 0 1 0.73,2.24l0,5.21l-1.17,0z" id="svg_281"/>
  <path class="cls-21" d="m338.83,95.6a3.71,3.71 0 0 1 -2.83,-1.1a4.22,4.22 0 0 1 -1,-3a4.63,4.63 0 0 1 0.95,-3.08a3.16,3.16 0 0 1 2.57,-1.15a3,3 0 0 1 2.39,1a3.86,3.86 0 0 1 0.88,2.62l0,0.77l-5.54,0a3.24,3.24 0 0 0 0.72,2.15a2.47,2.47 0 0 0 1.91,0.73a6.47,6.47 0 0 0 2.56,-0.54l0,1.08a6.18,6.18 0 0 1 -1.22,0.4a6.84,6.84 0 0 1 -1.39,0.12zm-0.33,-7.3a2,2 0 0 0 -1.54,0.63a2.93,2.93 0 0 0 -0.68,1.74l4.2,0a2.7,2.7 0 0 0 -0.51,-1.76a1.8,1.8 0 0 0 -1.47,-0.61z" id="svg_282"/>
  <path class="cls-21" d="m347.08,95.6a3.42,3.42 0 0 1 -2.7,-1.07a4.42,4.42 0 0 1 -1,-3a4.58,4.58 0 0 1 1,-3.11a3.51,3.51 0 0 1 2.77,-1.1a5.16,5.16 0 0 1 1.16,0.13a3.65,3.65 0 0 1 0.9,0.29l-0.37,1a6.54,6.54 0 0 0 -0.84,-0.24a3.4,3.4 0 0 0 -0.84,-0.11c-1.63,0 -2.45,1 -2.45,3.12a3.7,3.7 0 0 0 0.6,2.27a2.08,2.08 0 0 0 1.77,0.79a5.4,5.4 0 0 0 2.06,-0.43l0,1.07a4.39,4.39 0 0 1 -2.06,0.39z" id="svg_283"/>
  <path class="cls-21" d="m354.07,94.6a4.21,4.21 0 0 0 0.62,0a3,3 0 0 0 0.48,-0.1l0,0.93a2,2 0 0 1 -0.58,0.16a4.62,4.62 0 0 1 -0.7,0.06c-1.55,0 -2.33,-0.81 -2.33,-2.45l0,-4.78l-1.15,0l0,-0.58l1.15,-0.51l0.52,-1.71l0.7,0l0,1.86l2.33,0l0,0.94l-2.33,0l0,4.73a1.62,1.62 0 0 0 0.34,1.11a1.21,1.21 0 0 0 0.95,0.34z" id="svg_284"/>
  <path class="cls-21" d="m356.71,85.25a0.8,0.8 0 0 1 0.2,-0.61a0.72,0.72 0 0 1 0.51,-0.19a0.69,0.69 0 0 1 0.51,0.2a0.78,0.78 0 0 1 0.21,0.6a0.83,0.83 0 0 1 -0.21,0.62a0.75,0.75 0 0 1 -1,0a0.83,0.83 0 0 1 -0.22,-0.62zm1.29,10.25l-1.21,0l0,-8l1.21,0l0,8z" id="svg_285"/>
  <path class="cls-21" d="m367.41,91.43a4.43,4.43 0 0 1 -1,3.07a3.46,3.46 0 0 1 -2.73,1.1a3.65,3.65 0 0 1 -1.91,-0.5a3.32,3.32 0 0 1 -1.29,-1.45a5,5 0 0 1 -0.46,-2.22a4.44,4.44 0 0 1 1,-3.05a3.5,3.5 0 0 1 2.73,-1.1a3.44,3.44 0 0 1 2.68,1.12a4.42,4.42 0 0 1 0.98,3.03zm-6.12,0a3.83,3.83 0 0 0 0.62,2.35a2.43,2.43 0 0 0 3.62,0a4.71,4.71 0 0 0 0,-4.67a2.17,2.17 0 0 0 -1.83,-0.79a2.14,2.14 0 0 0 -1.8,0.78a3.72,3.72 0 0 0 -0.61,2.33z" id="svg_286"/>
  <path class="cls-21" d="m375,95.5l0,-5.2a2.08,2.08 0 0 0 -0.45,-1.46a1.83,1.83 0 0 0 -1.4,-0.48a2.27,2.27 0 0 0 -1.84,0.68a3.43,3.43 0 0 0 -0.59,2.25l0,4.21l-1.22,0l0,-8l1,0l0.2,1.1l0.06,0a2.48,2.48 0 0 1 1.05,-0.92a3.37,3.37 0 0 1 1.5,-0.33a3.07,3.07 0 0 1 2.18,0.7a3,3 0 0 1 0.73,2.24l0,5.21l-1.22,0z" id="svg_287"/>
  <path class="cls-21" d="m383.72,93.27a2,2 0 0 1 -0.83,1.73a4,4 0 0 1 -2.35,0.6a5.2,5.2 0 0 1 -2.49,-0.5l0,-1.13a5.75,5.75 0 0 0 1.24,0.46a5.37,5.37 0 0 0 1.28,0.17a2.93,2.93 0 0 0 1.47,-0.3a1,1 0 0 0 0.51,-0.93a1,1 0 0 0 -0.41,-0.8a6.39,6.39 0 0 0 -1.58,-0.79a8.71,8.71 0 0 1 -1.6,-0.73a2.25,2.25 0 0 1 -0.7,-0.71a1.87,1.87 0 0 1 -0.23,-0.94a1.82,1.82 0 0 1 0.8,-1.55a3.7,3.7 0 0 1 2.19,-0.57a6.41,6.41 0 0 1 2.53,0.53l-0.43,1a5.82,5.82 0 0 0 -2.19,-0.5a2.52,2.52 0 0 0 -1.3,0.27a0.83,0.83 0 0 0 -0.44,0.75a0.92,0.92 0 0 0 0.16,0.55a1.73,1.73 0 0 0 0.53,0.43a10.85,10.85 0 0 0 1.41,0.59a5.3,5.3 0 0 1 1.93,1.05a1.86,1.86 0 0 1 0.5,1.32z" id="svg_288"/>
  <path class="cls-21" d="m394.53,95.5l-0.24,-1.15l-0.06,0a3.41,3.41 0 0 1 -1.19,1a3.84,3.84 0 0 1 -1.5,0.26a2.68,2.68 0 0 1 -1.87,-0.61a2.25,2.25 0 0 1 -0.67,-1.75c0,-1.62 1.29,-2.47 3.89,-2.55l1.36,-0.05l0,-0.49a2.05,2.05 0 0 0 -0.41,-1.4a1.67,1.67 0 0 0 -1.3,-0.45a5.33,5.33 0 0 0 -2.27,0.62l-0.37,-0.93a5.34,5.34 0 0 1 1.3,-0.51a5.68,5.68 0 0 1 1.41,-0.18a3.08,3.08 0 0 1 2.13,0.63a2.68,2.68 0 0 1 0.69,2l0,5.56l-0.9,0zm-2.74,-0.86a2.49,2.49 0 0 0 1.78,-0.62a2.33,2.33 0 0 0 0.65,-1.75l0,-0.77l-1.22,0.05a4.35,4.35 0 0 0 -2.09,0.45a1.36,1.36 0 0 0 -0.64,1.24a1.25,1.25 0 0 0 0.4,1a1.72,1.72 0 0 0 1.12,0.36l0,0.04z" id="svg_289"/>
  <path class="cls-21" d="m403.34,95.5l0,-5.2a2.08,2.08 0 0 0 -0.45,-1.46a1.83,1.83 0 0 0 -1.4,-0.48a2.27,2.27 0 0 0 -1.84,0.68a3.43,3.43 0 0 0 -0.59,2.25l0,4.21l-1.21,0l0,-8l1,0l0.2,1.1l0.06,0a2.48,2.48 0 0 1 1.05,-0.92a3.37,3.37 0 0 1 1.5,-0.33a3.07,3.07 0 0 1 2.18,0.7a3,3 0 0 1 0.73,2.24l0,5.21l-1.23,0z" id="svg_290"/>
  <path class="cls-21" d="m412.48,94.38l-0.06,0a2.84,2.84 0 0 1 -2.52,1.22a3,3 0 0 1 -2.45,-1.07a4.72,4.72 0 0 1 -0.88,-3.07a4.85,4.85 0 0 1 0.88,-3.08a3,3 0 0 1 2.45,-1.1a2.91,2.91 0 0 1 2.5,1.19l0.1,0l-0.05,-0.58l0,-0.56l0,-3.27l1.21,0l0,11.44l-1,0l-0.18,-1.12zm-2.43,0.21a2.24,2.24 0 0 0 1.81,-0.68a3.45,3.45 0 0 0 0.56,-2.19l0,-0.22a4,4 0 0 0 -0.57,-2.43a2.14,2.14 0 0 0 -1.81,-0.73a1.87,1.87 0 0 0 -1.64,0.83a4.14,4.14 0 0 0 -0.57,2.35a3.91,3.91 0 0 0 0.57,2.32a1.9,1.9 0 0 0 1.65,0.75z" id="svg_291"/>
  <path class="cls-21" d="m420,85.25a0.81,0.81 0 0 1 0.21,-0.61a0.72,0.72 0 0 1 0.51,-0.19a0.69,0.69 0 0 1 0.51,0.2a0.78,0.78 0 0 1 0.21,0.6a0.83,0.83 0 0 1 -0.21,0.62a0.75,0.75 0 0 1 -1,0a0.83,0.83 0 0 1 -0.23,-0.62zm1.32,10.25l-1.21,0l0,-8l1.21,0l0,8z" id="svg_292"/>
  <path class="cls-21" d="m428.93,93.27a2,2 0 0 1 -0.83,1.73a4,4 0 0 1 -2.34,0.6a5.15,5.15 0 0 1 -2.49,-0.5l0,-1.13a5.38,5.38 0 0 0 1.24,0.46a5.3,5.3 0 0 0 1.28,0.17a2.92,2.92 0 0 0 1.46,-0.3a1,1 0 0 0 0.51,-0.93a1,1 0 0 0 -0.4,-0.8a6.51,6.51 0 0 0 -1.59,-0.79a8.24,8.24 0 0 1 -1.59,-0.73a2.18,2.18 0 0 1 -0.71,-0.71a1.87,1.87 0 0 1 -0.23,-0.94a1.82,1.82 0 0 1 0.8,-1.55a3.7,3.7 0 0 1 2.19,-0.57a6.46,6.46 0 0 1 2.54,0.53l-0.44,1a5.82,5.82 0 0 0 -2.19,-0.5a2.52,2.52 0 0 0 -1.3,0.27a0.85,0.85 0 0 0 -0.44,0.75a0.92,0.92 0 0 0 0.17,0.55a1.52,1.52 0 0 0 0.53,0.43a10,10 0 0 0 1.4,0.59a5.21,5.21 0 0 1 1.93,1.05a1.82,1.82 0 0 1 0.5,1.32z" id="svg_293"/>
  <path class="cls-21" d="m438.47,87.28a4.61,4.61 0 0 1 1,0.09l-0.17,1.13a4.31,4.31 0 0 0 -0.88,-0.11a2.12,2.12 0 0 0 -1.66,0.79a2.85,2.85 0 0 0 -0.7,2l0,4.32l-1.21,0l0,-8l1,0l0.14,1.49l0.01,0a3.54,3.54 0 0 1 1.07,-1.21a2.4,2.4 0 0 1 1.4,-0.5z" id="svg_294"/>
  <path class="cls-21" d="m444.17,95.6a3.71,3.71 0 0 1 -2.81,-1.08a4.23,4.23 0 0 1 -1,-3a4.63,4.63 0 0 1 1,-3.08a3.16,3.16 0 0 1 2.57,-1.15a3,3 0 0 1 2.39,1a3.85,3.85 0 0 1 0.87,2.62l0,0.77l-5.53,0a3.24,3.24 0 0 0 0.72,2.15a2.47,2.47 0 0 0 1.91,0.73a6.47,6.47 0 0 0 2.56,-0.54l0,1.08a6.18,6.18 0 0 1 -1.22,0.4a6.84,6.84 0 0 1 -1.46,0.1zm-0.33,-7.3a2,2 0 0 0 -1.54,0.63a2.93,2.93 0 0 0 -0.68,1.74l4.2,0a2.7,2.7 0 0 0 -0.51,-1.76a1.8,1.8 0 0 0 -1.47,-0.61z" id="svg_295"/>
  <path class="cls-21" d="m454.38,93.27a2,2 0 0 1 -0.84,1.73a4,4 0 0 1 -2.34,0.6a5.15,5.15 0 0 1 -2.49,-0.5l0,-1.13a5.56,5.56 0 0 0 1.24,0.46a5.3,5.3 0 0 0 1.28,0.17a2.92,2.92 0 0 0 1.46,-0.3a1,1 0 0 0 0.51,-0.93a1,1 0 0 0 -0.4,-0.8a6.32,6.32 0 0 0 -1.59,-0.79a8.55,8.55 0 0 1 -1.59,-0.73a2.05,2.05 0 0 1 -0.7,-0.71a1.77,1.77 0 0 1 -0.23,-0.94a1.81,1.81 0 0 1 0.79,-1.55a3.74,3.74 0 0 1 2.19,-0.57a6.46,6.46 0 0 1 2.54,0.53l-0.43,1a5.9,5.9 0 0 0 -2.19,-0.5a2.56,2.56 0 0 0 -1.31,0.27a0.85,0.85 0 0 0 -0.44,0.75a0.92,0.92 0 0 0 0.17,0.55a1.62,1.62 0 0 0 0.53,0.43a10,10 0 0 0 1.4,0.59a5.37,5.37 0 0 1 1.94,1.05a1.86,1.86 0 0 1 0.5,1.32z" id="svg_296"/>
  <path class="cls-21" d="m460,95.6a3.36,3.36 0 0 1 -1.43,-0.29a2.61,2.61 0 0 1 -1.09,-0.89l-0.09,0a10.64,10.64 0 0 1 0.09,1.34l0,3.3l-1.22,0l0,-11.63l1,0l0.17,1.1l0.06,0a2.72,2.72 0 0 1 1.09,-0.95a3.23,3.23 0 0 1 1.43,-0.3a3,3 0 0 1 2.46,1.09a5.82,5.82 0 0 1 0,6.14a3,3 0 0 1 -2.47,1.09zm-0.18,-7.28a2.14,2.14 0 0 0 -1.78,0.68a3.52,3.52 0 0 0 -0.56,2.16l0,0.27a4.1,4.1 0 0 0 0.56,2.43a2.17,2.17 0 0 0 1.81,0.73a1.89,1.89 0 0 0 1.63,-0.85a4,4 0 0 0 0.59,-2.32a3.85,3.85 0 0 0 -0.59,-2.3a1.93,1.93 0 0 0 -1.69,-0.8l0.03,0z" id="svg_297"/>
  <path class="cls-21" d="m472.35,91.43a4.43,4.43 0 0 1 -1,3.07a3.47,3.47 0 0 1 -2.74,1.1a3.7,3.7 0 0 1 -1.91,-0.5a3.44,3.44 0 0 1 -1.29,-1.45a5.11,5.11 0 0 1 -0.45,-2.22a4.44,4.44 0 0 1 1,-3.05a3.48,3.48 0 0 1 2.73,-1.1a3.41,3.41 0 0 1 2.67,1.12a4.43,4.43 0 0 1 0.99,3.03zm-6.12,0a3.83,3.83 0 0 0 0.61,2.35a2.44,2.44 0 0 0 3.63,0a4.71,4.71 0 0 0 0,-4.67a2.18,2.18 0 0 0 -1.83,-0.79a2.13,2.13 0 0 0 -1.8,0.78a3.72,3.72 0 0 0 -0.61,2.33z" id="svg_298"/>
  <path class="cls-21" d="m479.9,95.5l0,-5.2a2.08,2.08 0 0 0 -0.45,-1.46a1.83,1.83 0 0 0 -1.4,-0.48a2.27,2.27 0 0 0 -1.84,0.68a3.43,3.43 0 0 0 -0.59,2.25l0,4.21l-1.22,0l0,-8l1,0l0.2,1.1l0.06,0a2.48,2.48 0 0 1 1.05,-0.92a3.37,3.37 0 0 1 1.5,-0.33a3.07,3.07 0 0 1 2.18,0.7a3,3 0 0 1 0.73,2.24l0,5.21l-1.22,0z" id="svg_299"/>
  <path class="cls-21" d="m488.66,93.27a2,2 0 0 1 -0.83,1.73a4,4 0 0 1 -2.35,0.6a5.2,5.2 0 0 1 -2.49,-0.5l0,-1.13a5.75,5.75 0 0 0 1.24,0.46a5.37,5.37 0 0 0 1.28,0.17a3,3 0 0 0 1.47,-0.3a1,1 0 0 0 0.51,-0.93a1,1 0 0 0 -0.41,-0.8a6.39,6.39 0 0 0 -1.58,-0.79a8.71,8.71 0 0 1 -1.6,-0.73a2.25,2.25 0 0 1 -0.7,-0.71a1.87,1.87 0 0 1 -0.23,-0.94a1.82,1.82 0 0 1 0.8,-1.55a3.7,3.7 0 0 1 2.19,-0.57a6.41,6.41 0 0 1 2.53,0.53l-0.43,1a5.86,5.86 0 0 0 -2.19,-0.5a2.5,2.5 0 0 0 -1.3,0.27a0.83,0.83 0 0 0 -0.44,0.75a0.92,0.92 0 0 0 0.16,0.55a1.73,1.73 0 0 0 0.53,0.43a10.85,10.85 0 0 0 1.41,0.59a5.3,5.3 0 0 1 1.93,1.05a1.86,1.86 0 0 1 0.5,1.32z" id="svg_300"/>
  <path class="cls-21" d="m490.4,85.25a0.8,0.8 0 0 1 0.2,-0.61a0.72,0.72 0 0 1 0.51,-0.19a0.69,0.69 0 0 1 0.51,0.2a0.78,0.78 0 0 1 0.21,0.6a0.83,0.83 0 0 1 -0.21,0.62a0.75,0.75 0 0 1 -1,0a0.83,0.83 0 0 1 -0.22,-0.62zm1.31,10.25l-1.21,0l0,-8l1.21,0l0,8z" id="svg_301"/>
  <path class="cls-21" d="m497.9,87.3a3,3 0 0 1 2.45,1.08a4.7,4.7 0 0 1 0.88,3.05a4.79,4.79 0 0 1 -0.88,3.08a3,3 0 0 1 -2.45,1.09a3.36,3.36 0 0 1 -1.43,-0.29a2.61,2.61 0 0 1 -1.09,-0.89l-0.09,0l-0.26,1l-0.87,0l0,-11.4l1.22,0l0,2.77c0,0.62 0,1.18 -0.06,1.67l0.06,0a2.87,2.87 0 0 1 2.52,-1.16zm-0.18,1a2.09,2.09 0 0 0 -1.79,0.71a4,4 0 0 0 -0.55,2.4a4.1,4.1 0 0 0 0.56,2.43a2.17,2.17 0 0 0 1.81,0.73a1.89,1.89 0 0 0 1.67,-0.82a4.19,4.19 0 0 0 0.55,-2.35a4,4 0 0 0 -0.55,-2.34a2,2 0 0 0 -1.7,-0.74l0,-0.02z" id="svg_302"/>
  <path class="cls-21" d="m504.52,95.5l-1.22,0l0,-11.4l1.22,0l0,11.4z" id="svg_303"/>
  <path class="cls-21" d="m510.42,95.6a3.68,3.68 0 0 1 -2.8,-1.08a4.18,4.18 0 0 1 -1,-3a4.69,4.69 0 0 1 1,-3.08a3.17,3.17 0 0 1 2.57,-1.15a3,3 0 0 1 2.39,1a3.86,3.86 0 0 1 0.88,2.62l0,0.77l-5.53,0a3.19,3.19 0 0 0 0.71,2.15a2.47,2.47 0 0 0 1.91,0.73a6.47,6.47 0 0 0 2.56,-0.54l0,1.08a6,6 0 0 1 -1.22,0.4a6.84,6.84 0 0 1 -1.47,0.1zm-0.33,-7.3a2,2 0 0 0 -1.54,0.63a2.86,2.86 0 0 0 -0.67,1.74l4.19,0a2.7,2.7 0 0 0 -0.51,-1.76a1.8,1.8 0 0 0 -1.47,-0.61z" id="svg_304"/>
  <path class="cls-21" d="m523,88.37l-2,0l0,7.13l-1.3,0l0,-7.09l-1.43,0l0,-0.55l1.43,-0.43l0,-0.45c0,-2 0.87,-3 2.59,-3a5,5 0 0 1 1.49,0.26l-0.31,1a4.09,4.09 0 0 0 -1.2,-0.23a1.19,1.19 0 0 0 -1,0.46a2.58,2.58 0 0 0 -0.33,1.47l0,0.52l2,0l0.06,0.91z" id="svg_305"/>
  <path class="cls-21" d="m531.26,91.43a4.42,4.42 0 0 1 -1,3.07a3.47,3.47 0 0 1 -2.74,1.1a3.7,3.7 0 0 1 -1.91,-0.5a3.44,3.44 0 0 1 -1.29,-1.45a5.11,5.11 0 0 1 -0.45,-2.22a4.44,4.44 0 0 1 1,-3.05a3.47,3.47 0 0 1 2.73,-1.1a3.41,3.41 0 0 1 2.67,1.12a4.42,4.42 0 0 1 0.99,3.03zm-6.11,0a3.83,3.83 0 0 0 0.61,2.35a2.44,2.44 0 0 0 3.63,0a3.79,3.79 0 0 0 0.61,-2.35a3.75,3.75 0 0 0 -0.61,-2.32a2.19,2.19 0 0 0 -1.83,-0.79a2.13,2.13 0 0 0 -1.8,0.78a3.72,3.72 0 0 0 -0.61,2.33z" id="svg_306"/>
  <path class="cls-21" d="m537,87.28a4.61,4.61 0 0 1 1,0.09l-0.16,1.13a4.48,4.48 0 0 0 -0.88,-0.11a2.13,2.13 0 0 0 -1.67,0.79a2.89,2.89 0 0 0 -0.69,2l0,4.32l-1.22,0l0,-8l1,0l0.13,1.49l0.06,0a3.47,3.47 0 0 1 1.08,-1.21a2.37,2.37 0 0 1 1.35,-0.5z" id="svg_307"/>
  <path class="cls-21" d="m232.42,113.6a3.42,3.42 0 0 1 -2.7,-1.07a4.46,4.46 0 0 1 -0.95,-3a4.53,4.53 0 0 1 1,-3.11a3.51,3.51 0 0 1 2.76,-1.1a5,5 0 0 1 1.16,0.13a3.75,3.75 0 0 1 0.91,0.29l-0.37,1a7,7 0 0 0 -0.88,-0.26a3.46,3.46 0 0 0 -0.84,-0.11c-1.64,0 -2.45,1 -2.45,3.12a3.7,3.7 0 0 0 0.6,2.27a2,2 0 0 0 1.76,0.79a5.36,5.36 0 0 0 2.06,-0.43l0,1.07a4.34,4.34 0 0 1 -2.06,0.41z" id="svg_308"/>
  <path class="cls-21" d="m243.08,109.43a4.43,4.43 0 0 1 -1,3.07a3.46,3.46 0 0 1 -2.73,1.1a3.68,3.68 0 0 1 -1.91,-0.5a3.32,3.32 0 0 1 -1.29,-1.45a5.11,5.11 0 0 1 -0.45,-2.22a4.39,4.39 0 0 1 1,-3.05a3.84,3.84 0 0 1 5.4,0a4.42,4.42 0 0 1 0.98,3.05zm-6.12,0a3.83,3.83 0 0 0 0.62,2.35a2.43,2.43 0 0 0 3.62,0a3.72,3.72 0 0 0 0.62,-2.35a3.69,3.69 0 0 0 -0.62,-2.32a2.49,2.49 0 0 0 -3.63,0a3.79,3.79 0 0 0 -0.57,2.32l-0.04,0z" id="svg_309"/>
  <path class="cls-21" d="m250.63,113.5l0,-5.2a2.12,2.12 0 0 0 -0.44,-1.46a1.84,1.84 0 0 0 -1.4,-0.48a2.3,2.3 0 0 0 -1.85,0.68a3.43,3.43 0 0 0 -0.59,2.25l0,4.21l-1.21,0l0,-8l1,0l0.2,1.1l0,0a2.48,2.48 0 0 1 1.05,-0.92a3.37,3.37 0 0 1 1.5,-0.33a3.1,3.1 0 0 1 2.19,0.7a3,3 0 0 1 0.73,2.24l0,5.21l-1.18,0z" id="svg_310"/>
  <path class="cls-21" d="m256.89,112.6a4.1,4.1 0 0 0 0.62,0a3,3 0 0 0 0.48,-0.1l0,0.93a1.87,1.87 0 0 1 -0.58,0.16a4.6,4.6 0 0 1 -0.69,0.06c-1.56,0 -2.33,-0.81 -2.33,-2.45l0,-4.78l-1.15,0l0,-0.58l1.15,-0.51l0.51,-1.71l0.7,0l0,1.86l2.33,0l0,0.94l-2.33,0l0,4.73a1.62,1.62 0 0 0 0.35,1.11a1.19,1.19 0 0 0 0.94,0.34z" id="svg_311"/>
  <path class="cls-21" d="m263.29,105.28a4.61,4.61 0 0 1 1,0.09l-0.17,1.13a4.31,4.31 0 0 0 -0.88,-0.11a2.12,2.12 0 0 0 -1.66,0.79a2.89,2.89 0 0 0 -0.7,2l0,4.32l-1.21,0l0,-8l1,0l0.14,1.49l0.06,0a3.47,3.47 0 0 1 1.08,-1.21a2.37,2.37 0 0 1 1.34,-0.5z" id="svg_312"/>
  <path class="cls-21" d="m272.54,109.43a4.43,4.43 0 0 1 -1,3.07a3.46,3.46 0 0 1 -2.73,1.1a3.68,3.68 0 0 1 -1.91,-0.5a3.32,3.32 0 0 1 -1.29,-1.45a5.11,5.11 0 0 1 -0.45,-2.22a4.39,4.39 0 0 1 1,-3.05a3.84,3.84 0 0 1 5.4,0a4.42,4.42 0 0 1 0.98,3.05zm-6.12,0a3.83,3.83 0 0 0 0.62,2.35a2.43,2.43 0 0 0 3.62,0a3.72,3.72 0 0 0 0.62,-2.35a3.69,3.69 0 0 0 -0.62,-2.32a2.49,2.49 0 0 0 -3.63,0a3.79,3.79 0 0 0 -0.61,2.32z" id="svg_313"/>
  <path class="cls-21" d="m275.83,113.5l-1.22,0l0,-11.4l1.22,0l0,11.4z" id="svg_314"/>
  <path class="cls-21" d="m279.49,113.5l-1.21,0l0,-11.4l1.21,0l0,11.4z" id="svg_315"/>
  <path class="cls-21" d="m281.83,103.25a0.81,0.81 0 0 1 0.21,-0.61a0.72,0.72 0 0 1 0.51,-0.19a0.69,0.69 0 0 1 0.51,0.2a0.78,0.78 0 0 1 0.21,0.6a0.83,0.83 0 0 1 -0.21,0.62a0.75,0.75 0 0 1 -1,0a0.83,0.83 0 0 1 -0.23,-0.62zm1.32,10.25l-1.21,0l0,-8l1.21,0l0,8z" id="svg_316"/>
  <path class="cls-21" d="m291.09,113.5l0,-5.2a2.12,2.12 0 0 0 -0.44,-1.46a1.84,1.84 0 0 0 -1.4,-0.48a2.3,2.3 0 0 0 -1.85,0.68a3.43,3.43 0 0 0 -0.59,2.25l0,4.21l-1.21,0l0,-8l1,0l0.2,1.1l0,0a2.48,2.48 0 0 1 1.05,-0.92a3.37,3.37 0 0 1 1.5,-0.33a3.1,3.1 0 0 1 2.19,0.7a3,3 0 0 1 0.73,2.24l0,5.21l-1.18,0z" id="svg_317"/>
  <path class="cls-21" d="m301.28,105.43l0,0.77l-1.49,0.17a2.8,2.8 0 0 1 0.37,0.67a2.54,2.54 0 0 1 0.16,0.94a2.37,2.37 0 0 1 -0.81,1.88a3.22,3.22 0 0 1 -2.21,0.7a4.68,4.68 0 0 1 -0.67,-0.05a1.18,1.18 0 0 0 -0.78,1a0.51,0.51 0 0 0 0.27,0.48a1.91,1.91 0 0 0 0.93,0.16l1.42,0a3.19,3.19 0 0 1 2,0.55a1.94,1.94 0 0 1 0.7,1.6a2.28,2.28 0 0 1 -1.07,2a5.72,5.72 0 0 1 -3.12,0.7a4.28,4.28 0 0 1 -2.43,-0.59a2,2 0 0 1 -0.39,-2.92a2.43,2.43 0 0 1 1.32,-0.72a1.34,1.34 0 0 1 -0.51,-0.44a1.12,1.12 0 0 1 -0.21,-0.68a1.34,1.34 0 0 1 0.23,-0.77a2.39,2.39 0 0 1 0.74,-0.63a2.14,2.14 0 0 1 -1,-0.88a2.54,2.54 0 0 1 -0.39,-1.4a2.57,2.57 0 0 1 0.79,-2a3.19,3.19 0 0 1 2.24,-0.72a3.91,3.91 0 0 1 1.13,0.15l2.78,0.03zm-6.4,9.37a1.07,1.07 0 0 0 0.55,1a3,3 0 0 0 1.57,0.34a4.36,4.36 0 0 0 2.27,-0.46a1.39,1.39 0 0 0 0.73,-1.24a1,1 0 0 0 -0.4,-0.9a3.07,3.07 0 0 0 -1.51,-0.26l-1.46,0a2,2 0 0 0 -1.29,0.4a1.39,1.39 0 0 0 -0.46,1.12zm0.66,-6.8a1.64,1.64 0 0 0 0.47,1.27a1.9,1.9 0 0 0 1.33,0.44a1.55,1.55 0 0 0 1.78,-1.73a1.59,1.59 0 0 0 -1.8,-1.81a1.78,1.78 0 0 0 -1.32,0.46a1.85,1.85 0 0 0 -0.46,1.37z" id="svg_318"/>
  <path class="cls-21" d="m310.56,113.6a3.36,3.36 0 0 1 -1.43,-0.29a2.61,2.61 0 0 1 -1.09,-0.89l-0.04,0a10.64,10.64 0 0 1 0.09,1.34l0,3.3l-1.22,0l0,-11.63l1,0l0.13,1.07l0,0a2.72,2.72 0 0 1 1.09,-0.95a3.23,3.23 0 0 1 1.43,-0.3a3,3 0 0 1 2.46,1.09a5.82,5.82 0 0 1 0,6.14a3,3 0 0 1 -2.42,1.12zm-0.18,-7.28a2.14,2.14 0 0 0 -1.78,0.68a3.52,3.52 0 0 0 -0.56,2.16l0,0.27a4.1,4.1 0 0 0 0.56,2.43a2.17,2.17 0 0 0 1.81,0.73a1.88,1.88 0 0 0 1.63,-0.85a4,4 0 0 0 0.59,-2.32a3.85,3.85 0 0 0 -0.59,-2.3a1.91,1.91 0 0 0 -1.66,-0.8z" id="svg_319"/>
  <path class="cls-21" d="m322.94,109.43a4.43,4.43 0 0 1 -1,3.07a3.46,3.46 0 0 1 -2.73,1.1a3.71,3.71 0 0 1 -1.92,-0.5a3.36,3.36 0 0 1 -1.28,-1.45a5,5 0 0 1 -0.46,-2.22a4.44,4.44 0 0 1 1,-3.05a3.48,3.48 0 0 1 2.73,-1.1a3.41,3.41 0 0 1 2.67,1.12a4.38,4.38 0 0 1 0.99,3.03zm-6.12,0a3.83,3.83 0 0 0 0.62,2.35a2.43,2.43 0 0 0 3.62,0a4.71,4.71 0 0 0 0,-4.67a2.17,2.17 0 0 0 -1.83,-0.79a2.13,2.13 0 0 0 -1.8,0.78a3.72,3.72 0 0 0 -0.61,2.33z" id="svg_320"/>
  <path class="cls-21" d="m328.66,105.28a4.75,4.75 0 0 1 1,0.09l-0.17,1.13a4.39,4.39 0 0 0 -0.88,-0.11a2.13,2.13 0 0 0 -1.67,0.79a2.89,2.89 0 0 0 -0.69,2l0,4.32l-1.25,0l0,-8l1,0l0.14,1.49l0.06,0a3.35,3.35 0 0 1 1.07,-1.21a2.38,2.38 0 0 1 1.39,-0.5z" id="svg_321"/>
  <path class="cls-21" d="m334.31,112.6a4.21,4.21 0 0 0 0.62,0a3,3 0 0 0 0.48,-0.1l0,0.93a2,2 0 0 1 -0.58,0.16a4.62,4.62 0 0 1 -0.7,0.06c-1.55,0 -2.33,-0.81 -2.33,-2.45l0,-4.78l-1.15,0l0,-0.58l1.15,-0.51l0.52,-1.71l0.7,0l0,1.86l2.33,0l0,0.94l-2.35,0l0,4.73a1.57,1.57 0 0 0 0.35,1.11a1.17,1.17 0 0 0 0.96,0.34z" id="svg_322"/>
  <path class="cls-21" d="m342.46,111.27a2,2 0 0 1 -0.83,1.73a4,4 0 0 1 -2.34,0.6a5.15,5.15 0 0 1 -2.49,-0.5l0,-1.13a5.56,5.56 0 0 0 1.24,0.46a5.3,5.3 0 0 0 1.28,0.17a2.92,2.92 0 0 0 1.46,-0.3a1,1 0 0 0 0.51,-0.93a1,1 0 0 0 -0.4,-0.8a6.32,6.32 0 0 0 -1.59,-0.79a8.24,8.24 0 0 1 -1.59,-0.73a2.18,2.18 0 0 1 -0.71,-0.71a1.87,1.87 0 0 1 -0.23,-0.94a1.82,1.82 0 0 1 0.8,-1.55a3.7,3.7 0 0 1 2.19,-0.57a6.46,6.46 0 0 1 2.54,0.53l-0.43,1a5.9,5.9 0 0 0 -2.2,-0.5a2.52,2.52 0 0 0 -1.3,0.27a0.85,0.85 0 0 0 -0.44,0.75a0.92,0.92 0 0 0 0.17,0.55a1.62,1.62 0 0 0 0.53,0.43a10,10 0 0 0 1.4,0.59a5.21,5.21 0 0 1 1.93,1.05a1.82,1.82 0 0 1 0.5,1.32z" id="svg_323"/>
  <path class="cls-21" d="m353.28,113.5l-0.24,-1.15l-0.04,0a3.34,3.34 0 0 1 -1.2,1a3.82,3.82 0 0 1 -1.49,0.26a2.67,2.67 0 0 1 -1.87,-0.61a2.23,2.23 0 0 1 -0.68,-1.75q0,-2.43 3.89,-2.55l1.36,-0.05l0,-0.49a2,2 0 0 0 -0.41,-1.4a1.67,1.67 0 0 0 -1.3,-0.45a5.36,5.36 0 0 0 -2.27,0.62l-0.37,-0.93a5.5,5.5 0 0 1 1.3,-0.51a5.7,5.7 0 0 1 1.42,-0.18a3.11,3.11 0 0 1 2.13,0.63a2.68,2.68 0 0 1 0.69,2l0,5.56l-0.92,0zm-2.75,-0.86a2.47,2.47 0 0 0 1.78,-0.62a2.29,2.29 0 0 0 0.65,-1.75l0,-0.77l-1.21,0.05a4.37,4.37 0 0 0 -2.1,0.45a1.38,1.38 0 0 0 -0.64,1.24a1.29,1.29 0 0 0 0.4,1a1.72,1.72 0 0 0 1.12,0.36l0,0.04z" id="svg_324"/>
  <path class="cls-21" d="m362.08,113.5l0,-5.2a2.12,2.12 0 0 0 -0.44,-1.46a1.84,1.84 0 0 0 -1.4,-0.48a2.3,2.3 0 0 0 -1.85,0.68a3.43,3.43 0 0 0 -0.59,2.25l0,4.21l-1.21,0l0,-8l1,0l0.2,1.1l0.05,0a2.48,2.48 0 0 1 1.05,-0.92a3.37,3.37 0 0 1 1.5,-0.33a3.1,3.1 0 0 1 2.19,0.7a3,3 0 0 1 0.73,2.24l0,5.21l-1.23,0z" id="svg_325"/>
  <path class="cls-21" d="m371.23,112.38l-0.07,0a2.84,2.84 0 0 1 -2.52,1.22a3,3 0 0 1 -2.45,-1.07a4.78,4.78 0 0 1 -0.87,-3.07a4.85,4.85 0 0 1 0.87,-3.08a3,3 0 0 1 2.45,-1.1a2.94,2.94 0 0 1 2.51,1.19l0.09,0l-0.05,-0.58l0,-0.56l0,-3.27l1.22,0l0,11.44l-1,0l-0.18,-1.12zm-2.44,0.21a2.23,2.23 0 0 0 1.81,-0.68a3.45,3.45 0 0 0 0.56,-2.19l0,-0.22a4,4 0 0 0 -0.57,-2.43a2.14,2.14 0 0 0 -1.81,-0.73a1.88,1.88 0 0 0 -1.64,0.83a4.15,4.15 0 0 0 -0.56,2.35a3.91,3.91 0 0 0 0.56,2.32a1.93,1.93 0 0 0 1.65,0.75z" id="svg_326"/>
  <path class="cls-21" d="m384,111.27a2,2 0 0 1 -0.84,1.73a3.93,3.93 0 0 1 -2.34,0.6a5.2,5.2 0 0 1 -2.49,-0.5l0,-1.13a5.75,5.75 0 0 0 1.24,0.46a5.3,5.3 0 0 0 1.28,0.17a2.92,2.92 0 0 0 1.46,-0.3a1,1 0 0 0 0.11,-1.73a6.32,6.32 0 0 0 -1.59,-0.79a8.88,8.88 0 0 1 -1.59,-0.73a2.15,2.15 0 0 1 -0.7,-0.71a1.87,1.87 0 0 1 -0.23,-0.94a1.79,1.79 0 0 1 0.8,-1.55a3.7,3.7 0 0 1 2.19,-0.57a6.41,6.41 0 0 1 2.53,0.53l-0.43,1a5.9,5.9 0 0 0 -2.19,-0.5a2.56,2.56 0 0 0 -1.31,0.27a0.84,0.84 0 0 0 -0.43,0.75a0.92,0.92 0 0 0 0.16,0.55a1.73,1.73 0 0 0 0.53,0.43a9.71,9.71 0 0 0 1.41,0.59a5.39,5.39 0 0 1 1.93,1.05a1.86,1.86 0 0 1 0.5,1.32z" id="svg_327"/>
  <path class="cls-21" d="m389.4,113.6a3.7,3.7 0 0 1 -2.81,-1.08a4.18,4.18 0 0 1 -1,-3a4.63,4.63 0 0 1 1,-3.08a3.14,3.14 0 0 1 2.56,-1.15a3,3 0 0 1 2.39,1a3.81,3.81 0 0 1 0.88,2.62l0,0.77l-5.53,0a3.19,3.19 0 0 0 0.71,2.15a2.48,2.48 0 0 0 1.91,0.73a6.43,6.43 0 0 0 2.56,-0.54l0,1.08a5.9,5.9 0 0 1 -1.21,0.4a7,7 0 0 1 -1.46,0.1zm-0.33,-7.3a2,2 0 0 0 -1.54,0.63a2.87,2.87 0 0 0 -0.68,1.74l4.2,0a2.64,2.64 0 0 0 -0.52,-1.76a1.79,1.79 0 0 0 -1.46,-0.61z" id="svg_328"/>
  <path class="cls-21" d="m399.6,111.27a2,2 0 0 1 -0.83,1.73a4,4 0 0 1 -2.35,0.6a5.2,5.2 0 0 1 -2.49,-0.5l0,-1.13a5.75,5.75 0 0 0 1.24,0.46a5.37,5.37 0 0 0 1.28,0.17a3,3 0 0 0 1.47,-0.3a1,1 0 0 0 0.51,-0.93a1,1 0 0 0 -0.41,-0.8a6.39,6.39 0 0 0 -1.58,-0.79a8.71,8.71 0 0 1 -1.6,-0.73a2.15,2.15 0 0 1 -0.7,-0.71a1.87,1.87 0 0 1 -0.23,-0.94a1.82,1.82 0 0 1 0.8,-1.55a3.7,3.7 0 0 1 2.19,-0.57a6.41,6.41 0 0 1 2.53,0.53l-0.43,1a5.9,5.9 0 0 0 -2.19,-0.5a2.5,2.5 0 0 0 -1.3,0.27a0.83,0.83 0 0 0 -0.44,0.75a0.92,0.92 0 0 0 0.16,0.55a1.73,1.73 0 0 0 0.53,0.43a10.85,10.85 0 0 0 1.41,0.59a5.39,5.39 0 0 1 1.93,1.05a1.86,1.86 0 0 1 0.5,1.32z" id="svg_329"/>
  <path class="cls-21" d="m406.82,111.27a2,2 0 0 1 -0.84,1.73a4,4 0 0 1 -2.34,0.6a5.15,5.15 0 0 1 -2.49,-0.5l0,-1.13a5.56,5.56 0 0 0 1.24,0.46a5.3,5.3 0 0 0 1.28,0.17a2.92,2.92 0 0 0 1.46,-0.3a1,1 0 0 0 0.51,-0.93a1,1 0 0 0 -0.4,-0.8a6.32,6.32 0 0 0 -1.59,-0.79a8.55,8.55 0 0 1 -1.59,-0.73a2.05,2.05 0 0 1 -0.7,-0.71a1.78,1.78 0 0 1 -0.24,-0.94a1.82,1.82 0 0 1 0.8,-1.55a3.74,3.74 0 0 1 2.19,-0.57a6.46,6.46 0 0 1 2.54,0.53l-0.43,1a5.9,5.9 0 0 0 -2.19,-0.5a2.54,2.54 0 0 0 -1.31,0.27a0.85,0.85 0 0 0 -0.44,0.75a0.92,0.92 0 0 0 0.17,0.55a1.62,1.62 0 0 0 0.53,0.43a10,10 0 0 0 1.4,0.59a5.21,5.21 0 0 1 1.93,1.05a1.83,1.83 0 0 1 0.51,1.32z" id="svg_330"/>
  <path class="cls-21" d="m408.55,103.25a0.81,0.81 0 0 1 0.21,-0.61a0.69,0.69 0 0 1 0.51,-0.19a0.68,0.68 0 0 1 0.5,0.2a0.75,0.75 0 0 1 0.22,0.6a0.8,0.8 0 0 1 -0.22,0.62a0.72,0.72 0 0 1 -0.5,0.2a0.69,0.69 0 0 1 -0.51,-0.2a0.83,0.83 0 0 1 -0.21,-0.62zm1.32,10.25l-1.22,0l0,-8l1.22,0l0,8z" id="svg_331"/>
  <path class="cls-21" d="m419.25,109.43a4.43,4.43 0 0 1 -1,3.07a3.45,3.45 0 0 1 -2.73,1.1a3.68,3.68 0 0 1 -1.91,-0.5a3.32,3.32 0 0 1 -1.29,-1.45a5.11,5.11 0 0 1 -0.45,-2.22a4.39,4.39 0 0 1 1,-3.05a3.46,3.46 0 0 1 2.72,-1.1a3.41,3.41 0 0 1 2.68,1.12a4.42,4.42 0 0 1 0.98,3.03zm-6.11,0a3.83,3.83 0 0 0 0.61,2.35a2.43,2.43 0 0 0 3.62,0a3.72,3.72 0 0 0 0.62,-2.35a3.69,3.69 0 0 0 -0.62,-2.32a2.16,2.16 0 0 0 -1.82,-0.79a2.13,2.13 0 0 0 -1.8,0.78a3.72,3.72 0 0 0 -0.61,2.33z" id="svg_332"/>
  <path class="cls-21" d="m426.8,113.5l0,-5.2a2.12,2.12 0 0 0 -0.44,-1.46a1.84,1.84 0 0 0 -1.4,-0.48a2.3,2.3 0 0 0 -1.85,0.68a3.43,3.43 0 0 0 -0.58,2.25l0,4.21l-1.22,0l0,-8l1,0l0.2,1.1l0.06,0a2.4,2.4 0 0 1 1,-0.92a3.37,3.37 0 0 1 1.5,-0.33a3.1,3.1 0 0 1 2.19,0.7a3,3 0 0 1 0.73,2.24l0,5.21l-1.19,0z" id="svg_333"/>
  <path class="cls-21" d="m435.57,111.27a2,2 0 0 1 -0.84,1.73a4,4 0 0 1 -2.34,0.6a5.15,5.15 0 0 1 -2.49,-0.5l0,-1.13a5.56,5.56 0 0 0 1.24,0.46a5.3,5.3 0 0 0 1.28,0.17a2.92,2.92 0 0 0 1.46,-0.3a1,1 0 0 0 0.52,-0.93a1,1 0 0 0 -0.41,-0.8a6.32,6.32 0 0 0 -1.59,-0.79a8.88,8.88 0 0 1 -1.59,-0.73a2.15,2.15 0 0 1 -0.7,-0.71a1.77,1.77 0 0 1 -0.23,-0.94a1.81,1.81 0 0 1 0.79,-1.55a3.75,3.75 0 0 1 2.2,-0.57a6.45,6.45 0 0 1 2.53,0.53l-0.43,1a5.9,5.9 0 0 0 -2.19,-0.5a2.56,2.56 0 0 0 -1.31,0.27a0.85,0.85 0 0 0 -0.44,0.75a0.92,0.92 0 0 0 0.17,0.55a1.73,1.73 0 0 0 0.53,0.43a9.71,9.71 0 0 0 1.41,0.59a5.39,5.39 0 0 1 1.93,1.05a1.86,1.86 0 0 1 0.5,1.32z" id="svg_334"/>
  <line class="cls-22" id="svg_466" x1="210.28" x2="222.2" y1="99.22" y2="99.22"/>
 </g>
</svg>