<?xml version="1.0"?>
<svg width="588" height="200" xmlns="http://www.w3.org/2000/svg" xmlns:svg="http://www.w3.org/2000/svg" xmlns:se="http://svg-edit.googlecode.com" data-name="Layer 1">
 <defs>
  <style>.cls-1,.cls-18,.cls-19{fill:#78b9db;}.cls-1,.cls-11,.cls-12,.cls-13,.cls-14,.cls-17,.cls-18,.cls-2,.cls-3,.cls-5,.cls-6,.cls-8,.cls-9{stroke:#fff;}.cls-1,.cls-22{stroke-linecap:round;stroke-linejoin:round;}.cls-2{fill:#77c3e2;}.cls-11,.cls-12,.cls-13,.cls-14,.cls-17,.cls-18,.cls-2,.cls-3,.cls-5,.cls-6,.cls-8,.cls-9{stroke-miterlimit:10;}.cls-3,.cls-4{fill:#8176b5;}.cls-5{fill:#7ac5d8;}.cls-6,.cls-7{fill:#7f81bb;}.cls-8{fill:#7cc6ce;}.cls-10,.cls-9{fill:#7d8fc3;}.cls-11{fill:#7fc6c5;}.cls-12,.cls-16{fill:#7b9fcc;}.cls-13{fill:#80c8bb;}.cls-14,.cls-15{fill:#79afd5;}.cls-17{fill:#82c9b1;}.cls-20{fill:#fff;}.cls-21{fill:#4d4d4f;}.cls-22{fill:none;stroke:#4c4c4c;stroke-width:2px;}</style>
 </defs>
 <title>lc-svg-version.1</title>
 <g class="layer">
  <title>Layer 1</title>
  <rect class="cls-11" height="43.26" id="svg_14" width="159.03" x="45.14" y="73.73"/>
  <rect class="cls-12" height="43.26" id="svg_15" width="159.03" x="7.53" y="83.65"/>
  <polygon class="cls-12" id="svg_16" points="166.55999755859375,126.91000366210938 204.1699981689453,116.99000549316406 204.1699981689453,73.72999572753906 166.55999755859375,83.64999389648438 166.55999755859375,126.91000366210938 "/>
  <polygon class="cls-16" id="svg_20" points="7.529999732971191,83.5 45.13999938964844,73.58000183105469 204.1699981689453,73.58000183105469 166.55999755859375,83.5 7.529999732971191,83.5 "/>
  <path class="cls-20" d="m189.38,103.75l-1.12,0l0,2.59l-1.92,0l0,-2.59l-4,0l0,-1.83l4.08,-8l1.81,0l0,7.83l1.12,0l0.03,2zm-3,-2l0,-2.12q0,-0.52 0,-1.53c0,-0.67 0,-1.06 0,-1.17l0,0a10.1,10.1 0 0 1 -0.56,1.37l-1.71,3.45l2.27,0z" id="svg_31"/>
  <path class="cls-20" d="m38.12,108.03l-1.76,0l0,-6.84l-2.26,0l0,-1.44l6.27,0l0,1.46l-2.25,0l0,6.82z" id="svg_80"/>
  <path class="cls-20" d="m43.41,104.85l0,3.18l-1.76,0l0,-8.28l2.42,0a4.09,4.09 0 0 1 2.51,0.62a2.46,2.46 0 0 1 0.41,3.17a2.7,2.7 0 0 1 -1.15,0.9c1.25,1.86 2.07,3.07 2.45,3.61l-2,0l-2,-3.18l-0.88,-0.02zm0,-1.43l0.59,0a2.19,2.19 0 0 0 1.23,-0.28a1,1 0 0 0 0.4,-0.88a0.91,0.91 0 0 0 -0.4,-0.84a2.56,2.56 0 0 0 -1.26,-0.25l-0.54,0l-0.02,2.25z" id="svg_81"/>
  <path class="cls-20" d="m54.42,108.03l-0.6,-2l-3,0l-0.61,2l-1.92,0l2.93,-8.34l2.15,0l2.94,8.34l-1.89,0zm-1,-3.45c-0.55,-1.79 -0.87,-2.8 -0.94,-3s-0.12,-0.42 -0.15,-0.56c-0.12,0.49 -0.48,1.69 -1.07,3.6l2.16,-0.04z" id="svg_82"/>
  <path class="cls-20" d="m64.73,108.03l-2.24,0l-3.61,-6.28l-0.05,0c0.07,1.11 0.1,1.9 0.1,2.38l0,3.9l-1.57,0l0,-8.28l2.22,0l3.61,6.22l0,0c-0.06,-1.08 -0.09,-1.84 -0.09,-2.29l0,-3.93l1.59,0l0.04,8.28z" id="svg_83"/>
  <path class="cls-20" d="m71.72,105.75a2.14,2.14 0 0 1 -0.81,1.77a3.52,3.52 0 0 1 -2.25,0.65a5.31,5.31 0 0 1 -2.35,-0.5l0,-1.64a9.36,9.36 0 0 0 1.42,0.53a4.3,4.3 0 0 0 1.07,0.15a1.47,1.47 0 0 0 0.88,-0.22a0.76,0.76 0 0 0 0.32,-0.66a0.74,0.74 0 0 0 -0.14,-0.43a1.61,1.61 0 0 0 -0.4,-0.37a11.25,11.25 0 0 0 -1.08,-0.56a5,5 0 0 1 -1.14,-0.69a2.62,2.62 0 0 1 -0.61,-0.76a2.26,2.26 0 0 1 -0.23,-1a2.14,2.14 0 0 1 0.75,-1.73a3.12,3.12 0 0 1 2.07,-0.63a4.93,4.93 0 0 1 1.23,0.15a9.08,9.08 0 0 1 1.23,0.43l-0.57,1.37a9.8,9.8 0 0 0 -1.1,-0.38a3.61,3.61 0 0 0 -0.85,-0.11a1.13,1.13 0 0 0 -0.77,0.24a0.75,0.75 0 0 0 -0.26,0.61a0.74,0.74 0 0 0 0.1,0.4a1.27,1.27 0 0 0 0.35,0.34a12.19,12.19 0 0 0 1.11,0.58a4.35,4.35 0 0 1 1.6,1.12a2.16,2.16 0 0 1 0.43,1.34z" id="svg_84"/>
  <path class="cls-20" d="m79,102.32a2.53,2.53 0 0 1 -0.83,2.05a3.63,3.63 0 0 1 -2.39,0.71l-0.78,0l0,2.95l-1.77,0l0,-8.28l2.65,0a3.56,3.56 0 0 1 2.3,0.65a2.38,2.38 0 0 1 0.82,1.92zm-4,1.32l0.58,0a1.94,1.94 0 0 0 1.21,-0.32a1.14,1.14 0 0 0 0.41,-0.94a1.15,1.15 0 0 0 -0.34,-0.91a1.58,1.58 0 0 0 -1.06,-0.3l-0.8,0l0,2.47z" id="svg_85"/>
  <path class="cls-20" d="m88.07,103.87a4.51,4.51 0 0 1 -1,3.17a4.42,4.42 0 0 1 -5.86,0a5.41,5.41 0 0 1 0,-6.35a4.48,4.48 0 0 1 5.87,0a4.54,4.54 0 0 1 0.99,3.18zm-6.06,0a3.49,3.49 0 0 0 0.53,2.1a1.84,1.84 0 0 0 1.58,0.7c1.4,0 2.11,-0.93 2.11,-2.8s-0.7,-2.81 -2.1,-2.81a1.88,1.88 0 0 0 -1.59,0.71a3.49,3.49 0 0 0 -0.54,2.1l0.01,0z" id="svg_86"/>
  <path class="cls-20" d="m91.56,104.85l0,3.18l-1.77,0l0,-8.28l2.42,0a4.09,4.09 0 0 1 2.51,0.62a2.46,2.46 0 0 1 0.41,3.17a2.73,2.73 0 0 1 -1.14,0.9c1.25,1.86 2.06,3.07 2.44,3.61l-2,0l-2,-3.18l-0.87,-0.02zm0,-1.43l0.56,0a2.25,2.25 0 0 0 1.24,-0.28a1,1 0 0 0 0.39,-0.88a0.91,0.91 0 0 0 -0.4,-0.84a2.54,2.54 0 0 0 -1.26,-0.25l-0.53,0l0,2.25z" id="svg_87"/>
  <path class="cls-20" d="m100.68,108.03l-1.76,0l0,-6.84l-2.26,0l0,-1.44l6.27,0l0,1.46l-2.25,0l0,6.82z" id="svg_88"/>
  <path class="cls-20" d="m107.24,108.03l0,-8.28l1.76,0l0,6.85l3.37,0l0,1.45l-5.13,-0.02z" id="svg_89"/>
  <path class="cls-20" d="m118.89,108.03l-0.6,-2l-3,0l-0.6,2l-1.9,0l2.94,-8.34l2.15,0l2.94,8.34l-1.93,0zm-1,-3.45c-0.56,-1.79 -0.87,-2.8 -0.94,-3s-0.12,-0.42 -0.15,-0.56c-0.12,0.49 -0.48,1.69 -1.07,3.6l2.16,-0.04z" id="svg_90"/>
  <path class="cls-20" d="m124.42,103.15l1.73,-3.42l1.9,0l-2.75,5.07l0,3.23l-1.75,0l0,-3.17l-2.76,-5.11l1.91,0l1.72,3.4z" id="svg_91"/>
  <path class="cls-20" d="m133.88,108.03l-4.78,0l0,-8.28l4.78,0l0,1.44l-3,0l0,1.83l2.81,0l0,1.44l-2.81,0l0,2.14l3,0l0,1.43z" id="svg_92"/>
  <path class="cls-20" d="m137.38,104.85l0,3.18l-1.77,0l0,-8.28l2.39,0a4.09,4.09 0 0 1 2.51,0.62a2.46,2.46 0 0 1 0.41,3.17a2.73,2.73 0 0 1 -1.14,0.9c1.25,1.86 2.06,3.07 2.44,3.61l-2,0l-2,-3.18l-0.84,-0.02zm0,-1.43l0.56,0a2.25,2.25 0 0 0 1.24,-0.28a1,1 0 0 0 0.39,-0.88a0.91,0.91 0 0 0 -0.4,-0.84a2.54,2.54 0 0 0 -1.26,-0.25l-0.53,0l0,2.25z" id="svg_93"/>
  <path class="cls-21" d="m232.69,95.75l-1.24,0l0,-9.61l-3.39,0l0,-1.1l8,0l0,1.1l-3.4,0l0.03,9.61z" id="svg_335"/>
  <path class="cls-21" d="m240,87.59a4.61,4.61 0 0 1 1,0.09l-0.16,1.13a3.83,3.83 0 0 0 -0.88,-0.11a2.13,2.13 0 0 0 -1.67,0.79a2.89,2.89 0 0 0 -0.69,2l0,4.26l-1.22,0l0,-8l1,0l0.13,1.48l0.06,0a3.52,3.52 0 0 1 1.08,-1.2a2.37,2.37 0 0 1 1.35,-0.44z" id="svg_336"/>
  <path class="cls-21" d="m247.29,95.75l-0.24,-1.15l-0.05,0a3.21,3.21 0 0 1 -1.2,1a3.61,3.61 0 0 1 -1.49,0.27a2.67,2.67 0 0 1 -1.87,-0.61a2.26,2.26 0 0 1 -0.68,-1.75q0,-2.43 3.89,-2.55l1.36,-0.05l0,-0.49a2.05,2.05 0 0 0 -0.4,-1.4a1.68,1.68 0 0 0 -1.3,-0.45a5.26,5.26 0 0 0 -2.27,0.61l-0.38,-0.92a5.5,5.5 0 0 1 1.34,-0.51a5.76,5.76 0 0 1 1.42,-0.18a3.08,3.08 0 0 1 2.13,0.63a2.68,2.68 0 0 1 0.69,2l0,5.55l-0.95,0zm-2.75,-0.86a2.51,2.51 0 0 0 1.79,-0.62a2.33,2.33 0 0 0 0.64,-1.75l0,-0.72l-1.21,0.05a4.29,4.29 0 0 0 -2.09,0.45a1.36,1.36 0 0 0 -0.64,1.24a1.22,1.22 0 0 0 0.4,1a1.62,1.62 0 0 0 1.11,0.37l0,-0.02z" id="svg_337"/>
  <path class="cls-21" d="m256.09,95.75l0,-5.2a2.07,2.07 0 0 0 -0.44,-1.46a1.84,1.84 0 0 0 -1.4,-0.48a2.3,2.3 0 0 0 -1.85,0.68a3.43,3.43 0 0 0 -0.58,2.25l0,4.21l-1.22,0l0,-8l1,0l0.2,1.1l0.06,0a2.45,2.45 0 0 1 1,-0.92a3.38,3.38 0 0 1 1.51,-0.33a3.09,3.09 0 0 1 2.18,0.7a3,3 0 0 1 0.73,2.24l0,5.21l-1.19,0z" id="svg_338"/>
  <path class="cls-21" d="m264.86,93.58a2,2 0 0 1 -0.84,1.73a3.93,3.93 0 0 1 -2.34,0.6a5.2,5.2 0 0 1 -2.49,-0.5l0,-1.13a6.33,6.33 0 0 0 1.24,0.46a5.3,5.3 0 0 0 1.28,0.17a2.81,2.81 0 0 0 1.46,-0.31a1,1 0 0 0 0.52,-0.92a1,1 0 0 0 -0.41,-0.8a6,6 0 0 0 -1.59,-0.79a8.88,8.88 0 0 1 -1.59,-0.73a2.15,2.15 0 0 1 -0.7,-0.71a1.87,1.87 0 0 1 -0.23,-0.94a1.79,1.79 0 0 1 0.8,-1.55a3.7,3.7 0 0 1 2.19,-0.57a6.41,6.41 0 0 1 2.53,0.53l-0.43,1a5.9,5.9 0 0 0 -2.19,-0.5a2.56,2.56 0 0 0 -1.31,0.27a0.84,0.84 0 0 0 -0.43,0.75a0.92,0.92 0 0 0 0.16,0.55a1.73,1.73 0 0 0 0.53,0.43a11,11 0 0 0 1.41,0.59a5.39,5.39 0 0 1 1.93,1.05a1.86,1.86 0 0 1 0.5,1.32z" id="svg_339"/>
  <path class="cls-21" d="m277,95.75l0,-5.23a2.19,2.19 0 0 0 -0.41,-1.44a1.6,1.6 0 0 0 -1.28,-0.47a2,2 0 0 0 -1.67,0.65a3,3 0 0 0 -0.55,2l0,4.49l-1.21,0l0,-5.23a2.19,2.19 0 0 0 -0.41,-1.44a1.6,1.6 0 0 0 -1.28,-0.47a2,2 0 0 0 -1.68,0.68a3.74,3.74 0 0 0 -0.53,2.25l0,4.21l-1.21,0l0,-8l1,0l0.2,1.1l0.03,0a2.39,2.39 0 0 1 1,-0.92a3,3 0 0 1 1.4,-0.33a2.38,2.38 0 0 1 2.46,1.36l0.06,0a2.55,2.55 0 0 1 1,-1a3.21,3.21 0 0 1 1.56,-0.37a2.77,2.77 0 0 1 2,0.7a3.14,3.14 0 0 1 0.67,2.24l0,5.22l-1.15,0z" id="svg_340"/>
  <path class="cls-21" d="m280.45,85.56a0.81,0.81 0 0 1 0.21,-0.61a0.69,0.69 0 0 1 0.51,-0.19a0.68,0.68 0 0 1 0.5,0.2a0.75,0.75 0 0 1 0.22,0.6a0.8,0.8 0 0 1 -0.22,0.62a0.72,0.72 0 0 1 -0.5,0.2a0.69,0.69 0 0 1 -0.51,-0.2a0.83,0.83 0 0 1 -0.21,-0.62zm1.32,10.19l-1.22,0l0,-8l1.22,0l0,8z" id="svg_341"/>
  <path class="cls-21" d="m287,94.91a4.21,4.21 0 0 0 0.62,0a2.66,2.66 0 0 0 0.47,-0.1l0,0.93a1.87,1.87 0 0 1 -0.58,0.16a4.39,4.39 0 0 1 -0.69,0.06c-1.55,0 -2.33,-0.81 -2.33,-2.45l0,-4.78l-1.15,0l0,-0.58l1.15,-0.51l0.51,-1.71l0.71,0l0,1.82l2.33,0l0,0.94l-2.33,0l0,4.73a1.62,1.62 0 0 0 0.34,1.11a1.21,1.21 0 0 0 0.95,0.38z" id="svg_342"/>
  <path class="cls-21" d="m295.16,93.58a2,2 0 0 1 -0.83,1.73a4,4 0 0 1 -2.34,0.6a5.15,5.15 0 0 1 -2.49,-0.5l0,-1.13a5.88,5.88 0 0 0 1.24,0.46a5.23,5.23 0 0 0 1.27,0.17a2.82,2.82 0 0 0 1.47,-0.31a1,1 0 0 0 0.51,-0.92a1,1 0 0 0 -0.41,-0.8a5.88,5.88 0 0 0 -1.58,-0.79a8.24,8.24 0 0 1 -1.59,-0.73a2.18,2.18 0 0 1 -0.71,-0.71a1.87,1.87 0 0 1 -0.23,-0.94a1.82,1.82 0 0 1 0.8,-1.55a3.7,3.7 0 0 1 2.19,-0.57a6.46,6.46 0 0 1 2.54,0.53l-0.44,1a5.82,5.82 0 0 0 -2.19,-0.5a2.52,2.52 0 0 0 -1.3,0.27a0.85,0.85 0 0 0 -0.44,0.75a0.92,0.92 0 0 0 0.16,0.55a1.67,1.67 0 0 0 0.54,0.43a11.38,11.38 0 0 0 1.4,0.59a5.3,5.3 0 0 1 1.93,1.05a1.82,1.82 0 0 1 0.5,1.32z" id="svg_343"/>
  <path class="cls-21" d="m306.5,94.69l-0.06,0a2.86,2.86 0 0 1 -2.52,1.22a3,3 0 0 1 -2.45,-1.07a4.72,4.72 0 0 1 -0.88,-3.07a4.79,4.79 0 0 1 0.88,-3.08a3,3 0 0 1 2.45,-1.1a2.92,2.92 0 0 1 2.5,1.19l0.1,0l0,-0.58l0,-0.56l0,-3.27l1.21,0l0,11.38l-1,0l-0.23,-1.06zm-2.43,0.2a2.24,2.24 0 0 0 1.81,-0.67a3.47,3.47 0 0 0 0.56,-2.19l0,-0.28a4,4 0 0 0 -0.57,-2.43a2.14,2.14 0 0 0 -1.81,-0.73a1.87,1.87 0 0 0 -1.64,0.83a4.14,4.14 0 0 0 -0.57,2.35a3.93,3.93 0 0 0 0.57,2.32a1.89,1.89 0 0 0 1.65,0.8z" id="svg_344"/>
  <path class="cls-21" d="m315,95.75l-0.24,-1.15l-0.06,0a3.21,3.21 0 0 1 -1.2,1a3.64,3.64 0 0 1 -1.49,0.27a2.67,2.67 0 0 1 -1.87,-0.61a2.26,2.26 0 0 1 -0.68,-1.75q0,-2.43 3.89,-2.55l1.36,-0.05l0,-0.49a2,2 0 0 0 -0.41,-1.4a1.67,1.67 0 0 0 -1.3,-0.45a5.33,5.33 0 0 0 -2.27,0.61l-0.37,-0.92a5.5,5.5 0 0 1 1.3,-0.51a5.7,5.7 0 0 1 1.42,-0.18a3.11,3.11 0 0 1 2.13,0.63a2.68,2.68 0 0 1 0.69,2l0,5.55l-0.9,0zm-2.75,-0.86a2.47,2.47 0 0 0 1.78,-0.62a2.29,2.29 0 0 0 0.65,-1.75l0,-0.72l-1.21,0.05a4.37,4.37 0 0 0 -2.1,0.45a1.38,1.38 0 0 0 -0.64,1.24a1.25,1.25 0 0 0 0.4,1a1.67,1.67 0 0 0 1.13,0.37l-0.01,-0.02z" id="svg_345"/>
  <path class="cls-21" d="m321,94.91a4.21,4.21 0 0 0 0.62,0a3,3 0 0 0 0.48,-0.1l0,0.93a2,2 0 0 1 -0.59,0.16a4.39,4.39 0 0 1 -0.69,0.06c-1.55,0 -2.33,-0.81 -2.33,-2.45l0,-4.78l-1.15,0l0,-0.58l1.15,-0.51l0.52,-1.71l0.7,0l0,1.82l2.29,0l0,0.94l-2.3,0l0,4.73a1.62,1.62 0 0 0 0.34,1.11a1.21,1.21 0 0 0 0.96,0.38z" id="svg_346"/>
  <path class="cls-21" d="m328.87,95.75l-0.24,-1.15l-0.06,0a3.21,3.21 0 0 1 -1.2,1a3.58,3.58 0 0 1 -1.49,0.27a2.68,2.68 0 0 1 -1.87,-0.61a2.26,2.26 0 0 1 -0.68,-1.75q0,-2.43 3.89,-2.55l1.37,-0.05l0,-0.49a2.05,2.05 0 0 0 -0.41,-1.4a1.67,1.67 0 0 0 -1.3,-0.45a5.26,5.26 0 0 0 -2.27,0.61l-0.37,-0.92a5.18,5.18 0 0 1 1.3,-0.51a5.68,5.68 0 0 1 1.41,-0.18a3.08,3.08 0 0 1 2.13,0.63a2.68,2.68 0 0 1 0.69,2l0,5.55l-0.9,0zm-2.75,-0.86a2.5,2.5 0 0 0 1.79,-0.62a2.33,2.33 0 0 0 0.65,-1.75l0,-0.72l-1.22,0.05a4.35,4.35 0 0 0 -2.09,0.45a1.36,1.36 0 0 0 -0.64,1.24a1.22,1.22 0 0 0 0.4,1a1.64,1.64 0 0 0 1.11,0.37l0,-0.02z" id="svg_347"/>
  <path class="cls-21" d="m337.32,87.75l0,5.21a2.07,2.07 0 0 0 0.44,1.46a1.84,1.84 0 0 0 1.4,0.48a2.26,2.26 0 0 0 1.84,-0.68a3.47,3.47 0 0 0 0.59,-2.25l0,-4.22l1.21,0l0,8l-1,0l-0.18,-1.08l-0.06,0a2.49,2.49 0 0 1 -1,0.91a3.48,3.48 0 0 1 -1.51,0.31a3.1,3.1 0 0 1 -2.2,-0.69a3,3 0 0 1 -0.72,-2.23l0,-5.22l1.19,0z" id="svg_348"/>
  <path class="cls-21" d="m350.47,93.58a2,2 0 0 1 -0.84,1.73a4,4 0 0 1 -2.34,0.6a5.15,5.15 0 0 1 -2.49,-0.5l0,-1.13a6.1,6.1 0 0 0 1.2,0.47a5.3,5.3 0 0 0 1.28,0.17a2.81,2.81 0 0 0 1.46,-0.31a1,1 0 0 0 0.11,-1.72a6,6 0 0 0 -1.59,-0.79a8.88,8.88 0 0 1 -1.59,-0.73a2.15,2.15 0 0 1 -0.7,-0.71a1.77,1.77 0 0 1 -0.23,-0.94a1.79,1.79 0 0 1 0.8,-1.55a3.7,3.7 0 0 1 2.19,-0.57a6.45,6.45 0 0 1 2.53,0.53l-0.43,1a5.9,5.9 0 0 0 -2.19,-0.5a2.56,2.56 0 0 0 -1.31,0.27a0.85,0.85 0 0 0 -0.44,0.75a0.92,0.92 0 0 0 0.17,0.55a1.73,1.73 0 0 0 0.53,0.43a11,11 0 0 0 1.41,0.59a5.39,5.39 0 0 1 2,1.03a1.86,1.86 0 0 1 0.47,1.33z" id="svg_349"/>
  <path class="cls-21" d="m352.2,85.56a0.81,0.81 0 0 1 0.21,-0.61a0.76,0.76 0 0 1 1,0a0.78,0.78 0 0 1 0.21,0.6a0.83,0.83 0 0 1 -0.21,0.62a0.74,0.74 0 0 1 -0.51,0.2a0.71,0.71 0 0 1 -0.51,-0.2a0.83,0.83 0 0 1 -0.19,-0.61zm1.32,10.19l-1.21,0l0,-8l1.21,0l0,8z" id="svg_350"/>
  <path class="cls-21" d="m361.46,95.75l0,-5.2a2.12,2.12 0 0 0 -0.44,-1.46a1.84,1.84 0 0 0 -1.4,-0.48a2.3,2.3 0 0 0 -1.85,0.68a3.43,3.43 0 0 0 -0.59,2.25l0,4.21l-1.18,0l0,-8l1,0l0.2,1.1l0,0a2.48,2.48 0 0 1 1.05,-0.92a3.37,3.37 0 0 1 1.5,-0.33a3.1,3.1 0 0 1 2.19,0.7a3,3 0 0 1 0.73,2.24l0,5.21l-1.21,0z" id="svg_351"/>
  <path class="cls-21" d="m371.65,87.75l0,0.77l-1.49,0.17a2.62,2.62 0 0 1 0.37,0.67a2.54,2.54 0 0 1 0.16,0.94a2.37,2.37 0 0 1 -0.81,1.88a3.22,3.22 0 0 1 -2.21,0.7a3.55,3.55 0 0 1 -0.67,-0.06a1.21,1.21 0 0 0 -0.78,1a0.51,0.51 0 0 0 0.27,0.48a1.91,1.91 0 0 0 0.93,0.16l1.42,0a3.19,3.19 0 0 1 2,0.55a1.94,1.94 0 0 1 0.7,1.6a2.28,2.28 0 0 1 -1.07,2a5.72,5.72 0 0 1 -3.12,0.7a4.28,4.28 0 0 1 -2.43,-0.59a2,2 0 0 1 -0.39,-2.92a2.43,2.43 0 0 1 1.32,-0.72a1.34,1.34 0 0 1 -0.51,-0.44a1.12,1.12 0 0 1 -0.21,-0.68a1.34,1.34 0 0 1 0.23,-0.77a2.39,2.39 0 0 1 0.74,-0.63a2.19,2.19 0 0 1 -1,-0.88a2.54,2.54 0 0 1 -0.39,-1.4a2.57,2.57 0 0 1 0.79,-2a3.19,3.19 0 0 1 2.24,-0.72a3.91,3.91 0 0 1 1.13,0.15l2.78,0.04zm-6.4,9.37a1.07,1.07 0 0 0 0.55,1a3,3 0 0 0 1.57,0.34a4.36,4.36 0 0 0 2.27,-0.46a1.39,1.39 0 0 0 0.73,-1.24a1,1 0 0 0 -0.4,-0.9a3.07,3.07 0 0 0 -1.51,-0.26l-1.46,0a2,2 0 0 0 -1.29,0.4a1.39,1.39 0 0 0 -0.46,1.11l0,0.01zm0.66,-6.8a1.64,1.64 0 0 0 0.47,1.27a1.9,1.9 0 0 0 1.33,0.44a1.55,1.55 0 0 0 1.78,-1.73a1.59,1.59 0 0 0 -1.8,-1.81a1.78,1.78 0 0 0 -1.32,0.46a1.85,1.85 0 0 0 -0.46,1.36l0,0.01z" id="svg_352"/>
  <path class="cls-21" d="m379.79,94.91a4.21,4.21 0 0 0 0.62,0a2.66,2.66 0 0 0 0.47,-0.1l0,0.93a1.87,1.87 0 0 1 -0.58,0.16a4.39,4.39 0 0 1 -0.69,0.06c-1.55,0 -2.33,-0.81 -2.33,-2.45l0,-4.78l-1.15,0l0,-0.58l1.15,-0.51l0.51,-1.71l0.71,0l0,1.82l2.33,0l0,0.94l-2.33,0l0,4.73a1.62,1.62 0 0 0 0.34,1.11a1.21,1.21 0 0 0 0.95,0.38z" id="svg_353"/>
  <path class="cls-21" d="m386.19,87.59a4.58,4.58 0 0 1 0.95,0.09l-0.16,1.13a3.83,3.83 0 0 0 -0.88,-0.11a2.13,2.13 0 0 0 -1.67,0.79a2.89,2.89 0 0 0 -0.69,2l0,4.26l-1.22,0l0,-8l1,0l0.14,1.48l0.05,0a3.52,3.52 0 0 1 1.08,-1.2a2.38,2.38 0 0 1 1.4,-0.44z" id="svg_354"/>
  <path class="cls-21" d="m393.48,95.75l-0.24,-1.15l-0.06,0a3.21,3.21 0 0 1 -1.2,1a3.58,3.58 0 0 1 -1.49,0.27a2.68,2.68 0 0 1 -1.87,-0.61a2.26,2.26 0 0 1 -0.68,-1.75q0,-2.43 3.89,-2.55l1.37,-0.05l0,-0.49a2.05,2.05 0 0 0 -0.41,-1.4a1.68,1.68 0 0 0 -1.3,-0.45a5.26,5.26 0 0 0 -2.27,0.61l-0.37,-0.92a5.18,5.18 0 0 1 1.3,-0.51a5.68,5.68 0 0 1 1.41,-0.18a3.08,3.08 0 0 1 2.13,0.63a2.68,2.68 0 0 1 0.69,2l0,5.55l-0.9,0zm-2.75,-0.86a2.5,2.5 0 0 0 1.79,-0.62a2.33,2.33 0 0 0 0.65,-1.75l0,-0.72l-1.22,0.05a4.32,4.32 0 0 0 -2.09,0.45a1.36,1.36 0 0 0 -0.64,1.24a1.22,1.22 0 0 0 0.4,1a1.64,1.64 0 0 0 1.11,0.37l0,-0.02z" id="svg_355"/>
  <path class="cls-21" d="m402.29,95.75l0,-5.2a2.08,2.08 0 0 0 -0.45,-1.46a1.83,1.83 0 0 0 -1.4,-0.48a2.27,2.27 0 0 0 -1.84,0.68a3.43,3.43 0 0 0 -0.59,2.25l0,4.21l-1.22,0l0,-8l1,0l0.2,1.1l0.01,0a2.48,2.48 0 0 1 1,-0.92a3.37,3.37 0 0 1 1.5,-0.33a3.09,3.09 0 0 1 2.18,0.7a3,3 0 0 1 0.73,2.24l0,5.21l-1.12,0z" id="svg_356"/>
  <path class="cls-21" d="m411.05,93.58a2,2 0 0 1 -0.83,1.73a4,4 0 0 1 -2.35,0.6a5.2,5.2 0 0 1 -2.49,-0.5l0,-1.13a6.33,6.33 0 0 0 1.24,0.46a5.37,5.37 0 0 0 1.28,0.17a2.85,2.85 0 0 0 1.47,-0.31a1,1 0 0 0 0.51,-0.92a1,1 0 0 0 -0.41,-0.8a6.05,6.05 0 0 0 -1.58,-0.79a8.71,8.71 0 0 1 -1.6,-0.73a2.25,2.25 0 0 1 -0.7,-0.71a1.87,1.87 0 0 1 -0.23,-0.94a1.82,1.82 0 0 1 0.8,-1.55a3.7,3.7 0 0 1 2.19,-0.57a6.41,6.41 0 0 1 2.53,0.53l-0.43,1a5.86,5.86 0 0 0 -2.19,-0.5a2.5,2.5 0 0 0 -1.3,0.27a0.83,0.83 0 0 0 -0.44,0.75a0.92,0.92 0 0 0 0.16,0.55a1.73,1.73 0 0 0 0.53,0.43a12.53,12.53 0 0 0 1.41,0.59a5.39,5.39 0 0 1 1.93,1.05a1.86,1.86 0 0 1 0.5,1.32z" id="svg_357"/>
  <path class="cls-21" d="m423.14,95.75l0,-5.23a2.19,2.19 0 0 0 -0.41,-1.44a1.58,1.58 0 0 0 -1.27,-0.47a2,2 0 0 0 -1.68,0.65a3.08,3.08 0 0 0 -0.54,2l0,4.49l-1.24,0l0,-5.23a2.19,2.19 0 0 0 -0.41,-1.44a1.58,1.58 0 0 0 -1.28,-0.47a2,2 0 0 0 -1.67,0.68a3.66,3.66 0 0 0 -0.54,2.25l0,4.21l-1.21,0l0,-8l1,0l0.19,1.1l0.06,0a2.46,2.46 0 0 1 1,-0.92a3,3 0 0 1 1.41,-0.33a2.4,2.4 0 0 1 2.45,1.35l0.06,0a2.49,2.49 0 0 1 1,-1a3.14,3.14 0 0 1 1.55,-0.37a2.74,2.74 0 0 1 2,0.7a3.14,3.14 0 0 1 0.68,2.24l0,5.23l-1.15,0z" id="svg_358"/>
  <path class="cls-21" d="m426.64,85.56a0.81,0.81 0 0 1 0.21,-0.61a0.76,0.76 0 0 1 1,0a0.78,0.78 0 0 1 0.21,0.6a0.83,0.83 0 0 1 -0.21,0.62a0.74,0.74 0 0 1 -0.51,0.2a0.71,0.71 0 0 1 -0.51,-0.2a0.83,0.83 0 0 1 -0.19,-0.61zm1.36,10.19l-1.21,0l0,-8l1.21,0l0,8z" id="svg_359"/>
  <path class="cls-21" d="m435.57,93.58a2,2 0 0 1 -0.83,1.73a4,4 0 0 1 -2.35,0.6a5.2,5.2 0 0 1 -2.49,-0.5l0,-1.13a6.33,6.33 0 0 0 1.24,0.46a5.37,5.37 0 0 0 1.28,0.17a2.85,2.85 0 0 0 1.47,-0.31a1,1 0 0 0 0.51,-0.92a1,1 0 0 0 -0.41,-0.8a6.05,6.05 0 0 0 -1.58,-0.79a8.71,8.71 0 0 1 -1.6,-0.73a2.25,2.25 0 0 1 -0.7,-0.71a1.87,1.87 0 0 1 -0.23,-0.94a1.82,1.82 0 0 1 0.8,-1.55a3.7,3.7 0 0 1 2.19,-0.57a6.41,6.41 0 0 1 2.53,0.53l-0.43,1a5.82,5.82 0 0 0 -2.19,-0.5a2.52,2.52 0 0 0 -1.3,0.27a0.83,0.83 0 0 0 -0.44,0.75a0.92,0.92 0 0 0 0.16,0.55a1.73,1.73 0 0 0 0.53,0.43a12.53,12.53 0 0 0 1.41,0.59a5.3,5.3 0 0 1 1.93,1.05a1.86,1.86 0 0 1 0.5,1.32z" id="svg_360"/>
  <path class="cls-21" d="m442.79,93.58a2,2 0 0 1 -0.84,1.73a4,4 0 0 1 -2.34,0.6a5.15,5.15 0 0 1 -2.49,-0.5l0,-1.13a6.1,6.1 0 0 0 1.24,0.46a5.3,5.3 0 0 0 1.28,0.17a2.81,2.81 0 0 0 1.46,-0.31a1,1 0 0 0 0.11,-1.72a6,6 0 0 0 -1.59,-0.79a8.55,8.55 0 0 1 -1.59,-0.73a2.05,2.05 0 0 1 -0.7,-0.71a1.78,1.78 0 0 1 -0.24,-0.94a1.82,1.82 0 0 1 0.8,-1.55a3.72,3.72 0 0 1 2.19,-0.57a6.46,6.46 0 0 1 2.54,0.53l-0.43,1a5.9,5.9 0 0 0 -2.19,-0.5a2.54,2.54 0 0 0 -1.31,0.27a0.85,0.85 0 0 0 -0.44,0.75a0.92,0.92 0 0 0 0.17,0.55a1.62,1.62 0 0 0 0.53,0.43a11.38,11.38 0 0 0 1.4,0.59a5.21,5.21 0 0 1 1.93,1.05a1.83,1.83 0 0 1 0.51,1.32z" id="svg_361"/>
  <path class="cls-21" d="m444.52,85.56a0.81,0.81 0 0 1 0.21,-0.61a0.69,0.69 0 0 1 0.51,-0.19a0.68,0.68 0 0 1 0.5,0.2a0.78,0.78 0 0 1 0.22,0.6a0.83,0.83 0 0 1 -0.22,0.62a0.72,0.72 0 0 1 -0.5,0.2a0.69,0.69 0 0 1 -0.51,-0.2a0.83,0.83 0 0 1 -0.21,-0.62zm1.32,10.19l-1.22,0l0,-8l1.22,0l0,8z" id="svg_362"/>
  <path class="cls-21" d="m455.22,91.75a4.43,4.43 0 0 1 -1,3.07a3.45,3.45 0 0 1 -2.73,1.1a3.68,3.68 0 0 1 -1.91,-0.5a3.32,3.32 0 0 1 -1.29,-1.45a5.11,5.11 0 0 1 -0.45,-2.22a4.39,4.39 0 0 1 1,-3.05a3.46,3.46 0 0 1 2.72,-1.1a3.41,3.41 0 0 1 2.68,1.12a4.42,4.42 0 0 1 0.98,3.03zm-6.11,0a3.83,3.83 0 0 0 0.61,2.35a2.45,2.45 0 0 0 3.62,0a3.72,3.72 0 0 0 0.66,-2.35a3.67,3.67 0 0 0 -0.62,-2.32a2.49,2.49 0 0 0 -3.63,0a3.79,3.79 0 0 0 -0.64,2.32z" id="svg_363"/>
  <path class="cls-21" d="m462.77,95.75l0,-5.2a2.12,2.12 0 0 0 -0.44,-1.46a1.84,1.84 0 0 0 -1.4,-0.48a2.3,2.3 0 0 0 -1.85,0.68a3.43,3.43 0 0 0 -0.58,2.25l0,4.21l-1.22,0l0,-8l1,0l0.2,1.1l0.06,0a2.4,2.4 0 0 1 1,-0.92a3.37,3.37 0 0 1 1.5,-0.33a3.1,3.1 0 0 1 2.19,0.7a3,3 0 0 1 0.73,2.24l0,5.21l-1.19,0z" id="svg_364"/>
  <path class="cls-21" d="m474.12,95.91a3.36,3.36 0 0 1 -1.43,-0.29a2.61,2.61 0 0 1 -1.09,-0.89l-0.09,0a10.64,10.64 0 0 1 0.09,1.34l0,3.3l-1.22,0l0,-11.62l1,0l0.17,1.1l0.06,0a2.78,2.78 0 0 1 1.09,-1a3.27,3.27 0 0 1 1.43,-0.3a3,3 0 0 1 2.46,1.09a5.82,5.82 0 0 1 0,6.14a3,3 0 0 1 -2.47,1.13zm-0.18,-7.28a2.14,2.14 0 0 0 -1.78,0.68a3.52,3.52 0 0 0 -0.56,2.16l0,0.28a4.1,4.1 0 0 0 0.56,2.43a2.16,2.16 0 0 0 1.81,0.72a1.87,1.87 0 0 0 1.63,-0.84a3.93,3.93 0 0 0 0.59,-2.32a3.78,3.78 0 0 0 -0.59,-2.3a1.91,1.91 0 0 0 -1.66,-0.81z" id="svg_365"/>
  <path class="cls-21" d="m483.17,87.59a4.61,4.61 0 0 1 1,0.09l-0.17,1.13a3.69,3.69 0 0 0 -0.87,-0.11a2.13,2.13 0 0 0 -1.67,0.79a2.89,2.89 0 0 0 -0.69,2l0,4.26l-1.22,0l0,-8l1,0l0.13,1.48l0.06,0a3.52,3.52 0 0 1 1.08,-1.2a2.37,2.37 0 0 1 1.35,-0.44z" id="svg_366"/>
  <path class="cls-21" d="m492.42,91.75a4.43,4.43 0 0 1 -1,3.07a3.44,3.44 0 0 1 -2.73,1.1a3.7,3.7 0 0 1 -1.91,-0.5a3.38,3.38 0 0 1 -1.29,-1.45a5.11,5.11 0 0 1 -0.45,-2.22a4.44,4.44 0 0 1 1,-3.05a3.46,3.46 0 0 1 2.72,-1.1a3.41,3.41 0 0 1 2.68,1.12a4.42,4.42 0 0 1 0.98,3.03zm-6.11,0a3.83,3.83 0 0 0 0.61,2.35a2.45,2.45 0 0 0 3.62,0a3.72,3.72 0 0 0 0.62,-2.35a3.67,3.67 0 0 0 -0.62,-2.32a2.16,2.16 0 0 0 -1.82,-0.79a2.13,2.13 0 0 0 -1.8,0.78a3.72,3.72 0 0 0 -0.61,2.33z" id="svg_367"/>
  <path class="cls-21" d="m497,94.91a4.21,4.21 0 0 0 0.62,0a3,3 0 0 0 0.48,-0.1l0,0.93a2,2 0 0 1 -0.58,0.16a4.62,4.62 0 0 1 -0.7,0.06c-1.55,0 -2.33,-0.81 -2.33,-2.45l0,-4.78l-1.15,0l0,-0.58l1.15,-0.51l0.52,-1.71l0.7,0l0,1.82l2.33,0l0,0.94l-2.33,0l0,4.73a1.57,1.57 0 0 0 0.35,1.11a1.17,1.17 0 0 0 0.94,0.38z" id="svg_368"/>
  <path class="cls-21" d="m506.49,91.75a4.43,4.43 0 0 1 -1,3.07a3.46,3.46 0 0 1 -2.73,1.1a3.65,3.65 0 0 1 -1.91,-0.5a3.32,3.32 0 0 1 -1.29,-1.45a5,5 0 0 1 -0.46,-2.22a4.44,4.44 0 0 1 1,-3.05a3.5,3.5 0 0 1 2.73,-1.1a3.44,3.44 0 0 1 2.67,1.15a4.42,4.42 0 0 1 0.99,3zm-6.12,0a3.83,3.83 0 0 0 0.62,2.35a2.45,2.45 0 0 0 3.62,0a3.79,3.79 0 0 0 0.62,-2.35a3.73,3.73 0 0 0 -0.62,-2.32a2.17,2.17 0 0 0 -1.83,-0.79a2.14,2.14 0 0 0 -1.8,0.78a3.72,3.72 0 0 0 -0.61,2.33z" id="svg_369"/>
  <path class="cls-21" d="m511.81,95.91a3.42,3.42 0 0 1 -2.7,-1.07a4.42,4.42 0 0 1 -1,-3a4.58,4.58 0 0 1 1,-3.11a3.51,3.51 0 0 1 2.77,-1.1a5.16,5.16 0 0 1 1.16,0.13a3.65,3.65 0 0 1 0.9,0.29l-0.37,1a6.52,6.52 0 0 0 -0.88,-0.27a4,4 0 0 0 -0.84,-0.1c-1.63,0 -2.45,1 -2.45,3.12a3.7,3.7 0 0 0 0.6,2.27a2.08,2.08 0 0 0 1.77,0.79a5.4,5.4 0 0 0 2.06,-0.43l0,1.07a4.39,4.39 0 0 1 -2.02,0.41z" id="svg_370"/>
  <path class="cls-21" d="m522.46,91.75a4.42,4.42 0 0 1 -1,3.07a3.47,3.47 0 0 1 -2.74,1.1a3.7,3.7 0 0 1 -1.91,-0.5a3.44,3.44 0 0 1 -1.29,-1.45a5.11,5.11 0 0 1 -0.45,-2.22a4.44,4.44 0 0 1 1,-3.05a3.47,3.47 0 0 1 2.73,-1.1a3.41,3.41 0 0 1 2.67,1.12a4.42,4.42 0 0 1 0.99,3.03zm-6.11,0a3.83,3.83 0 0 0 0.61,2.35a2.46,2.46 0 0 0 3.63,0a3.79,3.79 0 0 0 0.62,-2.35a3.73,3.73 0 0 0 -0.62,-2.32a2.19,2.19 0 0 0 -1.83,-0.79a2.13,2.13 0 0 0 -1.8,0.78a3.72,3.72 0 0 0 -0.61,2.33z" id="svg_371"/>
  <path class="cls-21" d="m525.75,95.75l-1.21,0l0,-11.4l1.21,0l0,11.4z" id="svg_372"/>
  <path class="cls-21" d="m533.41,93.58a2,2 0 0 1 -0.83,1.73a4,4 0 0 1 -2.35,0.6a5.2,5.2 0 0 1 -2.49,-0.5l0,-1.13a6.33,6.33 0 0 0 1.26,0.47a5.3,5.3 0 0 0 1.28,0.17a2.87,2.87 0 0 0 1.47,-0.31a1,1 0 0 0 0.51,-0.92a1,1 0 0 0 -0.41,-0.8a6.05,6.05 0 0 0 -1.58,-0.79a8.71,8.71 0 0 1 -1.6,-0.73a2.15,2.15 0 0 1 -0.7,-0.71a1.87,1.87 0 0 1 -0.23,-0.94a1.79,1.79 0 0 1 0.8,-1.55a3.7,3.7 0 0 1 2.19,-0.57a6.41,6.41 0 0 1 2.53,0.53l-0.43,1a5.9,5.9 0 0 0 -2.19,-0.5a2.5,2.5 0 0 0 -1.3,0.27a0.83,0.83 0 0 0 -0.44,0.75a0.92,0.92 0 0 0 0.16,0.55a1.73,1.73 0 0 0 0.53,0.43a11.74,11.74 0 0 0 1.41,0.59a5.39,5.39 0 0 1 1.93,1.05a1.86,1.86 0 0 1 0.48,1.31z" id="svg_373"/>
  <path class="cls-21" d="m229.11,103.56a0.81,0.81 0 0 1 0.21,-0.61a0.72,0.72 0 0 1 0.51,-0.19a0.7,0.7 0 0 1 0.51,0.2a0.78,0.78 0 0 1 0.21,0.6a0.83,0.83 0 0 1 -0.21,0.62a0.74,0.74 0 0 1 -0.51,0.2a0.73,0.73 0 0 1 -0.51,-0.2a0.83,0.83 0 0 1 -0.21,-0.62zm1.32,10.19l-1.21,0l0,-8l1.21,0l0,8z" id="svg_374"/>
  <path class="cls-21" d="m238.37,113.75l0,-5.2a2.12,2.12 0 0 0 -0.44,-1.46a1.84,1.84 0 0 0 -1.4,-0.48a2.3,2.3 0 0 0 -1.85,0.68a3.43,3.43 0 0 0 -0.59,2.25l0,4.21l-1.21,0l0,-8l1,0l0.2,1.1l0.05,0a2.48,2.48 0 0 1 1,-0.92a3.37,3.37 0 0 1 1.5,-0.33a3.1,3.1 0 0 1 2.19,0.7a3,3 0 0 1 0.73,2.24l0,5.21l-1.18,0z" id="svg_375"/>
  <path class="cls-21" d="m245.24,113.91a3.42,3.42 0 0 1 -2.7,-1.07a4.42,4.42 0 0 1 -1,-3a4.58,4.58 0 0 1 1,-3.11a3.51,3.51 0 0 1 2.77,-1.1a5,5 0 0 1 1.15,0.13a3.75,3.75 0 0 1 0.91,0.29l-0.37,1a6.52,6.52 0 0 0 -0.88,-0.27a4,4 0 0 0 -0.84,-0.1c-1.63,0 -2.45,1 -2.45,3.12a3.7,3.7 0 0 0 0.6,2.27a2.08,2.08 0 0 0 1.77,0.79a5.4,5.4 0 0 0 2.06,-0.43l0,1.07a4.39,4.39 0 0 1 -2.02,0.41z" id="svg_376"/>
  <path class="cls-21" d="m250.32,113.75l-1.21,0l0,-11.4l1.21,0l0,11.4z" id="svg_377"/>
  <path class="cls-21" d="m253.94,105.75l0,5.21a2.08,2.08 0 0 0 0.45,1.46a1.83,1.83 0 0 0 1.4,0.48a2.27,2.27 0 0 0 1.84,-0.68a3.47,3.47 0 0 0 0.58,-2.25l0,-4.22l1.22,0l0,8l-1,0l-0.17,-1.08l-0.07,0a2.46,2.46 0 0 1 -1,0.91a3.53,3.53 0 0 1 -1.52,0.31a3.09,3.09 0 0 1 -2.19,-0.69a3,3 0 0 1 -0.73,-2.23l0,-5.22l1.19,0z" id="svg_378"/>
  <path class="cls-21" d="m267.41,112.69l-0.06,0a2.86,2.86 0 0 1 -2.52,1.22a3,3 0 0 1 -2.45,-1.07a4.72,4.72 0 0 1 -0.88,-3.07a4.79,4.79 0 0 1 0.88,-3.08a3,3 0 0 1 2.45,-1.1a2.91,2.91 0 0 1 2.5,1.19l0.1,0l-0.05,-0.58l0,-0.56l0,-3.27l1.21,0l0,11.38l-1,0l-0.18,-1.06zm-2.43,0.2a2.24,2.24 0 0 0 1.81,-0.67a3.47,3.47 0 0 0 0.56,-2.19l0,-0.28a4,4 0 0 0 -0.57,-2.43a2.14,2.14 0 0 0 -1.81,-0.73a1.87,1.87 0 0 0 -1.64,0.83a4.14,4.14 0 0 0 -0.57,2.35a3.93,3.93 0 0 0 0.57,2.32a1.89,1.89 0 0 0 1.67,0.8l-0.02,0z" id="svg_379"/>
  <path class="cls-21" d="m270.92,103.56a0.84,0.84 0 0 1 0.2,-0.61a0.72,0.72 0 0 1 0.51,-0.19a0.69,0.69 0 0 1 0.51,0.2a0.78,0.78 0 0 1 0.21,0.6a0.83,0.83 0 0 1 -0.21,0.62a0.75,0.75 0 0 1 -1,0a0.87,0.87 0 0 1 -0.22,-0.62zm1.32,10.19l-1.24,0l0,-8l1.22,0l0.02,8z" id="svg_380"/>
  <path class="cls-21" d="m280.18,113.75l0,-5.2a2.08,2.08 0 0 0 -0.45,-1.46a1.84,1.84 0 0 0 -1.4,-0.48a2.31,2.31 0 0 0 -1.85,0.68a3.43,3.43 0 0 0 -0.58,2.25l0,4.21l-1.22,0l0,-8l1,0l0.2,1.1l0.06,0a2.48,2.48 0 0 1 1.05,-0.92a3.31,3.31 0 0 1 1.5,-0.33a3.09,3.09 0 0 1 2.18,0.7a3,3 0 0 1 0.73,2.24l0,5.21l-1.22,0z" id="svg_381"/>
  <path class="cls-21" d="m290.36,105.75l0,0.77l-1.48,0.17a3,3 0 0 1 0.36,0.67a2.54,2.54 0 0 1 0.16,0.94a2.4,2.4 0 0 1 -0.8,1.88a3.26,3.26 0 0 1 -2.21,0.7a3.66,3.66 0 0 1 -0.68,-0.06a1.2,1.2 0 0 0 -0.77,1a0.51,0.51 0 0 0 0.27,0.48a1.91,1.91 0 0 0 0.93,0.16l1.42,0a3.15,3.15 0 0 1 2,0.55a1.91,1.91 0 0 1 0.7,1.6a2.28,2.28 0 0 1 -1.07,2a5.68,5.68 0 0 1 -3.12,0.7a4.28,4.28 0 0 1 -2.43,-0.59a2,2 0 0 1 -0.38,-2.92a2.36,2.36 0 0 1 1.32,-0.72a1.3,1.3 0 0 1 -0.52,-0.44a1.12,1.12 0 0 1 -0.21,-0.68a1.28,1.28 0 0 1 0.24,-0.77a2.28,2.28 0 0 1 0.74,-0.63a2.17,2.17 0 0 1 -1,-0.88a2.54,2.54 0 0 1 -0.39,-1.4a2.57,2.57 0 0 1 0.79,-2a3.21,3.21 0 0 1 2.24,-0.72a4,4 0 0 1 1.14,0.15l2.75,0.04zm-6.4,9.37a1.07,1.07 0 0 0 0.55,1a3,3 0 0 0 1.58,0.34a4.31,4.31 0 0 0 2.26,-0.46a1.4,1.4 0 0 0 0.74,-1.24a1,1 0 0 0 -0.4,-0.9a3.12,3.12 0 0 0 -1.52,-0.26l-1.46,0a2,2 0 0 0 -1.29,0.4a1.42,1.42 0 0 0 -0.42,1.11l-0.04,0.01zm0.66,-6.8a1.61,1.61 0 0 0 0.48,1.27a1.88,1.88 0 0 0 1.32,0.44a1.55,1.55 0 0 0 1.78,-1.73a1.59,1.59 0 0 0 -1.8,-1.81a1.78,1.78 0 0 0 -1.32,0.46a1.85,1.85 0 0 0 -0.46,1.36l0,0.01z" id="svg_382"/>
  <path class="cls-21" d="m299.39,113.75l-1.25,0l0,-9.61l-3.39,0l0,-1.1l8,0l0,1.1l-3.39,0l0.03,9.61z" id="svg_383"/>
  <path class="cls-21" d="m308.62,104.02a3.51,3.51 0 0 0 -2.79,1.17a4.76,4.76 0 0 0 -1,3.22a4.87,4.87 0 0 0 1,3.25a3.53,3.53 0 0 0 2.81,1.15a9.59,9.59 0 0 0 2.56,-0.41l0,1.09a7.84,7.84 0 0 1 -2.75,0.42a4.68,4.68 0 0 1 -3.65,-1.43a6,6 0 0 1 -1.28,-4.08a6.32,6.32 0 0 1 0.62,-2.9a4.41,4.41 0 0 1 1.78,-1.92a5.42,5.42 0 0 1 2.75,-0.68a6.64,6.64 0 0 1 2.95,0.62l-0.53,1.07a5.68,5.68 0 0 0 -2.47,-0.57z" id="svg_384"/>
  <path class="cls-21" d="m320.23,106.18a3,3 0 0 1 -1.11,2.5a5.06,5.06 0 0 1 -3.18,0.88l-1.26,0l0,4.19l-1.24,0l0,-10.69l2.78,0q4,0 4.01,3.12zm-5.55,2.3l1.13,0a4.12,4.12 0 0 0 2.39,-0.53a2,2 0 0 0 0.74,-1.71a1.87,1.87 0 0 0 -0.69,-1.59a3.71,3.71 0 0 0 -2.17,-0.51l-1.4,0l0,4.34z" id="svg_385"/>
  <path class="cls-21" d="m331.12,113.75l-0.24,-1.15l-0.06,0a3.21,3.21 0 0 1 -1.2,1a3.58,3.58 0 0 1 -1.49,0.27a2.68,2.68 0 0 1 -1.87,-0.61a2.26,2.26 0 0 1 -0.68,-1.75q0,-2.43 3.89,-2.55l1.36,-0.05l0,-0.49a2.05,2.05 0 0 0 -0.4,-1.4a1.68,1.68 0 0 0 -1.3,-0.45a5.26,5.26 0 0 0 -2.27,0.61l-0.37,-0.92a5.18,5.18 0 0 1 1.3,-0.51a5.68,5.68 0 0 1 1.41,-0.18a3.08,3.08 0 0 1 2.13,0.63a2.68,2.68 0 0 1 0.69,2l0,5.55l-0.9,0zm-2.75,-0.86a2.5,2.5 0 0 0 1.79,-0.62a2.33,2.33 0 0 0 0.65,-1.75l0,-0.72l-1.22,0.05a4.32,4.32 0 0 0 -2.09,0.45a1.36,1.36 0 0 0 -0.64,1.24a1.22,1.22 0 0 0 0.4,1a1.64,1.64 0 0 0 1.11,0.37l0,-0.02z" id="svg_386"/>
  <path class="cls-21" d="m339.93,113.75l0,-5.2a2.08,2.08 0 0 0 -0.45,-1.46a1.83,1.83 0 0 0 -1.4,-0.48a2.27,2.27 0 0 0 -1.84,0.68a3.37,3.37 0 0 0 -0.59,2.25l0,4.21l-1.22,0l0,-8l1,0l0.2,1.1l0.06,0a2.48,2.48 0 0 1 1.05,-0.92a3.34,3.34 0 0 1 1.5,-0.33a3.09,3.09 0 0 1 2.18,0.7a3,3 0 0 1 0.73,2.24l0,5.21l-1.22,0z" id="svg_387"/>
  <path class="cls-21" d="m349.07,112.69l-0.07,0a2.86,2.86 0 0 1 -2.52,1.22a3,3 0 0 1 -2.45,-1.07a4.72,4.72 0 0 1 -0.88,-3.07a4.79,4.79 0 0 1 0.88,-3.08a3,3 0 0 1 2.45,-1.1a2.92,2.92 0 0 1 2.52,1.16l0.1,0l0,-0.58l0,-0.56l0,-3.27l1.21,0l0,11.41l-1,0l-0.24,-1.06zm-2.43,0.2a2.24,2.24 0 0 0 1.81,-0.67a3.47,3.47 0 0 0 0.56,-2.19l0,-0.28a4,4 0 0 0 -0.57,-2.43a2.15,2.15 0 0 0 -1.82,-0.73a1.86,1.86 0 0 0 -1.63,0.83a4.14,4.14 0 0 0 -0.57,2.35a4,4 0 0 0 0.56,2.32a1.92,1.92 0 0 0 1.66,0.8z" id="svg_388"/>
  <path class="cls-21" d="m365,103.06l0,6.93a3.77,3.77 0 0 1 -1.1,2.88a4.28,4.28 0 0 1 -3,1a4.05,4.05 0 0 1 -3,-1a3.91,3.91 0 0 1 -1.06,-2.9l0,-6.9l1.16,0l0,7a2.72,2.72 0 0 0 0.74,2a2.92,2.92 0 0 0 2.15,0.72a2.87,2.87 0 0 0 2.09,-0.72a2.81,2.81 0 0 0 0.73,-2.07l0,-7l1.29,0.06z" id="svg_389"/>
  <path class="cls-21" d="m376.27,108.31a5.38,5.38 0 0 1 -1.44,4.05a5.68,5.68 0 0 1 -4.14,1.41l-3,0l0,-10.71l3.31,0a4.8,4.8 0 0 1 5.27,5.25zm-1.32,0a4.29,4.29 0 0 0 -1.05,-3.15a4.2,4.2 0 0 0 -3.12,-1.06l-1.78,0l0,8.55l1.51,0a4.61,4.61 0 0 0 3.35,-1.1a4.32,4.32 0 0 0 1.14,-3.2l-0.05,-0.04z" id="svg_390"/>
  <path class="cls-21" d="m385.37,106.18a3,3 0 0 1 -1.11,2.5a5,5 0 0 1 -3.17,0.88l-1.26,0l0,4.19l-1.25,0l0,-10.69l2.78,0c2.64,0 4.01,1.04 4.01,3.12zm-5.54,2.3l1.17,0a4.12,4.12 0 0 0 2.39,-0.53a2,2 0 0 0 0.74,-1.71a1.87,1.87 0 0 0 -0.69,-1.59a3.71,3.71 0 0 0 -2.17,-0.51l-1.39,0l-0.05,4.34z" id="svg_391"/>
  <line class="cls-22" id="svg_467" x1="210.28" x2="222.2" y1="99.37" y2="99.37"/>
 </g>
</svg>